<?xml version="1.0" encoding="utf-8"?>
<!-- Generator: Adobe Illustrator 15.1.0, SVG Export Plug-In . SVG Version: 6.00 Build 0)  -->
<!DOCTYPE svg PUBLIC "-//W3C//DTD SVG 1.1//EN" "http://www.w3.org/Graphics/SVG/1.1/DTD/svg11.dtd">
<svg version="1.1" id="Слой_1" xmlns="http://www.w3.org/2000/svg" xmlns:xlink="http://www.w3.org/1999/xlink" x="0px" y="0px"
	 width="141.732px" height="141.732px" viewBox="0 0 141.732 141.732" enable-background="new 0 0 141.732 141.732"
	 xml:space="preserve">
<g>
	<path fill="#A066AA" d="M70.866,141.732C31.79,141.732,0,109.942,0,70.866S31.79,0,70.866,0c39.077,0,70.866,31.79,70.866,70.866
		S109.943,141.732,70.866,141.732z M70.866,6.65C35.456,6.65,6.65,35.458,6.65,70.866s28.806,64.216,64.216,64.216
		c35.411,0,64.215-28.809,64.215-64.216S106.277,6.65,70.866,6.65z"/>
</g>
<g>
	<path fill="#A066AA" d="M62.346,103.078c-0.026,0-0.055,0-0.081,0c-0.958-0.026-1.861-0.461-2.475-1.195L39.008,76.945
		c-1.175-1.409-0.984-3.508,0.425-4.683c1.416-1.183,3.51-0.98,4.686,0.422l18.353,22.022l41.07-44.59
		c1.246-1.344,3.348-1.429,4.699-0.195c1.35,1.247,1.436,3.351,0.191,4.702l-43.642,47.383
		C64.161,102.688,63.274,103.078,62.346,103.078z"/>
</g>
</svg>
