<?xml version="1.0" encoding="utf-8"?>
<!-- Generator: Adobe Illustrator 15.1.0, SVG Export Plug-In . SVG Version: 6.00 Build 0)  -->
<!DOCTYPE svg PUBLIC "-//W3C//DTD SVG 1.1//EN" "http://www.w3.org/Graphics/SVG/1.1/DTD/svg11.dtd">
<svg version="1.1" id="Слой_1" xmlns="http://www.w3.org/2000/svg" xmlns:xlink="http://www.w3.org/1999/xlink" x="0px" y="0px"
	 width="116.394px" height="141.732px" viewBox="0 0 116.394 141.732" enable-background="new 0 0 116.394 141.732"
	 xml:space="preserve">
<path fill="#FFFFFF" d="M116.267,137.12l-2.694-102.201c0-6.1-4.96-11.06-11.06-11.06H84.321V11.43c0-6.1-4.963-11.06-11.063-11.06
	H46.297c-6.1,0-11.062,4.96-11.062,11.06v12.429H15.737c-6.1,0-11.062,4.96-11.06,10.88L0.005,137.933
	c-0.049,1.086,0.348,2.148,1.104,2.938c0.753,0.789,1.795,1.232,2.884,1.232h108.308c0.034-0.005,0.068-0.005,0.098,0
	c2.207,0,3.995-1.788,3.995-3.99C116.394,137.772,116.35,137.436,116.267,137.12z M43.215,11.43c0-1.695,1.384-3.079,3.082-3.079
	h26.962c1.697,0,3.082,1.384,3.082,3.079v12.429H43.215V11.43z M15.737,31.839h20.994v7.752h-5.335v15.006h15.006V39.591H41.72
	v-7.752h36.116v7.752h-4.685v15.006h15.006V39.591h-5.332v-7.752h19.688c1.695,0,3.08,1.384,3.08,3.187l2.201,83.628H9.866
	c-0.36,0-0.699,0.083-1.008,0.22l3.798-83.955C12.656,33.223,14.039,31.839,15.737,31.839z M8.168,134.123l0.49-10.835
	c0.363,0.204,0.76,0.355,1.208,0.355h98.06l0.278,10.479H8.168z"/>
</svg>
