<?xml version="1.0" encoding="utf-8"?>
<!-- Generator: Adobe Illustrator 15.1.0, SVG Export Plug-In . SVG Version: 6.00 Build 0)  -->
<!DOCTYPE svg PUBLIC "-//W3C//DTD SVG 1.1//EN" "http://www.w3.org/Graphics/SVG/1.1/DTD/svg11.dtd">
<svg version="1.1" id="Слой_1" xmlns="http://www.w3.org/2000/svg" xmlns:xlink="http://www.w3.org/1999/xlink" x="0px" y="0px"
	 width="135.002px" height="141.732px" viewBox="-9.304 0 135.002 141.732" enable-background="new -9.304 0 135.002 141.732"
	 xml:space="preserve">
<g>
	<g>
		
			<linearGradient id="SVGID_1_" gradientUnits="userSpaceOnUse" x1="222.9949" y1="509.947" x2="378.9249" y2="531.9969" gradientTransform="matrix(0.9206 0.3905 -0.3905 0.9206 -8.026 -521.4754)">
			<stop  offset="0" style="stop-color:#D14B9A"/>
			<stop  offset="1" style="stop-color:#6E2C82"/>
		</linearGradient>
		<path fill="url(#SVGID_1_)" d="M81.103,16.739c0,0,23.78-0.605,33.832,11.478c10.639,12.785,1.725,35.685,1.725,35.685
			s14.23,20.601,6.979,35.038c-8.15,16.218-30.044,19.332-30.044,19.332s-9.194,21.766-26.856,23.563
			c-15.604,1.583-31.764-16.353-31.764-16.353s-23.271,0.888-33.832-11.476c-10.72-12.554-1.723-35.682-1.723-35.682
			s-13.418-19.384-6.975-35.04c6.593-16.024,30.04-19.335,30.04-19.335S31.265,2.652,49.341,0.39
			C67.295-1.859,81.103,16.739,81.103,16.739z"/>
		
			<linearGradient id="SVGID_2_" gradientUnits="userSpaceOnUse" x1="67.7136" y1="868.7498" x2="56.1508" y2="718.4287" gradientTransform="matrix(1 0 0 1 0.0801 -672.791)">
			<stop  offset="0" style="stop-color:#803250"/>
			<stop  offset="1" style="stop-color:#6E2C82;stop-opacity:0"/>
		</linearGradient>
		<path fill="url(#SVGID_2_)" d="M81.103,16.739c0,0,23.78-0.605,33.832,11.478c10.639,12.785,1.725,35.685,1.725,35.685
			s14.23,20.601,6.979,35.038c-8.15,16.218-30.044,19.332-30.044,19.332s-9.194,21.766-26.856,23.563
			c-15.604,1.583-31.764-16.353-31.764-16.353s-23.271,0.888-33.832-11.476c-10.72-12.554-1.723-35.682-1.723-35.682
			s-13.418-19.384-6.975-35.04c6.593-16.024,30.04-19.335,30.04-19.335S31.265,2.652,49.341,0.39
			C67.295-1.859,81.103,16.739,81.103,16.739z"/>
		<g>
			<g>
				<g>
					<defs>
						<path id="SVGID_3_" d="M81.103,16.739c0,0,23.78-0.605,33.832,11.478c10.639,12.785,1.725,35.685,1.725,35.685
							s14.23,20.601,6.979,35.038c-8.15,16.218-30.044,19.332-30.044,19.332s-9.194,21.766-26.856,23.563
							c-15.604,1.583-31.764-16.353-31.764-16.353s-23.271,0.888-33.832-11.476c-10.72-12.554-1.723-35.682-1.723-35.682
							s-13.418-19.384-6.975-35.04c6.593-16.024,30.04-19.335,30.04-19.335S31.265,2.652,49.341,0.39
							C67.295-1.859,81.103,16.739,81.103,16.739z"/>
					</defs>
					<clipPath id="SVGID_4_">
						<use xlink:href="#SVGID_3_"  overflow="visible"/>
					</clipPath>
					<g clip-path="url(#SVGID_4_)">
						<path fill="#734785" d="M-4.748,104.716c0.629-4.003,4.848-4.418,4.905-8.99c0.273,0,0.543,0,0.818,0c0.544,0,1.09,0,1.633,0
							c-1.365,4.354-4.426,7.017-6.536,10.625C-4.566,106.171-4.881,105.666-4.748,104.716z"/>
						<path fill="#57327F" d="M115.385,72.844c0.121-1.513,2.765-0.505,3.27-1.635c0.27,0,0.543,0,0.816,0
							c-0.678,2.312,1.15,2.119,0.815,4.089c-0.664,0.155-0.815,0.815-1.632,0.815c0.615-2.872-2.14-3.657-3.27-2.454
							C115.385,73.389,115.385,73.12,115.385,72.844z"/>
						<g>
							<path fill="#5E3C80" d="M78.607,58.95c0.173,0.917,0.909,1.273,1.632,1.635c0.187-0.636,0.685-0.951,1.639-0.817
								c0.497,0.046,0.968,0.121,0.815,0.817c-0.229,1.716-2.185-1.184-3.27,0.817c1.966,0.586,4.345,2.916,5.724,1.633
								c0.497,0.046,0.964,0.121,0.813,0.817c-2.402,0.097-6.25,2.95-4.901,4.085c-1.594,1.676-3.854,2.684-5.721,4.086
								c-2.081-4.611,4.196-7.304,2.45-13.076C78.064,58.95,78.338,58.95,78.607,58.95z"/>
							<path fill="#8A3A8D" d="M63.9,49.963c-0.031,3.569,2.257,4.826,2.45,8.173c2.752-1.085,7.774-4.177,11.441-1.633
								c-0.076,1.288-2.088,0.639-1.635,2.451c2.229,0.593,1.648-1.625,3.27-1.635c0,0.821-0.66,0.973-0.819,1.635
								c-0.27,0-0.543,0-0.815,0c1.745,5.771-4.531,8.463-2.451,13.072c-2.246,2.657-5.374,4.437-8.174,6.542
								c-2.572-2.855-6.682,0.332-8.171-4.086c-3.018,1.445-7.531,0.802-8.987-1.635c6.725-5.862,7.692-13.779,12.257-24.515
								C62.438,49.244,63.171,49.602,63.9,49.963z M64.719,74.478c0.992,0.093,1.929,0.245,1.631,1.635c1.362,0,2.724,0,4.086,0
								c-0.142-1.224,0.29-3.015-0.815-3.27c-0.339,1.026-1.055,1.673-2.454,1.635c0.719-0.474,2.592-4.407,0.818-2.453
								C67.429,72.933,65.268,71.865,64.719,74.478z"/>
							<path fill="#8A3A8D" d="M72.068,37.704c1.548,0.09,0.573,2.701,2.454,2.453c-4.719,3.111,3.497,4.656-3.271,5.719
								c0-0.271,0-0.544,0-0.816C73.108,44.189,71.563,39.922,72.068,37.704z"/>
							<path fill="#AF5DA3" d="M41.018,59.769c0,0.548,0,1.091,0,1.635c1.573-0.332,0.643-3.17,3.269-2.453
								c-0.885,3.476-4.16,4.559-5.723,7.355c1.075,1.02,4.233-2.81,5.723-4.087c-2.975,6.564-10.904,15.245-17.979,20.43
								c-0.434-0.657-0.854-1.324-0.817-2.45c-0.897-7.003-6.144-9.654-10.624-13.075c8.53-13.442,15.082-32.61,15.526-51.484
								c3.589,7.57,0.766,18.387,1.633,26.152c1.082-4.366,1.063-9.835,3.268-13.076c3.188,1.447,1.747,7.52,4.087,9.806
								c-5.593,3.654-3.101,9.967-3.269,16.346c2.624,0.679,1.694,0.695,3.269-0.815C42.216,55.493,39.145,58.103,41.018,59.769z"/>
							<path fill="#5E3C80" d="M95.769,54.866c-2.738-2.269,2.118-3.823,2.45-5.722c2.074-0.864,4.659,1.723,2.454,2.454
								c-1.61-2.338-3.487,1.897-4.086,3.268C96.311,54.866,96.042,54.866,95.769,54.866z"/>
							<path fill="#57327F" d="M95.769,79.38c0.566-3.219-3.443,0.753-3.271-3.267c3.284,0.138,6.509-2.164,8.175,0.815
								c2.364-0.456-1.251-1.271-0.815-2.45c1.431,0.746,2.838,1.518,2.45,4.085C100.411,80.806,97.667,77.139,95.769,79.38z"/>
							<path fill="#734785" d="M71.256,45.06c-0.985-1.073-0.321-1.286,0-2.452c-3.495,0.325-4.014,3.617-7.355,4.087
								c0.252-3.832,3.878-4.293,6.536-5.722c0-2.177,0-4.357,0-6.536c1.092,0,2.178,0,3.27,0c0.595,2.229-1.624,1.646-1.635,3.27
								C71.563,39.922,73.108,44.189,71.256,45.06z"/>
							<path fill="#734785" d="M96.588,56.501c-7.583,7.656-16.231,14.879-24.52,19.612c-13.455,8.606-27.804,16.321-41.675,24.517
								c7.526-1.462,16.707-8.354,28.603-8.175c-11.385,11.154-42.09,15.036-51.485,26.152c-0.135,0.159,0.109,0.636,0,0.815
								c-3.584-2.136-7.609-3.83-8.989-8.171c6.073-7.272,14.237-12.457,20.43-19.612c3.133-2.313,7.367-3.529,7.355-8.994
								c7.077-5.185,15.004-13.862,17.98-20.427c-1.491,1.277-4.649,5.108-5.724,4.085c1.564-2.794,4.839-3.88,5.724-7.354
								c-2.625-0.717-1.695,2.119-3.27,2.452c0-0.544,0-1.089,0-1.635c0.256-1.104,1.163-1.561,0.816-3.268
								c3.149-1.189,6.708-4.99,9.808-1.633C39.627,78.809,16.517,96.011,1.792,114.521c16.327-13.636,29.966-29.964,48.216-41.678
								c1.457,2.437,5.969,3.079,8.987,1.635c1.487,4.414,5.599,1.233,8.171,4.085c2.8-2.104,5.924-3.885,8.174-6.539
								c1.867-1.404,4.128-2.41,5.721-4.086c5.831-3.429,10.501-8.019,14.708-13.074c0.272,0,0.546,0,0.818,0
								C97.615,55.068,97.411,56.49,96.588,56.501z"/>
							<path fill="#634198" d="M67.982,72.025c1.776-1.953-0.097,1.979-0.815,2.453c1.399,0.038,2.115-0.608,2.45-1.635
								c1.109,0.255,0.681,2.046,0.819,3.27c-1.362,0-2.728,0-4.086,0c0.298-1.39-0.636-1.542-1.635-1.635
								C65.268,71.865,67.429,72.933,67.982,72.025z"/>
							<path fill="#57327F" d="M96.588,54.866c0.602-1.371,2.476-5.605,4.086-3.268c0.698,3.788-1.289,0.857-1.639,2.451
								c4.044,7.298-1.009,13.046,1.639,17.16c-4.542-0.397-1.715,1.497-4.904,2.451c-0.343,1.839-4.338,0.027-4.905,1.639
								c-1.949,2.364,3.985-5.107-0.815-1.639c-0.273,0-0.543,0-0.816,0c1.411-2.129,2.938-4.141,6.537-4.082
								c-4.76-4.916-9.938,3.259-9.807,6.536c-0.663,0.159-0.815,0.819-1.631,0.815c0.456-1.175,1.271-1.994,2.446-2.447
								c-0.151-0.663-0.818-0.815-0.815-1.635c-2.239,1.897-3.415-0.204-4.085,3.267c-0.698,0.152-0.771-0.318-0.816-0.815
								c-0.546,0-1.092,0-1.635,0c3.968-6.29,12.533-10.928,17.161-18.795C97.411,56.49,97.615,55.068,96.588,54.866z"/>
							<path fill="#5E3C80" d="M85.963,76.113c-0.131-3.28,5.047-11.452,9.807-6.538c-3.599-0.057-5.126,1.955-6.537,4.084
								c-1.175,0.456-1.994,1.275-2.454,2.45C86.509,76.113,86.239,76.113,85.963,76.113z"/>
							<path fill="#5E3C80" d="M72.068,76.113c8.288-4.733,16.937-11.956,24.52-19.614c-4.628,7.867-13.196,12.505-17.161,18.798
								c0.543,0,1.089,0,1.635,0c0.045,0.497,0.118,0.961,0.816,0.812c0.67-3.47,1.846-1.365,4.082-3.266
								c-0.004,0.815,0.667,0.971,0.818,1.631c-1.175,0.46-1.994,1.279-2.454,2.454c-2.81,4.874-10.058,5.669-12.256,8.987
								c-0.543,0-1.089,0-1.632,0c0.964,2.205,4.259-0.004,5.721,0c-1.058,2.212-3.121,3.418-5.721,4.085
								c0.501,0.729,0.988,1.466,0,1.636c1.189,2.423,3.187-1.075,5.721,0c-0.954,3.95,3.318,2.672,4.082,4.904
								c-0.602,1.846-3.111,1.787-3.263,4.086c1.002,1.168,2.807,1.545,4.901,1.631c-2.005,1.266-5.323,1.224-8.172,1.639
								c3.899,1.428,11.061-0.905,17.158,0c1.635,0,3.27,0,4.901,0c-9.664,1.109,3.757,3.768,3.27,6.532
								c-0.726-0.632-1.846-0.878-3.27-0.815c-10.656-4.023-25.574,0.118-37.589,0c-0.951,0.688-2.191,1.078-4.087,0.815
								c2.746-1.061,4.886-2.737,8.988-2.446c-1.797-2.274-5.822,0.117-8.169,0c-0.885-0.678,4.324-2.164,6.538-2.451
								c-1.625-1.037-8.104,0.038-10.625,0.815c2.276-2.312,3.876-8.887,7.355-7.352c-1.037-1.459,4.234-8.364,4.085-8.178
								c1.926-2.476,4.365-5.223,5.721-4.901c1.922-0.011-0.297-2.233-1.635-1.635C68.151,80.513,70.046,80.507,72.068,76.113z"/>
							<path fill="#AF5DA3" d="M0.973,95.725c5.897-1.459,12.697-2.012,17.979-4.086c-6.192,7.155-14.358,12.34-20.43,19.612
								c-0.795-0.021-0.634-0.999-0.817-1.632c1.661-4.062,4.936-6.505,7.354-9.81c-3.13-0.656-6.906,5.064-8.171,8.994
								c-0.958-0.132-0.688-1.493-0.816-2.454c2.11-3.608,5.173-6.271,6.536-10.625C2.063,95.725,1.519,95.725,0.973,95.725z"/>
							<path fill="#634198" d="M85.147,63.039c-1.376,1.279-3.754-1.049-5.721-1.635c1.089-2,3.038,0.898,3.27-0.818
								C83.875,61.044,84.687,61.86,85.147,63.039z"/>
							<path fill="#734785" d="M90.049,73.659c-3.754,4.964-9.571,7.863-14.708,11.444c-0.729,0.633-1.846,0.878-3.272,0.815
								c2.198-3.314,9.449-4.116,12.264-8.99c0.818,0.004,0.968-0.663,1.631-0.815c0.273,0,0.546,0,0.815,0
								c0.46-1.179,1.275-1.998,2.451-2.454C89.506,73.659,89.775,73.659,90.049,73.659z"/>
							<path fill="#57327F" d="M93.318,78.563c-1.669,2.807-1.715,2.99-4.904,3.271c4.514,0.494,0.128,1.441-1.636,4.085
								c0.664-0.155,0.816-0.819,1.636-0.815c-0.156,0.66-0.819,0.813-0.816,1.635c3.557,0.83,3.758-1.693,5.721-2.454
								c-0.318,1.168-0.981,1.379,0,2.454c0.27,0,0.543,0,0.815,0c-0.2,0.885-1.624,0.553-1.635,1.635
								c0.695,1.214,2.631,1.179,4.082,1.635c3.26,3.008,7.079,5.448,9.81,8.987c1.846,1.659-2.852-1.984-4.085-2.45
								c-1.21,0.355,0.324,1.047,0,2.45c-2.485-1.327-3.522-4.103-6.536-4.904c-2.292,0.01,1.945,2.229-1.636,1.635
								c1.335,1.936,4.798,1.738,6.54,3.27c-2.191,1.984-12.944,0.442-9.81,4.901c-6.094-0.902-13.259,1.431-17.158,0
								c2.855-0.415,6.167-0.366,8.172-1.632c-2.095-0.086-3.896-0.463-4.901-1.635c0.151-2.299,2.664-2.236,3.266-4.085
								c-0.764-2.229-5.039-0.954-4.085-4.901c-2.534-1.079-4.531,2.419-5.721,0c0.988-0.177,0.505-0.909,0-1.636
								c2.6-0.67,4.666-1.873,5.721-4.085c-1.462-0.007-4.753,2.205-5.721,0c0.546,0,1.092,0,1.635,0
								c1.428,0.063,2.541-0.187,3.27-0.815c7.622-0.004,10.898-4.359,14.708-8.175C91.334,77.281,90.747,79.501,93.318,78.563z"/>
							<path fill="#734785" d="M50.824,106.35c2.521-0.781,8.999-1.856,10.624-0.815c-2.211,0.283-7.421,1.776-6.538,2.447
								c2.347,0.117,6.37-2.268,8.171,0c-4.103-0.291-6.241,1.386-8.99,2.454c-5.688,0.573-10.432,2.094-16.342,2.447
								c-3.569,0.021-0.14-1.404,1.633-0.816c-0.131-0.954-1.49-0.688-2.453-0.815c1.189-2.423,3.19,1.078,5.721,0
								C36.698,108.607,48.754,108.51,50.824,106.35z"/>
							<path fill="#8A3A8D" d="M7.511,119.427c0.109-0.184-0.135-0.66,0-0.816c9.395-11.119,40.1-15.001,51.485-26.155
								c-11.896-0.18-21.075,6.713-28.603,8.175c13.873-8.195,28.221-15.91,41.675-24.517c-2.026,4.396-3.917,4.4-5.718,8.171
								c1.338-0.595,3.557,1.625,1.635,1.635c-1.351-0.317-3.791,2.431-5.72,4.905c0.151-0.19-5.121,6.712-4.086,8.171
								c-3.479-1.531-5.081,5.047-7.355,7.358c-2.068,2.161-14.125,2.258-8.171,4.901c-2.532,1.075-4.532-2.423-5.721,0
								c0.961,0.128,2.319-0.142,2.453,0.819c-1.773-0.595-5.202,0.83-1.635,0.816c-8.653,2.785-17.616,5.261-26.15,8.171
								C9.566,121.185,9.068,119.775,7.511,119.427z"/>
							<path fill="#5E3C80" d="M90.049,73.659c4.805-3.465-1.127,4.006,0.815,1.639c0.57-1.611,4.563,0.2,4.905-1.639
								c0.95,0.688,2.191,1.078,4.089,0.819c-0.436,1.179,3.18,1.994,0.815,2.45c-1.666-2.979-4.891-0.678-8.175-0.815
								c-0.176,4.02,3.833,0.048,3.267,3.27c-0.781,1.67-1.666,3.235-2.447,4.901c-1.963,0.761-2.167,3.284-5.724,2.454
								c0-0.822,0.663-0.975,0.819-1.635c1.614-1.684,6.626-4.228,4.904-6.536c-2.571,0.934-1.987-1.286-3.27-1.635
								c-3.816,3.813-7.086,8.167-14.711,8.171C80.477,81.519,86.295,78.623,90.049,73.659z"/>
							<path fill="#5E3C80" d="M115.385,73.659c1.127-1.203,3.885-0.418,3.27,2.454c-4.109-0.021-5.24,2.935-8.178,4.086
								c2.389,0.995,7.266-2.523,9.81-4.086c0.636,0.726,0.878,1.846,0.815,3.27c-8.213,0.298-16.287,7.632-24.514,10.625
								c-1.455-0.456-3.394-0.421-4.089-1.638c8.545-1.535,13.401-6.754,20.432-9.803c-0.021-0.799-0.995-0.636-1.632-0.819
								C110.802,74.526,113.124,74.129,115.385,73.659z"/>
							<path fill="#802D6C" d="M118.654,76.113c0.816,0,0.968-0.66,1.632-0.815c0,0.27,0,0.542,0,0.815
								c-2.544,1.563-7.418,5.081-9.81,4.086C113.414,79.048,114.541,76.093,118.654,76.113z"/>
							<path fill="#802D6C" d="M88.417,85.099c-0.822-0.003-0.975,0.664-1.639,0.816c1.771-2.641,6.149-3.592,1.639-4.082
								c3.19-0.28,3.235-0.464,4.901-3.271C95.04,80.873,90.028,83.42,88.417,85.099z"/>
							<path fill="#57327F" d="M95.769,103.896c4.814-0.114,9.599,2.063,11.44,2.454c-0.64,2.744-6.785-1.1-7.352,3.267
								c2.043,0.681,3.207,2.243,5.717,2.454c-0.363,0.722-0.719,1.462-1.635,1.631c0.57-3.29-4.065-1.379-4.901-3.266
								C99.526,107.671,86.104,105.01,95.769,103.896z"/>
							<path fill="#734785" d="M94.134,86.738c6.858-1.863,12.277-5.157,17.165-8.99c0.637,0.184,1.611,0.018,1.632,0.815
								c-7.03,3.049-11.887,8.271-20.432,9.807C92.512,87.291,93.933,87.623,94.134,86.738z"/>
							<path fill="#734785" d="M-3.113,108.801c1.265-3.926,5.04-9.646,8.171-8.99c-2.417,3.305-5.694,5.748-7.354,9.81
								C-2.988,109.768-3.066,109.296-3.113,108.801z"/>
							<path fill="#57327F" d="M103.94,98.995c2.838-0.387,0.47,4.435,2.45,4.901C105.451,105.652,101.773,100.53,103.94,98.995z"/>
							<path fill="#5E3C80" d="M117.832,68.758c0.961,0.133,0.691,1.493,0.822,2.452c-0.505,1.132-3.148,0.121-3.273,1.634
								C109.197,75.349,114.292,68.365,117.832,68.758z"/>
							<path fill="#8E3B76" d="M26.307,82.649c0.012,5.465-4.221,6.678-7.355,8.99C13.67,93.714,6.87,94.266,0.973,95.725
								c-0.275,0-0.544,0-0.817,0c-4.825-1.013-3.643,3.981-6.538,4.904c0-0.546,0-1.092,0-1.635
								c6.132-8.496,18.504-13.667,27.787-21.247c1.918,1.192,1.827,2.032,3.268,0c0.094,3.101-2.962,3.837,0.816,2.451
								C25.453,81.325,25.875,81.992,26.307,82.649z"/>
							<path fill="#802D6C" d="M95.769,109.617c1.424-0.059,2.54,0.183,3.27,0.819c0.836,1.887,5.472-0.024,4.904,3.27
								c-2.955,1.13-4.579,3.595-8.174,4.082c-3.28-1.047,2.423-3.889,0-4.082c-0.184,0.636-0.685,0.947-1.636,0.815
								c0.066-3.045,1.228-2.641-0.815-4.085C94.362,110.391,94.448,109.388,95.769,109.617z"/>
						</g>
						<path fill="#AF5DA3" d="M0.156,95.725c-0.055,4.572-4.274,4.987-4.903,8.99c-1.215-0.691-1.182-2.631-1.635-4.086
							C-3.488,99.714-4.67,94.713,0.156,95.725z"/>
					</g>
				</g>
			</g>
		</g>
	</g>
	<path fill="#FFFFFF" d="M88.864,99.666L87.44,45.611c0-3.227-2.624-5.852-5.849-5.852h-9.623v-6.573c0-3.227-2.627-5.85-5.855-5.85
		h-14.26c-3.225,0-5.85,2.624-5.85,5.85v6.573H35.691c-3.227,0-5.852,2.625-5.85,5.755l-2.472,54.583
		c-0.026,0.574,0.185,1.138,0.584,1.552c0.398,0.419,0.949,0.653,1.524,0.653h57.288c0.018-0.003,0.038-0.003,0.052,0
		c1.169,0,2.116-0.943,2.116-2.111C88.933,100.011,88.909,99.835,88.864,99.666z M50.224,33.187c0-0.897,0.732-1.63,1.629-1.63
		h14.264c0.895,0,1.628,0.733,1.628,1.63v6.573H50.224V33.187z M35.691,43.981h11.104v4.1h-2.822v7.938h7.938v-7.938h-2.477v-4.1
		h19.102v4.1h-2.478v7.938h7.936v-7.938h-2.82v-4.1h10.418c0.892,0,1.624,0.731,1.624,1.685l1.169,44.235H32.585
		c-0.19,0-0.37,0.045-0.534,0.114l2.01-44.404C34.061,44.713,34.792,43.981,35.691,43.981z M31.688,98.083l0.259-5.731
		c0.192,0.107,0.401,0.187,0.638,0.187h51.868l0.146,5.545H31.688L31.688,98.083z"/>
</g>
</svg>
