<?xml version="1.0" encoding="utf-8"?>
<!-- Generator: Adobe Illustrator 15.1.0, SVG Export Plug-In . SVG Version: 6.00 Build 0)  -->
<!DOCTYPE svg PUBLIC "-//W3C//DTD SVG 1.1//EN" "http://www.w3.org/Graphics/SVG/1.1/DTD/svg11.dtd">
<svg version="1.1" id="Слой_1" xmlns="http://www.w3.org/2000/svg" xmlns:xlink="http://www.w3.org/1999/xlink" x="0px" y="0px"
	 width="129.291px" height="141.732px" viewBox="0 0 129.291 141.732" enable-background="new 0 0 129.291 141.732"
	 xml:space="preserve">
<g>
	<path fill="#838383" d="M116.275,11.709h-9.914V6.354c0-3.503-2.9-6.354-6.465-6.354c-3.563,0-6.465,2.851-6.465,6.354v5.355
		h-22.32V6.354C71.111,2.851,68.209,0,64.646,0s-6.465,2.851-6.465,6.354v5.355h-22.32V6.354C35.861,2.851,32.959,0,29.396,0
		c-3.564,0-6.465,2.851-6.465,6.354v5.355h-9.914C5.84,11.709,0,17.547,0,24.724v103.993c0,7.178,5.839,13.015,13.017,13.015
		h103.258c7.177,0,13.017-5.837,13.017-13.015V24.724C129.292,17.547,123.452,11.709,116.275,11.709z M97.334,6.354
		c0-1.351,1.147-2.451,2.562-2.451s2.562,1.1,2.562,2.451v20.469c0,1.351-1.147,2.451-2.562,2.451s-2.562-1.1-2.562-2.451V6.354z
		 M62.084,6.354c0-1.351,1.147-2.451,2.562-2.451s2.562,1.1,2.562,2.451v20.469c0,1.351-1.147,2.451-2.562,2.451
		s-2.562-1.1-2.562-2.451V6.354z M26.834,6.354c0-1.351,1.147-2.451,2.562-2.451s2.562,1.1,2.562,2.451v20.469
		c0,1.351-1.147,2.451-2.562,2.451s-2.562-1.1-2.562-2.451V6.354z M125.388,128.717c0,5.024-4.09,9.112-9.113,9.112H13.017
		c-5.023,0-9.113-4.088-9.113-9.112V24.724c0-5.023,4.09-9.111,9.113-9.111h9.914v11.21c0,3.503,2.9,6.354,6.465,6.354
		c3.563,0,6.465-2.851,6.465-6.354v-11.21h22.32v11.21c0,3.503,2.901,6.354,6.465,6.354s6.465-2.851,6.465-6.354v-11.21h22.32v11.21
		c0,3.503,2.901,6.354,6.465,6.354c3.564,0,6.465-2.851,6.465-6.354v-11.21h9.914c5.023,0,9.113,4.088,9.113,9.111V128.717z"/>
	<path fill="#838383" d="M40.492,97.852H26.739c0.1,8.129-1.028,13.791-3.384,16.989h-1.765v8.344h2.752v-5.594h15.536v5.594h2.753
		v-8.344h-2.139V97.852z M37.164,114.841H26.552c1.734-3.074,2.726-7.813,2.974-14.22h7.638V114.841z"/>
	<path fill="#838383" d="M54.656,97.407c-2.726,0-4.943,0.916-6.655,2.75c-1.708,1.836-2.562,4.412-2.562,7.732
		c0,3.209,0.843,5.701,2.539,7.48c1.685,1.777,3.976,2.668,6.864,2.668c2.291,0,4.174-0.559,5.649-1.674
		c1.475-1.115,2.484-2.682,3.03-4.701l-3.458-0.428c-0.507,1.412-1.196,2.439-2.062,3.084c-0.869,0.645-1.917,0.969-3.141,0.969
		c-1.65,0-3.023-0.578-4.128-1.729c-1.102-1.153-1.716-2.813-1.838-4.982h14.717c0.016-0.396,0.02-0.693,0.02-0.893
		c0-3.258-0.835-5.785-2.509-7.582C59.451,98.304,57.293,97.407,54.656,97.407z M49.08,105.827c0.114-1.723,0.689-3.1,1.734-4.126
		c1.048-1.029,2.344-1.544,3.88-1.544c1.696,0,3.08,0.645,4.144,1.935c0.693,0.829,1.116,2.075,1.265,3.735H49.08z"/>
	<polygon fill="#838383" points="81.825,106.067 72.547,106.067 72.547,97.852 69.205,97.852 69.205,117.591 72.547,117.591 
		72.547,108.838 81.825,108.838 81.825,117.591 85.167,117.591 85.167,97.852 81.825,97.852 	"/>
	<path fill="#838383" d="M104.364,107.174c-1.498-1.073-3.625-1.609-6.389-1.609h-4.234v-7.713h-3.347v19.739h8.362
		c2.74,0,4.727-0.585,5.98-1.757c1.239-1.17,1.864-2.581,1.864-4.228C106.601,109.722,105.85,108.245,104.364,107.174z
		 M101.787,114.059c-0.903,0.521-2.417,0.782-4.536,0.782h-3.51v-6.507h3.956c2.295,0,3.773,0.336,4.444,1.004
		c0.667,0.67,1.003,1.432,1.003,2.285C103.144,112.727,102.69,113.54,101.787,114.059z"/>
	<polygon fill="#838383" points="70.749,78.951 70.749,39.641 66.605,39.641 54.648,45.444 56.424,49.588 65.599,45.206 
		65.599,78.951 	"/>
</g>
</svg>
