<?xml version="1.0" encoding="utf-8"?>
<!-- Generator: Adobe Illustrator 15.1.0, SVG Export Plug-In . SVG Version: 6.00 Build 0)  -->
<!DOCTYPE svg PUBLIC "-//W3C//DTD SVG 1.1//EN" "http://www.w3.org/Graphics/SVG/1.1/DTD/svg11.dtd">
<svg version="1.1" id="Слой_1" xmlns="http://www.w3.org/2000/svg" xmlns:xlink="http://www.w3.org/1999/xlink" x="0px" y="0px"
	 width="141.732px" height="99.967px" viewBox="0 0 141.732 99.967" enable-background="new 0 0 141.732 99.967"
	 xml:space="preserve">
<g>
	<path fill="#A637E8" d="M132.783,0H8.949C4.012,0,0,4.015,0,8.949v82.067c0,4.935,4.012,8.949,8.949,8.949h30.764
		c1.514,0,2.738-1.225,2.738-2.738c0-1.515-1.225-2.739-2.738-2.739H8.949c-1.915,0-3.472-1.557-3.472-3.472V26.019h130.777v64.998
		c0,1.915-1.557,3.472-3.472,3.472H52.037c-1.514,0-2.739,1.225-2.739,2.739c0,1.514,1.226,2.738,2.739,2.738h80.746
		c4.938,0,8.949-4.015,8.949-8.949V8.949C141.732,4.015,137.721,0,132.783,0z M5.478,20.541V8.949c0-1.915,1.557-3.471,3.472-3.471
		h123.834c1.915,0,3.472,1.556,3.472,3.471v11.592H5.478z"/>
	<path fill="#A637E8" d="M118.404,83.191c4.932,0,8.95-4.016,8.95-8.949v-6.066c0-4.935-4.019-8.949-8.95-8.949h-16.337
		c-4.931,0-8.948,4.015-8.948,8.949v6.066c0,4.934,4.018,8.949,8.948,8.949H118.404z M98.597,74.242v-6.066
		c0-1.915,1.557-3.472,3.471-3.472h16.337c1.915,0,3.472,1.557,3.472,3.472v6.066c0,1.914-1.557,3.471-3.472,3.471h-16.337
		C100.153,77.713,98.597,76.156,98.597,74.242z"/>
	<path fill="#A637E8" d="M17.802,32.181c-1.514,0-2.738,1.225-2.738,2.739v7.874c0,1.514,1.225,2.738,2.738,2.738h17.803
		c1.514,0,2.738-1.225,2.738-2.738V34.92c0-1.514-1.225-2.739-2.738-2.739H17.802z M32.866,40.055H20.541v-2.396h12.325V40.055z"/>
	<path fill="#A637E8" d="M78.74,45.875c1.514,0,2.738-1.225,2.738-2.739v-8.558c0-1.515-1.225-2.74-2.738-2.74H49.982
		c-1.513,0-2.738,1.225-2.738,2.74v8.558c0,1.515,1.226,2.739,2.738,2.739H78.74z M52.722,37.316h23.28v3.081h-23.28V37.316z"/>
</g>
</svg>
