<?xml version="1.0" encoding="utf-8"?>
<!-- Generator: Adobe Illustrator 15.1.0, SVG Export Plug-In . SVG Version: 6.00 Build 0)  -->
<!DOCTYPE svg PUBLIC "-//W3C//DTD SVG 1.1//EN" "http://www.w3.org/Graphics/SVG/1.1/DTD/svg11.dtd">
<svg version="1.1" id="Слой_1" xmlns="http://www.w3.org/2000/svg" xmlns:xlink="http://www.w3.org/1999/xlink" x="0px" y="0px"
	 width="141.732px" height="76.079px" viewBox="0 0 141.732 76.079" enable-background="new 0 0 141.732 76.079"
	 xml:space="preserve">
<path fill="#838383" d="M141.733,39.268l-0.775-0.443c-3.06-1.753-8.363-5.132-9.579-6.737c-1.653-2.178-3.92-10.152-4.713-13.26
	c-0.111-2.203-1.938-3.958-4.167-3.958h-18.302c-2.302,0-4.173,1.871-4.173,4.172v38.963c0,0.148,0.039,0.287,0.058,0.429
	c-0.024,0.151-0.024,0.311-0.045,0.462h-5.806V10.301C94.231,4.623,89.609,0,83.928,0H36.372c-5.681,0-10.304,4.623-10.304,10.301
	v8.43h-8.11c-0.854,0-1.545,0.69-1.545,1.545c0,0.854,0.691,1.545,1.545,1.545h8.11v6.372H10.621c-0.854,0-1.544,0.69-1.544,1.545
	c0,0.854,0.691,1.544,1.544,1.544h15.448v8.304H1.545C0.691,39.585,0,40.275,0,41.13c0,0.854,0.691,1.545,1.545,1.545h24.523v19.309
	h9.183c0.557,7.854,7.057,14.097,15.051,14.097c7.992,0,14.494-6.242,15.049-14.097h19.032h9.848h5.709
	c0.555,7.854,7.057,14.097,15.049,14.097c8.06,0,14.609-6.342,15.071-14.289h11.673V39.268z M50.302,72.99
	c-6.654,0-12.069-5.413-12.069-12.068s5.415-12.068,12.069-12.068c6.656,0,12.068,5.413,12.068,12.068S56.958,72.99,50.302,72.99z
	 M84.383,58.895H65.255c-1.002-7.393-7.29-13.131-14.953-13.131c-7.664,0-13.95,5.738-14.953,13.131h-6.191v-16.22h6.758
	c0.854,0,1.544-0.691,1.544-1.545c0-0.854-0.691-1.545-1.544-1.545h-6.758v-8.304h15.833c0.854,0,1.545-0.69,1.545-1.544
	c0-0.854-0.691-1.545-1.545-1.545H29.158V21.82H52.33c0.854,0,1.545-0.691,1.545-1.545c0-0.854-0.691-1.545-1.545-1.545H29.158
	v-8.43c0-3.977,3.236-7.211,7.214-7.211h47.556c3.977,0,7.214,3.234,7.214,7.211v48.594H84.383z M114.989,72.99
	c-6.655,0-12.068-5.413-12.068-12.068s5.413-12.068,12.068-12.068c6.656,0,12.068,5.413,12.068,12.068S121.645,72.99,114.989,72.99z
	 M138.643,58.701h-8.719c-1.087-7.302-7.338-12.938-14.936-12.938c-4.833,0-9.097,2.317-11.875,5.854V19.041
	c0-0.598,0.485-1.083,1.083-1.083h18.302c0.598,0,1.083,0.485,1.083,1.083l0.049,0.377c0.289,1.159,2.924,11.417,5.286,14.534
	c1.701,2.247,7.521,5.799,9.727,7.099V58.701z"/>
</svg>
