<?xml version="1.0" encoding="utf-8"?>
<!-- Generator: Adobe Illustrator 15.1.0, SVG Export Plug-In . SVG Version: 6.00 Build 0)  -->
<!DOCTYPE svg PUBLIC "-//W3C//DTD SVG 1.1//EN" "http://www.w3.org/Graphics/SVG/1.1/DTD/svg11.dtd">
<svg version="1.1" id="Слой_1" xmlns="http://www.w3.org/2000/svg" xmlns:xlink="http://www.w3.org/1999/xlink" x="0px" y="0px"
	 width="105.088px" height="141.732px" viewBox="0 0 105.088 141.732" enable-background="new 0 0 105.088 141.732"
	 xml:space="preserve">
<g>
	<path fill="#353535" d="M52.544,0C23.571,0,0,23.57,0,52.542c0,23.13,15.041,42.776,35.842,49.776l16.893,39.414l15.882-39.185
		c21.132-6.808,36.472-26.639,36.472-50.005C105.088,23.57,81.518,0,52.544,0z M66.402,100.773
		c-0.239,1.862-13.728,34.92-13.728,34.92s-14.293-33.719-14.581-34.378c-0.16-0.289-0.32-0.574-0.48-0.861
		c-0.182-0.041-0.303-0.069-0.303-0.069C17.047,93.916,2.324,74.924,2.324,52.542c0-27.691,22.529-50.219,50.221-50.219
		s50.221,22.528,50.221,50.219C102.765,75.423,87.367,94.739,66.402,100.773z"/>
	<path fill="#353535" d="M52.544,28.531c-13.24,0-24.012,10.771-24.012,24.012c0,13.241,10.771,24.012,24.012,24.012
		s24.012-10.771,24.012-24.012C76.556,39.302,65.785,28.531,52.544,28.531z M52.544,74.231c-11.958,0-21.688-9.73-21.688-21.689
		s9.73-21.688,21.688-21.688c11.957,0,21.688,9.729,21.688,21.688S64.501,74.231,52.544,74.231z"/>
</g>
</svg>
