<?xml version="1.0" encoding="utf-8"?>
<!-- Generator: Adobe Illustrator 15.1.0, SVG Export Plug-In . SVG Version: 6.00 Build 0)  -->
<!DOCTYPE svg PUBLIC "-//W3C//DTD SVG 1.1//EN" "http://www.w3.org/Graphics/SVG/1.1/DTD/svg11.dtd">
<svg version="1.1" id="Слой_1" xmlns="http://www.w3.org/2000/svg" xmlns:xlink="http://www.w3.org/1999/xlink" x="0px" y="0px"
	 width="141.732px" height="141.732px" viewBox="0 0 141.732 141.732" enable-background="new 0 0 141.732 141.732"
	 xml:space="preserve">
<g>
	<path fill="#1B59C1" d="M49.042,37.705c0-11.145-7.521-20.468-17.718-23.441V0.571H17.718v13.692C7.521,17.237,0,26.561,0,37.705
		s7.521,20.469,17.718,23.438v80.588h13.606V61.144C41.522,58.174,49.042,48.85,49.042,37.705z M24.521,48.617
		c-6.019,0-10.916-4.896-10.916-10.912c0-6.019,4.896-10.915,10.916-10.915c6.019,0,10.915,4.896,10.915,10.915
		C35.437,43.721,30.54,48.617,24.521,48.617z"/>
	<path fill="#1B59C1" d="M77.669,70.953V0.571H64.063v70.382C53.866,73.921,46.345,83.246,46.345,94.39
		c0,11.141,7.521,20.469,17.718,23.438v23.904h13.606v-23.904c10.197-2.969,17.719-12.297,17.719-23.438
		C95.388,83.246,87.867,73.921,77.669,70.953z M70.866,105.306c-6.019,0-10.915-4.896-10.915-10.916s4.896-10.912,10.915-10.912
		c6.02,0,10.915,4.893,10.915,10.912S76.886,105.306,70.866,105.306z"/>
	<path fill="#1B59C1" d="M141.732,60.662c0-11.144-7.52-20.468-17.717-23.438V0.571h-13.607v36.652
		c-10.197,2.97-17.717,12.294-17.717,23.438c0,11.145,7.52,20.469,17.717,23.438v57.633h13.607V84.099
		C134.212,81.13,141.732,71.806,141.732,60.662z M117.21,71.578c-6.018,0-10.914-4.897-10.914-10.916
		c0-6.016,4.896-10.912,10.914-10.912c6.02,0,10.916,4.896,10.916,10.912C128.126,66.681,123.23,71.578,117.21,71.578z"/>
</g>
</svg>
