<?xml version="1.0" encoding="utf-8"?>
<!-- Generator: Adobe Illustrator 15.1.0, SVG Export Plug-In . SVG Version: 6.00 Build 0)  -->
<!DOCTYPE svg PUBLIC "-//W3C//DTD SVG 1.1//EN" "http://www.w3.org/Graphics/SVG/1.1/DTD/svg11.dtd">
<svg version="1.1" id="Слой_1" xmlns="http://www.w3.org/2000/svg" xmlns:xlink="http://www.w3.org/1999/xlink" x="0px" y="0px"
	 width="136.638px" height="141.732px" viewBox="0 0 136.638 141.732" enable-background="new 0 0 136.638 141.732"
	 xml:space="preserve">
<path fill="#787878" d="M136.21,74.249c0,0-23.663-26.388-28.063-31.204c-2.254-2.47-6.801-3.723-13.514-3.723
	c-4.004,0-7.285,0.452-7.422,0.471c-0.53,0.072-0.952,0.402-1.201,0.837L72.123,30.418V23.35
	c9.289-5.692,10.219-10.677,10.304-11.889c0.167-0.875,0.726-4.729-1.701-7.789C78.795,1.235,75.583,0,71.18,0
	c-4.467,0-7.938,1.219-10.313,3.621c-3.098,3.132-3.088,7.117-3.086,7.285c0.01,0.922,0.658,1.658,1.695,1.655
	c0.924-0.011,1.665-0.769,1.655-1.694c0-0.026,0.028-2.775,2.118-4.89c1.724-1.744,4.392-2.627,7.931-2.627
	c3.317,0,5.64,0.802,6.905,2.381c1.694,2.117,1.047,5.116,1.043,5.139c-0.032,0.131-0.045,0.265-0.045,0.401
	c0,0.041-0.367,4.344-9.483,9.684c-0.513,0.301-0.827,0.851-0.827,1.446v7.226L50.79,41c-0.177-0.625-0.69-1.115-1.361-1.207
	c-0.138-0.02-3.422-0.471-7.422-0.471c-6.714,0-11.261,1.253-13.515,3.723C24.093,47.86,0.428,74.249,0.428,74.249
	c-0.606,0.678-0.564,1.715,0.097,2.336l22.401,21.145c0.645,0.607,1.657,0.607,2.301,0l5.129-4.861v47.189
	c0,0.926,0.749,1.676,1.675,1.676h72.577c0.926,0,1.675-0.75,1.675-1.676V92.868l5.129,4.861c0.642,0.602,1.652,0.607,2.3,0
	l22.4-21.145C136.773,75.963,136.819,74.926,136.21,74.249z M69.852,32.904l15.306,11.259c0.095,0.069,0.206,0.095,0.311,0.144
	c-1.583,7.896-9.686,11.538-17.29,11.538c-4.628,0.003-8.909-1.299-12.053-3.661c-2.584-1.943-4.249-4.524-4.918-7.569
	c0.08-0.036,0.168-0.026,0.245-0.072L69.852,32.904z M112.567,94.206l-6.808-6.447c-0.484-0.461-1.201-0.586-1.813-0.32
	c-0.615,0.262-1.014,0.867-1.014,1.537v49.408H33.706V88.975c0-0.67-0.399-1.275-1.012-1.537c-0.618-0.262-1.328-0.141-1.814,0.32
	l-6.806,6.447L4.012,75.27c4.694-5.231,23.125-25.774,26.953-29.968c1.549-1.694,5.47-2.63,11.042-2.63
	c2.252,0,4.293,0.157,5.574,0.281c0.38,4.874,2.619,8.966,6.534,11.907c3.721,2.797,8.714,4.338,14.064,4.334
	c9.946,0,20.011-5.57,20.877-16.241c1.279-0.125,3.324-0.281,5.578-0.281c5.57,0,9.492,0.936,11.04,2.63
	c3.827,4.193,22.257,24.737,26.954,29.968L112.567,94.206z"/>
</svg>
