<?xml version="1.0" encoding="utf-8"?>
<!-- Generator: Adobe Illustrator 15.1.0, SVG Export Plug-In . SVG Version: 6.00 Build 0)  -->
<!DOCTYPE svg PUBLIC "-//W3C//DTD SVG 1.1//EN" "http://www.w3.org/Graphics/SVG/1.1/DTD/svg11.dtd">
<svg version="1.1" id="Слой_1" xmlns="http://www.w3.org/2000/svg" xmlns:xlink="http://www.w3.org/1999/xlink" x="0px" y="0px"
	 width="141.732px" height="131.317px" viewBox="0 0 141.732 131.317" enable-background="new 0 0 141.732 131.317"
	 xml:space="preserve">
<path fill="#FFFFFF" d="M133.95,17.014c-6.97-8.836-18.807-14.772-32.469-16.293c-15.152-1.698-25.89,10.347-30.888,17.52
	c-5.237-7.411-16.004-19.198-30.762-17.52C26.17,2.241,14.333,8.178,7.363,17.014c-6.19,7.853-8.603,17.636-7.173,29.083
	c3.554,28.389,64.629,82.458,67.23,84.744c0.756,0.67,1.733,1.034,2.742,1.034h0.989c1.009,0,1.987-0.364,2.742-1.034
	c2.601-2.286,63.677-56.355,67.23-84.744C142.552,34.649,140.14,24.866,133.95,17.014z M132.88,45.063
	c-2.515,20.12-43.8,60.974-62.227,77.541C52.232,106.036,10.947,65.183,8.432,45.063c-1.146-9.155,0.689-16.866,5.455-22.903
	c5.602-7.103,15.391-11.908,26.867-13.186c0.619-0.066,1.227-0.102,1.83-0.102c14.25,0,24.105,18.731,24.201,18.919
	c0.608,1.176,1.744,1.997,3.052,2.2c1.309,0.192,2.642-0.229,3.574-1.166l0.68-0.68c0.304-0.299,0.557-0.648,0.755-1.029
	c0.097-0.192,10.428-19.815,25.712-18.143c11.477,1.277,21.266,6.083,26.867,13.186C132.191,28.196,134.026,35.907,132.88,45.063z"
	/>
</svg>
