<?xml version="1.0" encoding="utf-8"?>
<!-- Generator: Adobe Illustrator 15.1.0, SVG Export Plug-In . SVG Version: 6.00 Build 0)  -->
<!DOCTYPE svg PUBLIC "-//W3C//DTD SVG 1.1//EN" "http://www.w3.org/Graphics/SVG/1.1/DTD/svg11.dtd">
<svg version="1.1" id="Слой_1" xmlns="http://www.w3.org/2000/svg" xmlns:xlink="http://www.w3.org/1999/xlink" x="0px" y="0px"
	 width="141.732px" height="136.627px" viewBox="0 0 141.732 136.627" enable-background="new 0 0 141.732 136.627"
	 xml:space="preserve">
<path fill="#FFFFFF" d="M138.023,95.955c3.502-16.282,3.709-31.454,3.709-31.782c0-2.426-0.941-4.632-2.727-6.376
	c-5.922-5.788-20.396-5.955-37.273-5.555c-5.193,0.121-10.547,0.234-12.124-0.2c-1.769-0.494-0.622-10.995-0.194-14.952
	c0.559-5.093,1.133-10.359,0.682-14.624C89.464,16.443,87.78,0.442,71.959,0.007C71.782,0,71.608,0,71.438,0
	C61.051,0,57.121,8.616,56.466,13.783c0.007,0.214,0.491,20.975-4.104,34.763c-1.751,5.261-3.512,8.215-4.913,9.933
	c-2.446-2.366-5.691-3.676-9.144-3.676H13.027C5.845,54.802,0,60.517,0,67.548v56.332c0,7.031,5.845,12.746,13.027,12.746h25.279
	c1.631,0,3.178-0.327,4.622-0.869c1.08,0.007,17.402,0.127,35.876,0.127c9.558,0,19.664-0.033,28.46-0.127
	c17.626-0.187,26.241-19.765,30.452-38.393c0.19-0.428,0.312-0.896,0.312-1.396C138.027,95.961,138.023,95.961,138.023,95.955z
	 M38.306,129.782H13.027c-3.409,0-6.183-2.646-6.183-5.901V67.548c0-3.255,2.774-5.902,6.183-5.902h25.279
	c1.671,0,3.235,0.629,4.408,1.771c1.146,1.103,1.775,2.573,1.775,4.131v56.332C44.488,127.135,41.714,129.782,38.306,129.782z
	 M107.19,128.914c-19.192,0.207-44.578,0.106-56.95,0.046c0.695-1.563,1.093-3.274,1.093-5.079V67.548
	c0-0.989-0.144-1.945-0.368-2.881c2.503-2.319,5.38-6.423,7.891-13.956c4.979-14.945,4.478-36.207,4.421-36.534
	c0.184-1.257,1.457-7.753,8.495-7.325c5.898,0.16,10.116,3.001,11.52,16.335c0.371,3.529-0.163,8.429-0.679,13.161
	c-1.136,10.406-2.205,20.231,5.157,22.284c2.433,0.688,6.733,0.635,14.116,0.447c10.467-0.233,27.999-0.628,32.334,3.609
	c0.475,0.461,0.668,0.896,0.668,1.483c0,1.725-0.101,4.205-0.314,7.132H82.988c-1.892,0-3.422,1.531-3.422,3.423
	s1.53,3.422,3.422,3.422h50.938c-0.504,4.432-1.25,9.357-2.285,14.397H82.988c-1.892,0-3.422,1.53-3.422,3.422
	s1.53,3.422,3.422,3.422h47.061c-1.336,5.106-3.023,10.039-5.103,14.404H82.988c-1.892,0-3.422,1.53-3.422,3.422
	s1.53,3.422,3.422,3.422h38.015C117.356,125.631,112.822,128.853,107.19,128.914z"/>
</svg>
