<?xml version="1.0" encoding="utf-8"?>
<!-- Generator: Adobe Illustrator 15.1.0, SVG Export Plug-In . SVG Version: 6.00 Build 0)  -->
<!DOCTYPE svg PUBLIC "-//W3C//DTD SVG 1.1//EN" "http://www.w3.org/Graphics/SVG/1.1/DTD/svg11.dtd">
<svg version="1.1" id="Слой_1" xmlns="http://www.w3.org/2000/svg" xmlns:xlink="http://www.w3.org/1999/xlink" x="0px" y="0px"
	 width="114.194px" height="141.732px" viewBox="0 0 114.194 141.732" enable-background="new 0 0 114.194 141.732"
	 xml:space="preserve">
<g>
	<path fill="#828282" d="M57.1,24.786c-14.4,0-26.118,11.715-26.118,26.114c0,14.398,11.717,26.114,26.118,26.114
		c14.398,0,26.114-11.715,26.114-26.114C83.214,36.501,71.499,24.786,57.1,24.786z M57.1,71.703
		c-11.474,0-20.806-9.333-20.806-20.803S45.626,30.098,57.1,30.098c11.47,0,20.803,9.333,20.803,20.803S68.57,71.703,57.1,71.703z"
		/>
	<path fill="#828282" d="M57.096,0C25.614,0,0.001,25.613,0.001,57.097c0,30.865,53.023,80.826,55.281,82.937l1.813,1.699
		l1.815-1.699c2.255-2.111,55.282-52.072,55.282-82.937C114.194,25.613,88.581,0,57.096,0z M57.096,134.413
		c-9.371-9.109-51.783-51.762-51.783-77.316c0-28.555,23.23-51.785,51.783-51.785c28.556,0,51.786,23.23,51.786,51.785
		C108.882,82.641,66.467,125.301,57.096,134.413z"/>
</g>
</svg>
