<?xml version="1.0" encoding="utf-8"?>
<!-- Generator: Adobe Illustrator 15.1.0, SVG Export Plug-In . SVG Version: 6.00 Build 0)  -->
<!DOCTYPE svg PUBLIC "-//W3C//DTD SVG 1.1//EN" "http://www.w3.org/Graphics/SVG/1.1/DTD/svg11.dtd">
<svg version="1.1" id="Слой_1" xmlns="http://www.w3.org/2000/svg" xmlns:xlink="http://www.w3.org/1999/xlink" x="0px" y="0px"
	 width="141.732px" height="100.729px" viewBox="0 0 141.732 100.729" enable-background="new 0 0 141.732 100.729"
	 xml:space="preserve">
<g>
	<path fill="#353535" d="M73.38,0.057H5.716c-2.853,0-5.174,2.32-5.174,5.174v74.808c0,2.853,2.321,5.174,5.174,5.174l11.007,0.003
		c1.316,0,1.842-0.325,2.123-0.569c0.874-0.754,1.065-1.744,1.223-2.542c0.04-0.218,0.08-0.432,0.141-0.646
		c2.484-8.727,10.555-14.821,19.623-14.821c9.199,0,17.299,6.208,19.697,15.096c0.315,1.146,0.767,1.896,1.57,2.592
		c0.486,0.422,1.293,0.717,1.618,0.823l10.663,0.064c2.853,0,5.173-2.321,5.173-5.174V5.231C78.553,2.377,76.232,0.057,73.38,0.057z
		 M75.981,80.039c0,1.433-1.169,2.602-2.602,2.602H63.34c-0.241-0.09-0.486-0.204-0.556-0.258c-0.412-0.355-0.593-0.666-0.77-1.322
		C59.312,71.054,50.19,64.065,39.833,64.065c-10.213,0-19.298,6.865-22.095,16.69c-0.08,0.281-0.141,0.568-0.194,0.856
		c-0.111,0.569-0.194,0.932-0.191,0.972c-0.07,0.023-0.315,0.061-0.63,0.061L5.716,82.64c-1.433,0-2.602-1.169-2.602-2.602V5.231
		c0-1.435,1.169-2.602,2.602-2.602H73.38c1.433,0,2.602,1.167,2.602,2.602V80.039z"/>
	<path fill="#353535" d="M39.688,74.211c-7.327,0-13.288,5.961-13.288,13.288c0,7.326,5.961,13.287,13.288,13.287
		S52.976,94.826,52.976,87.5C52.976,80.172,47.015,74.211,39.688,74.211z M39.688,98.214c-5.907,0-10.716-4.809-10.716-10.715
		c0-5.911,4.809-10.716,10.716-10.716S50.404,81.588,50.404,87.5C50.404,93.406,45.596,98.214,39.688,98.214z"/>
	<path fill="#353535" d="M141.917,38.783c-0.245-0.702-1.149-2.026-1.467-2.478l-17.949-22.64c-0.506-0.429-1.446-1.182-2.066-1.395
		c-1.437-0.492-2.819-0.497-2.876-0.497H88.298c-2.854,0-5.174,2.321-5.174,5.173V82.61c0,2.854,2.317,5.171,5.264,5.171
		c0,0,0.004,0,0.007,0c1.045-0.081,1.782-0.322,2.193-0.717c0.757-0.733,0.74-1.588,0.727-2.097c-0.003-0.13-0.01-0.268,0.011-0.415
		c1.313-9.885,9.824-17.346,19.801-17.346c9.895,0,18.397,7.391,19.78,17.188l0.04,0.385c0.063,0.644,0.147,1.527,0.931,2.284
		c0.557,0.535,1.521,0.689,2.287,0.72h2.938c2.853,0,5.173-2.32,5.173-5.174V41.889C142.262,41.363,142.194,39.583,141.917,38.783z
		 M139.703,82.61c0,1.434-1.169,2.603-2.602,2.603l-2.877,0.003c-0.268-0.014-0.609-0.067-0.563,0
		c-0.084-0.084-0.107-0.19-0.154-0.68l-0.057-0.499c-1.558-11.058-11.154-19.402-22.325-19.402
		c-11.262,0-20.869,8.419-22.353,19.583c-0.034,0.255-0.034,0.489-0.034,0.925c-0.15,0.033-0.328,0.06-0.441,0.07
		c-1.434,0-2.602-1.169-2.602-2.603V16.946c0-1.435,1.168-2.602,2.602-2.602h29.257c0.011,0,1.028,0.01,2.017,0.348
		c0.184,0.082,0.79,0.529,1.091,0.752l17.725,22.394c0.503,0.72,1.015,1.557,1.099,1.788c0.091,0.263,0.191,1.352,0.218,2.296V82.61
		z"/>
	<path fill="#353535" d="M109.695,74.211c-7.326,0-13.287,5.961-13.287,13.288c0,7.326,5.961,13.287,13.287,13.287
		c7.327,0,13.288-5.961,13.288-13.287C122.983,80.172,117.022,74.211,109.695,74.211z M109.695,98.214
		c-5.906,0-10.716-4.809-10.716-10.715c0-5.911,4.81-10.716,10.716-10.716c5.907,0,10.716,4.805,10.716,10.716
		C120.411,93.406,115.603,98.214,109.695,98.214z"/>
	<path fill="#353535" d="M133.89,40.028l-14.646-16.564c-0.398-0.491-1.413-1.673-2.234-2.041c-0.599-0.271-1.922-0.431-2.775-0.506
		h-8.218c-2.854,0-5.174,2.321-5.174,5.174V42.89c0,2.853,2.32,5.173,5.174,5.173h24.8c1.946,0,3.707-1.073,4.604-2.804
		c0.459-0.893,0.509-1.736,0.161-2.652C135.303,41.875,134.339,40.601,133.89,40.028z M133.133,44.081
		c-0.448,0.87-1.339,1.411-2.317,1.411h-24.8c-1.434,0-2.602-1.167-2.602-2.602V26.091c0-1.435,1.168-2.602,2.602-2.602l8.094-0.006
		c0.776,0.075,1.647,0.211,1.832,0.278c0.217,0.121,0.837,0.75,1.336,1.364l14.637,16.547c0.572,0.735,1.165,1.598,1.263,1.847
		C133.257,43.734,133.264,43.829,133.133,44.081z"/>
</g>
</svg>
