<?xml version="1.0" encoding="utf-8"?>
<!-- Generator: Adobe Illustrator 15.1.0, SVG Export Plug-In . SVG Version: 6.00 Build 0)  -->
<!DOCTYPE svg PUBLIC "-//W3C//DTD SVG 1.1//EN" "http://www.w3.org/Graphics/SVG/1.1/DTD/svg11.dtd">
<svg version="1.1" id="Слой_1" xmlns="http://www.w3.org/2000/svg" xmlns:xlink="http://www.w3.org/1999/xlink" x="0px" y="0px"
	 width="141.732px" height="135.045px" viewBox="0 0 141.732 135.045" enable-background="new 0 0 141.732 135.045"
	 xml:space="preserve">
<path fill="#353535" d="M3.147,134.433c-0.125-2.746-0.43-20.398,11.986-23.863c11.09-3.095,42.143-15.722,43.726-28.065
	c3.659,1.664,7.58,2.619,11.688,2.619c4.338,0,8.474-1.056,12.298-2.901c1.139,12.432,32.579,25.229,43.754,28.348
	c12.416,3.465,12.111,21.117,11.986,23.863h3.109c0.175-3.722,0.35-22.773-14.264-26.852c-16.93-4.725-42.288-17.668-41.73-26.356
	c0,0-0.202-0.435,0.138-0.647c11.444-7.15,19.344-22.028,19.344-39.22C105.182,17.78,90.292,0,70.547,0
	C50.803,0,35.912,17.78,35.912,41.357c0,17.48,8.164,32.565,19.918,39.573c0.172,0.103,0.073,0.331,0.073,0.331
	c0.558,8.688-24.672,21.596-41.602,26.32c-14.613,4.078-14.439,23.13-14.264,26.852H3.147z M39.014,41.357
	c0-21.808,13.558-38.255,31.533-38.255s31.533,16.447,31.533,38.255c0,22.422-14.146,40.665-31.533,40.665
	C53.161,82.021,39.014,63.779,39.014,41.357z"/>
</svg>
