<?xml version="1.0" encoding="utf-8"?>
<!-- Generator: Adobe Illustrator 15.1.0, SVG Export Plug-In . SVG Version: 6.00 Build 0)  -->
<!DOCTYPE svg PUBLIC "-//W3C//DTD SVG 1.1//EN" "http://www.w3.org/Graphics/SVG/1.1/DTD/svg11.dtd">
<svg version="1.1" id="Слой_1" xmlns="http://www.w3.org/2000/svg" xmlns:xlink="http://www.w3.org/1999/xlink" x="0px" y="0px"
	 width="102.195px" height="141.732px" viewBox="0 0 102.195 141.732" enable-background="new 0 0 102.195 141.732"
	 xml:space="preserve">
<radialGradient id="SVGID_1_" cx="50.8096" cy="3.3203" r="98.4398" gradientUnits="userSpaceOnUse">
	<stop  offset="0" style="stop-color:#E33679"/>
	<stop  offset="0.4364" style="stop-color:#CF3097"/>
	<stop  offset="1" style="stop-color:#9C1FE4"/>
</radialGradient>
<path fill="url(#SVGID_1_)" d="M94.005,56.84c4.995-4.049,8.188-10.226,8.188-17.152c0-12.194-9.886-22.081-22.084-22.081
	c-2.477,0-4.845,0.425-7.063,1.174C71.45,8.156,62.31,0,51.242,0c-11.109,0-20.27,8.207-21.825,18.879
	c-2.3-0.809-4.756-1.272-7.334-1.272C9.884,17.607,0,27.493,0,39.688c0,6.926,3.193,13.103,8.187,17.152
	c-4.824,4.049-7.896,10.118-7.896,16.91c0,12.194,9.884,22.081,22.083,22.081c1.996,0,3.924-0.289,5.764-0.787l22.38,46.688
	l23.273-46.756c1.915,0.545,3.931,0.855,6.028,0.855c12.198,0,22.084-9.887,22.084-22.081
	C101.903,66.958,98.832,60.889,94.005,56.84z M51.1,73.856c-10.676,0-19.322-8.649-19.322-19.32s8.646-19.32,19.322-19.32
	c10.669,0,19.315,8.649,19.315,19.32S61.769,73.856,51.1,73.856z"/>
<linearGradient id="SVGID_2_" gradientUnits="userSpaceOnUse" x1="51.0972" y1="198.8838" x2="51.0972" y2="120.0781">
	<stop  offset="0" style="stop-color:#000000"/>
	<stop  offset="1" style="stop-color:#000000;stop-opacity:0"/>
</linearGradient>
<path fill="url(#SVGID_2_)" d="M94.005,125.651c4.995-0.768,8.188-1.936,8.188-3.248c0-2.311-9.886-4.182-22.084-4.182
	c-2.477,0-4.845,0.078-7.063,0.221c-1.597-2.014-10.736-3.557-21.805-3.557c-11.109,0-20.27,1.555-21.825,3.576
	c-2.3-0.152-4.756-0.24-7.334-0.24C9.884,118.222,0,120.093,0,122.403c0,1.313,3.193,2.48,8.187,3.248
	c-4.824,0.768-7.896,1.918-7.896,3.203c0,2.311,9.884,4.184,22.083,4.184c1.996,0,3.924-0.057,5.764-0.148l22.38,8.842l23.273-8.855
	c1.915,0.102,3.931,0.162,6.028,0.162c12.198,0,22.084-1.873,22.084-4.184C101.903,127.569,98.832,126.419,94.005,125.651z"/>
</svg>
