<?xml version="1.0" encoding="utf-8"?>
<!-- Generator: Adobe Illustrator 15.1.0, SVG Export Plug-In . SVG Version: 6.00 Build 0)  -->
<!DOCTYPE svg PUBLIC "-//W3C//DTD SVG 1.1//EN" "http://www.w3.org/Graphics/SVG/1.1/DTD/svg11.dtd">
<svg version="1.1" id="Слой_1" xmlns="http://www.w3.org/2000/svg" xmlns:xlink="http://www.w3.org/1999/xlink" x="0px" y="0px"
	 width="102.195px" height="141.732px" viewBox="0 0 102.195 141.732" enable-background="new 0 0 102.195 141.732"
	 xml:space="preserve">
<path fill="#9B1FE5" d="M94.009,56.84c4.993-4.049,8.186-10.226,8.186-17.152c0-12.195-9.884-22.081-22.082-22.081
	c-2.476,0-4.844,0.425-7.063,1.174C71.454,8.156,62.313,0,51.242,0c-11.109,0-20.27,8.207-21.825,18.879
	c-2.301-0.808-4.757-1.272-7.334-1.272C9.884,17.607,0,27.494,0,39.688c0,6.926,3.194,13.103,8.186,17.152
	C3.362,60.89,0.291,66.958,0.291,73.75c0,12.195,9.884,22.083,22.083,22.083c1.996,0,3.924-0.291,5.764-0.788l22.38,46.688
	l23.277-46.756c1.914,0.545,3.931,0.856,6.027,0.856c12.198,0,22.083-9.888,22.083-22.083C101.905,66.958,98.833,60.89,94.009,56.84
	z M51.099,73.858c-10.676,0-19.322-8.651-19.322-19.322c0-10.67,8.646-19.32,19.322-19.32c10.673,0,19.319,8.65,19.319,19.32
	C70.418,65.208,61.772,73.858,51.099,73.858z"/>
</svg>
