<?xml version="1.0" encoding="utf-8"?>
<!-- Generator: Adobe Illustrator 15.1.0, SVG Export Plug-In . SVG Version: 6.00 Build 0)  -->
<!DOCTYPE svg PUBLIC "-//W3C//DTD SVG 1.1//EN" "http://www.w3.org/Graphics/SVG/1.1/DTD/svg11.dtd">
<svg version="1.1" id="Слой_1" xmlns="http://www.w3.org/2000/svg" xmlns:xlink="http://www.w3.org/1999/xlink" x="0px" y="0px"
	 width="112.641px" height="141.732px" viewBox="0 0 112.641 141.732" enable-background="new 0 0 112.641 141.732"
	 xml:space="preserve">
<path fill="#353535" d="M106.479,0H43.595c-3.398,0-6.162,2.763-6.162,6.161v41.338L0,79.434v62.298h3.063V80.846l34.371-29.327
	v28.692L20.956,94.288l1.986,2.329l32.756-27.986c0.036-0.032,3.605-3.629,7.732-3.271c2.189,0.159,4.191,1.432,5.958,3.784
	c6.396,8.53,4.526,11.653-2.923,19.099c-7.434,7.437-42.479,47.379-43.966,49.078l2.305,2.018c0.176-0.199,8.65-9.861,18.208-20.641
	c0.195,0.02,0.383,0.063,0.583,0.063h62.884c3.397,0,6.161-2.764,6.161-6.161V6.161C112.641,2.763,109.877,0,106.479,0z
	 M68.635,90.412c7.972-7.976,10.891-12.856,3.202-23.102c-2.325-3.103-5.084-4.785-8.207-5.009
	c-5.487-0.406-9.909,3.976-10.005,4.08L40.497,77.595V6.161c0-1.707,1.392-3.099,3.099-3.099h50.327v112.637H45.677
	C55.208,104.968,65.146,93.901,68.635,90.412z M109.578,112.601c0,1.707-1.392,3.099-3.099,3.099h-9.495V3.063h9.495
	c1.707,0,3.099,1.392,3.099,3.099V112.601z"/>
</svg>
