<?xml version="1.0" encoding="utf-8"?>
<!-- Generator: Adobe Illustrator 15.1.0, SVG Export Plug-In . SVG Version: 6.00 Build 0)  -->
<!DOCTYPE svg PUBLIC "-//W3C//DTD SVG 1.1//EN" "http://www.w3.org/Graphics/SVG/1.1/DTD/svg11.dtd">
<svg version="1.1" id="Слой_1" xmlns="http://www.w3.org/2000/svg" xmlns:xlink="http://www.w3.org/1999/xlink" x="0px" y="0px"
	 width="85px" height="141.732px" viewBox="0 0 85 141.732" enable-background="new 0 0 85 141.732" xml:space="preserve">
<g>
	<path d="M66.713,0H18.287C8.205,0,0,8.205,0,18.287v105.159c0,10.082,8.204,18.286,18.287,18.286h48.426
		c10.082,0,18.286-8.204,18.286-18.286V18.287C85,8.205,76.795,0,66.713,0z M80.727,123.446c0,7.726-6.288,14.013-14.014,14.013
		H18.287c-7.726,0-14.013-6.287-14.013-14.013V18.287c0-7.726,6.287-14.014,14.013-14.014h48.426
		c7.726,0,14.014,6.288,14.014,14.014V123.446z"/>
	<rect x="34.426" y="11.871" width="16.857" height="5.458"/>
	<circle cx="43.449" cy="122.74" r="7.596"/>
</g>
</svg>
