<?xml version="1.0" encoding="utf-8"?>
<!-- Generator: Adobe Illustrator 15.1.0, SVG Export Plug-In . SVG Version: 6.00 Build 0)  -->
<!DOCTYPE svg PUBLIC "-//W3C//DTD SVG 1.1//EN" "http://www.w3.org/Graphics/SVG/1.1/DTD/svg11.dtd">
<svg version="1.1" id="Слой_1" xmlns="http://www.w3.org/2000/svg" xmlns:xlink="http://www.w3.org/1999/xlink" x="0px" y="0px"
	 width="141.732px" height="141.732px" viewBox="0 0 141.732 141.732" enable-background="new 0 0 141.732 141.732"
	 xml:space="preserve">
<path fill="#C5CBCF" d="M70.867,0C31.731,0,0,31.727,0,70.866s31.73,70.866,70.866,70.866s70.866-31.727,70.866-70.866
	S110.002,0,70.867,0z M73.799,110.495c-1.462,1.656-3.279,2.482-5.441,2.482c-2.137,0-3.918-0.826-5.354-2.482
	c-1.445-1.657-2.163-3.586-2.163-5.796c0-2.211,0.709-4.109,2.128-5.71c1.427-1.596,3.218-2.392,5.389-2.392
	c2.206,0,4.031,0.796,5.467,2.392c1.436,1.601,2.163,3.499,2.163,5.71C75.988,106.909,75.252,108.838,73.799,110.495z
	 M87.753,66.255c-0.434,0.515-3.668,3.746-9.698,9.698c-3.633,3.512-5.597,6.959-5.917,10.351c-0.078,0.869-0.156,1.738-0.233,2.604
	c-0.156,0.67-0.735,1.181-1.713,1.54c-1.15,0.394-2.033,0.588-2.665,0.588c-2.016,0-3.192-0.057-3.546-0.178
	c-0.952-0.354-1.419-1.302-1.419-2.837c0-4.732,0.805-8.495,2.422-11.298c2.604-3.391,5.182-6.799,7.751-10.229
	c3.071-4.1,4.611-8.023,4.611-11.769c0-3.668-1.056-6.626-3.167-8.871c-2.11-2.25-4.974-3.374-8.607-3.374
	c-2.916,0-6.16,1.025-9.724,3.075c-3.573,2.05-5.277,3.076-5.121,3.076c-1.22,0-1.834-3.785-1.834-11.354
	c0-0.554,0.597-1.242,1.773-2.072c6.194-4.295,12.699-6.445,19.524-6.445c6.661,0,12.103,2.05,16.315,6.15
	c4.221,4.101,6.332,9.481,6.332,16.146C92.839,56.774,91.144,61.839,87.753,66.255z"/>
</svg>
