<?xml version="1.0" encoding="utf-8"?>
<!-- Generator: Adobe Illustrator 15.1.0, SVG Export Plug-In . SVG Version: 6.00 Build 0)  -->
<!DOCTYPE svg PUBLIC "-//W3C//DTD SVG 1.1//EN" "http://www.w3.org/Graphics/SVG/1.1/DTD/svg11.dtd">
<svg version="1.1" id="Слой_1" xmlns="http://www.w3.org/2000/svg" xmlns:xlink="http://www.w3.org/1999/xlink" x="0px" y="0px"
	 width="135.349px" height="141.732px" viewBox="0 0 135.349 141.732" enable-background="new 0 0 135.349 141.732"
	 xml:space="preserve">
<path fill="#BC69AA" d="M124.39,83.268c-7.6,0-28.413,7.825-30.4-1.6c-1.601-7.601-1.601-0.8,24.001-3.601
	c25.601-2.8,19.2-38.401,4.399-50.801c-14.8-12.4-24.001-2.4-24.001,5.2c0,7.6-4.8,14.8-8.399,18c-3.601,3.2-6.775,0.688-7.2-0.8
	c-1.213-4.263,3.199-4.8,9.2-17.201c6-12.4-7.601-31.601-21.602-32.401c-9.219-0.525-19.6,2-28.8,13.201
	c-9.201,11.2-6.4,15.601,4,20.801s7.6,15.2,7.6,15.2c-2,9.601-6.826-2.101-13.2-8.8C29.954,29.921-8.415,19.266,1.586,66.068
	s25.838,16.013,37.601,11.2c8.8-3.6,6.4,6-2.4,10.801c-11.8,6.438-34.401,43.201,10.4,52.401
	c38.301,7.863,23.601-23.601,23.601-23.601s-11.2-15.601,1.2-20.4c12.4-4.801-5.063,10.362,10.4,28.4
	c19.2,22.401,45.201-5.2,48.802-21.2C134.79,87.668,127.99,83.268,124.39,83.268z M69.588,84.069c-9.275,0-16.8-7.525-16.8-16.801
	s7.525-16.801,16.8-16.801s16.801,7.525,16.801,16.801S78.863,84.069,69.588,84.069z"/>
</svg>
