<?xml version="1.0" encoding="utf-8"?>
<!-- Generator: Adobe Illustrator 15.1.0, SVG Export Plug-In . SVG Version: 6.00 Build 0)  -->
<!DOCTYPE svg PUBLIC "-//W3C//DTD SVG 1.1//EN" "http://www.w3.org/Graphics/SVG/1.1/DTD/svg11.dtd">
<svg version="1.1" id="Слой_1" xmlns="http://www.w3.org/2000/svg" xmlns:xlink="http://www.w3.org/1999/xlink" x="0px" y="0px"
	 width="283.464px" height="6.613px" viewBox="0 0 283.464 6.613" enable-background="new 0 0 283.464 6.613" xml:space="preserve">
<rect x="0.054" fill="#FFFFFF" width="283.411" height="6.568"/>
<g>
	<rect x="281.267" y="0.011" fill="#3E69B2" width="2.197" height="6.604"/>
	<rect x="276.779" y="4.438" fill="#3E69B2" width="2.271" height="2.176"/>
	<rect x="272.385" y="4.438" fill="#3E69B2" width="2.27" height="2.176"/>
	<rect x="267.992" y="4.438" fill="#3E69B2" width="2.27" height="2.176"/>
	<rect x="263.631" y="0.011" fill="#3E69B2" width="2.197" height="6.604"/>
	<rect x="259.204" y="4.438" fill="#3E69B2" width="2.27" height="2.176"/>
	<rect x="254.809" y="4.438" fill="#3E69B2" width="2.271" height="2.176"/>
	<rect x="250.416" y="4.438" fill="#3E69B2" width="2.27" height="2.176"/>
	<rect x="246.056" y="0.011" fill="#3E69B2" width="2.196" height="6.604"/>
	<rect x="241.627" y="4.438" fill="#3E69B2" width="2.271" height="2.176"/>
	<rect x="237.234" y="4.438" fill="#3E69B2" width="2.27" height="2.176"/>
	<rect x="232.839" y="4.438" fill="#3E69B2" width="2.271" height="2.176"/>
	<rect x="228.48" y="0.011" fill="#3E69B2" width="2.197" height="6.604"/>
	<rect x="224.052" y="4.438" fill="#3E69B2" width="2.27" height="2.176"/>
	<rect x="219.658" y="4.438" fill="#3E69B2" width="2.268" height="2.176"/>
	<rect x="215.264" y="4.438" fill="#3E69B2" width="2.268" height="2.176"/>
	<rect x="210.905" y="0.011" fill="#3E69B2" width="2.196" height="6.604"/>
	<rect x="206.476" y="4.438" fill="#3E69B2" width="2.268" height="2.176"/>
	<rect x="202.083" y="4.438" fill="#3E69B2" width="2.268" height="2.176"/>
	<rect x="197.688" y="4.438" fill="#3E69B2" width="2.269" height="2.176"/>
	<rect x="193.329" y="0.011" fill="#3E69B2" width="2.197" height="6.604"/>
	<rect x="188.901" y="4.438" fill="#3E69B2" width="2.268" height="2.176"/>
	<rect x="184.506" y="4.438" fill="#3E69B2" width="2.268" height="2.176"/>
	<rect x="180.113" y="4.438" fill="#3E69B2" width="2.268" height="2.176"/>
	<rect x="175.753" y="0.011" fill="#3E69B2" width="2.196" height="6.604"/>
	<rect x="171.325" y="4.438" fill="#3E69B2" width="2.268" height="2.176"/>
	<rect x="166.931" y="4.438" fill="#3E69B2" width="2.268" height="2.176"/>
	<rect x="162.537" y="4.438" fill="#3E69B2" width="2.268" height="2.176"/>
	<rect x="158.178" y="0.011" fill="#3E69B2" width="2.197" height="6.604"/>
	<rect x="153.749" y="4.438" fill="#3E69B2" width="2.269" height="2.176"/>
	<rect x="149.355" y="4.438" fill="#3E69B2" width="2.268" height="2.176"/>
	<rect x="144.961" y="4.438" fill="#3E69B2" width="2.268" height="2.176"/>
	<rect x="140.604" y="0.011" fill="#3E69B2" width="2.197" height="6.604"/>
	<rect x="136.174" y="4.438" fill="#3E69B2" width="2.268" height="2.176"/>
	<rect x="131.78" y="4.438" fill="#3E69B2" width="2.268" height="2.176"/>
	<rect x="127.386" y="4.438" fill="#3E69B2" width="2.268" height="2.176"/>
	<rect x="123.028" y="0.011" fill="#3E69B2" width="2.197" height="6.604"/>
	<rect x="118.599" y="4.438" fill="#3E69B2" width="2.268" height="2.176"/>
	<rect x="114.205" y="4.438" fill="#3E69B2" width="2.268" height="2.176"/>
	<rect x="109.811" y="4.438" fill="#3E69B2" width="2.268" height="2.176"/>
	<rect x="105.452" y="0.011" fill="#3E69B2" width="2.197" height="6.604"/>
	<rect x="101.023" y="4.438" fill="#3E69B2" width="2.268" height="2.176"/>
	<rect x="96.629" y="4.438" fill="#3E69B2" width="2.268" height="2.176"/>
	<rect x="92.235" y="4.438" fill="#3E69B2" width="2.268" height="2.176"/>
	<rect x="87.876" y="0.011" fill="#3E69B2" width="2.197" height="6.604"/>
	<rect x="83.447" y="4.438" fill="#3E69B2" width="2.268" height="2.176"/>
	<rect x="79.053" y="4.438" fill="#3E69B2" width="2.268" height="2.176"/>
	<rect x="74.659" y="4.438" fill="#3E69B2" width="2.268" height="2.176"/>
	<rect x="70.301" y="0.011" fill="#3E69B2" width="2.197" height="6.604"/>
	<rect x="65.871" y="4.438" fill="#3E69B2" width="2.268" height="2.176"/>
	<rect x="61.478" y="4.438" fill="#3E69B2" width="2.268" height="2.176"/>
	<rect x="57.083" y="4.438" fill="#3E69B2" width="2.268" height="2.176"/>
	<rect x="52.725" y="0.011" fill="#3E69B2" width="2.197" height="6.604"/>
	<rect x="48.295" y="4.438" fill="#3E69B2" width="2.268" height="2.176"/>
	<rect x="43.902" y="4.438" fill="#3E69B2" width="2.268" height="2.176"/>
	<rect x="39.508" y="4.438" fill="#3E69B2" width="2.268" height="2.176"/>
	<rect x="35.149" y="0.011" fill="#3E69B2" width="2.197" height="6.604"/>
	<rect x="30.72" y="4.438" fill="#3E69B2" width="2.268" height="2.176"/>
	<rect x="26.326" y="4.438" fill="#3E69B2" width="2.268" height="2.176"/>
	<rect x="21.932" y="4.438" fill="#3E69B2" width="2.268" height="2.176"/>
	<rect x="17.573" y="0.011" fill="#3E69B2" width="2.197" height="6.604"/>
	<rect x="13.144" y="4.438" fill="#3E69B2" width="2.268" height="2.176"/>
	<rect x="8.75" y="4.438" fill="#3E69B2" width="2.268" height="2.176"/>
	<rect x="4.356" y="4.438" fill="#3E69B2" width="2.268" height="2.176"/>
	<rect x="-0.002" y="0.011" fill="#3E69B2" width="2.197" height="6.604"/>
</g>
</svg>
