<?xml version="1.0" encoding="utf-8"?>
<!-- Generator: Adobe Illustrator 15.1.0, SVG Export Plug-In . SVG Version: 6.00 Build 0)  -->
<!DOCTYPE svg PUBLIC "-//W3C//DTD SVG 1.1//EN" "http://www.w3.org/Graphics/SVG/1.1/DTD/svg11.dtd">
<svg version="1.1" id="Слой_1" xmlns="http://www.w3.org/2000/svg" xmlns:xlink="http://www.w3.org/1999/xlink" x="0px" y="0px"
	 width="134.462px" height="141.732px" viewBox="0 0 134.462 141.732" enable-background="new 0 0 134.462 141.732"
	 xml:space="preserve">
<path fill="#545454" d="M73.736,0C40.257,0,13.021,27.236,13.021,60.716c0,13.82,4.694,26.537,12.497,36.755L3.869,119.112
	c-5.158,5.176-5.158,13.582,0,18.75c2.592,2.584,5.99,3.871,9.388,3.871c3.389,0,6.787-1.287,9.379-3.871l23.243-23.252
	c8.354,4.336,17.813,6.832,27.857,6.832c33.48,0,60.725-27.246,60.725-60.726C134.461,27.236,107.217,0,73.736,0z M17.881,133.106
	c-2.558,2.539-6.708,2.549-9.248-0.008c-2.549-2.541-2.549-6.684-0.009-9.23l21.264-21.264c3.03,3.17,6.357,6.033,9.992,8.494
	L17.881,133.106z M73.736,114.715c-29.767,0-53.99-24.223-53.99-54c0-29.767,24.224-53.99,53.99-53.99
	c29.775,0,53.999,24.224,53.999,53.99C127.735,90.493,103.512,114.715,73.736,114.715z"/>
</svg>
