<?xml version="1.0" encoding="utf-8"?>
<!-- Generator: Adobe Illustrator 15.1.0, SVG Export Plug-In . SVG Version: 6.00 Build 0)  -->
<!DOCTYPE svg PUBLIC "-//W3C//DTD SVG 1.1//EN" "http://www.w3.org/Graphics/SVG/1.1/DTD/svg11.dtd">
<svg version="1.1" id="Слой_1" xmlns="http://www.w3.org/2000/svg" xmlns:xlink="http://www.w3.org/1999/xlink" x="0px" y="0px"
	 width="141.732px" height="93.804px" viewBox="0 0 141.732 93.804" enable-background="new 0 0 141.732 93.804"
	 xml:space="preserve">
<g>
	<path fill="#3C69B3" d="M132.046,93.803H8.025c-0.417,0-0.825-0.086-1.205-0.257c-0.585-0.269-5.756-2.735-6.682-7.818
		c-0.608-3.346,0.774-6.727,4.114-10.073c8.683-8.681,53.949-35.834,55.873-36.985c1.385-0.834,3.184-0.386,4.009,1.008
		c0.831,1.382,0.379,3.175-1.005,4.009C62.665,43.96,16.566,71.612,8.388,79.79c-1.302,1.302-2.792,3.209-2.499,4.877
		c0.26,1.473,1.381,3.041,2.858,3.289h123.298c2.89,0,3.1,0.502,3.81-0.811c1.118-2.066-1.031-3.182-2.02-3.998
		c-10.033-8.309-32.979-21.712-48.163-30.58c-11.579-6.762-14.374-8.446-15.265-9.451c-0.191-0.211-0.44-0.446-0.711-0.697
		c-1.545-1.485-4.135-3.955-3.895-7.727c0.203-3.192,2.416-6.305,6.762-9.511c7.966-5.879,7.44-9.551,7.435-9.588
		c-0.095-0.277-0.091-0.376-0.097-0.671c-0.029-0.917-0.525-9.074-9.015-9.074c-9.554,0-10.47,9.494-10.479,9.588
		c-0.108,1.573-1.447,2.764-3.018,2.781c-1.576-0.055-2.827-1.291-2.827-2.867C54.564,12.826,57.403,0,70.888,0
		c11.265,0,14.61,9.26,14.851,14.459c0.411,1.987,0.508,7.892-9.702,15.427c-3.852,2.844-4.357,4.566-4.397,5.177
		c-0.063,0.977,0.874,1.95,2.102,3.124c0.396,0.38,0.757,0.731,1.037,1.045c0.808,0.674,7.435,4.54,13.845,8.286
		c15.348,8.96,38.542,22.506,48.943,31.123c1.827,1.514,5.316,6.254,3.789,10.491C140.586,91.262,138.348,93.803,132.046,93.803z"/>
</g>
</svg>
