<?xml version="1.0" encoding="utf-8"?>
<!-- Generator: Adobe Illustrator 15.1.0, SVG Export Plug-In . SVG Version: 6.00 Build 0)  -->
<!DOCTYPE svg PUBLIC "-//W3C//DTD SVG 1.1//EN" "http://www.w3.org/Graphics/SVG/1.1/DTD/svg11.dtd">
<svg version="1.1" id="Слой_1" xmlns="http://www.w3.org/2000/svg" xmlns:xlink="http://www.w3.org/1999/xlink" x="0px" y="0px"
	 width="141.732px" height="141.732px" viewBox="0 0 141.732 141.732" enable-background="new 0 0 141.732 141.732"
	 xml:space="preserve">
<g>
	<path fill="#656666" d="M70.866,0C31.792,0,0,31.792,0,70.866c0,39.073,31.792,70.866,70.866,70.866s70.866-31.793,70.866-70.866
		C141.732,31.792,109.94,0,70.866,0z M70.866,131.518c-33.448,0-60.651-27.209-60.651-60.651c0-33.443,27.204-60.651,60.651-60.651
		c33.448,0,60.651,27.208,60.651,60.651C131.517,104.309,104.314,131.518,70.866,131.518z"/>
	<path fill="#656666" d="M94.488,63.415h-20.43V23.832c0-2.823-2.285-5.107-5.108-5.107c-2.823,0-5.107,2.284-5.107,5.107v44.69
		c0,2.823,2.285,5.107,5.107,5.107h25.538c2.823,0,5.107-2.284,5.107-5.107S97.311,63.415,94.488,63.415z"/>
</g>
</svg>
