<?xml version="1.0" encoding="utf-8"?>
<!-- Generator: Adobe Illustrator 15.1.0, SVG Export Plug-In . SVG Version: 6.00 Build 0)  -->
<!DOCTYPE svg PUBLIC "-//W3C//DTD SVG 1.1//EN" "http://www.w3.org/Graphics/SVG/1.1/DTD/svg11.dtd">
<svg version="1.1" id="Слой_1" xmlns="http://www.w3.org/2000/svg" xmlns:xlink="http://www.w3.org/1999/xlink" x="0px" y="0px"
	 width="141.732px" height="110.542px" viewBox="0 0 141.732 110.542" enable-background="new 0 0 141.732 110.542"
	 xml:space="preserve">
<path fill="#FFFFFF" d="M140.226,94.814c-2.025-2.353-11.159-18.293-14.59-39.629c-4.246-26.39-14.564-56.519-55.448-55.383
	c-44.81,1.254-44.81,45.196-44.81,61.737c0,18.435-23.114,29.521-23.349,29.632c-1.134,0.531-1.901,1.627-2.015,2.875
	c-0.112,1.247,0.439,2.463,1.459,3.191c21.806,15.613,47.107,4.689,48.176,4.22c0.815-0.362,1.392-1.011,1.742-1.761
	c7.81,8.797,16.202,10.52,21.034,10.613c0.155,0.005,0.311,0.005,0.461,0.005c8.75,0,16.241-4.877,22.155-10.813
	c0.254,0.871,0.845,1.645,1.707,2.11c6.22,3.357,13.104,4.518,19.525,4.518c11.414,0,21.379-3.662,23.612-5.16
	c1.086-0.729,1.97-2.299,1.832-3.604C141.609,96.329,141.058,95.407,140.226,94.814z M46.787,95
	c-0.203,0.095-18.89,8.168-36.261-0.521c8.02-5.069,21.912-16.259,21.912-32.939c0-1.605,0.017-3.214,0.056-4.817
	c0.849-0.045,1.703-0.086,2.53-0.142c2.561,18.153,7.254,30.22,12.582,38.239C47.334,94.866,47.054,94.881,46.787,95z
	 M72.563,103.25c-15.164-0.298-26.228-17.515-30.5-47.338c27.646-3.362,42.305-14.242,49.396-21.896
	c1.186,7.148,3.78,16.73,9.457,22.566c0.073,0.091,7.237,9.2,1.443,20.548C95.838,89.909,84.523,103.473,72.563,103.25z
	 M100.102,95.396c-0.337-0.181-0.694-0.255-1.052-0.319c4.754-5.788,8.06-11.713,9.604-14.736
	c7.845-15.379-1.823-27.672-2.453-28.433c-8.025-8.267-8.655-27.241-8.659-27.431c-0.048-1.627-1.203-3.004-2.793-3.345
	c-1.604-0.336-3.22,0.463-3.927,1.925c-0.116,0.241-12.168,23.888-57.97,26.536c1.629-22.174,9.138-41.937,37.534-42.73
	c35.121-0.944,44.052,23.181,48.275,49.443c2.72,16.906,9.307,32.545,14.108,40.062C126.329,98.483,111.691,101.655,100.102,95.396z
	"/>
</svg>
