<?xml version="1.0" encoding="utf-8"?>
<!-- Generator: Adobe Illustrator 15.1.0, SVG Export Plug-In . SVG Version: 6.00 Build 0)  -->
<!DOCTYPE svg PUBLIC "-//W3C//DTD SVG 1.1//EN" "http://www.w3.org/Graphics/SVG/1.1/DTD/svg11.dtd">
<svg version="1.1" id="Слой_1" xmlns="http://www.w3.org/2000/svg" xmlns:xlink="http://www.w3.org/1999/xlink" x="0px" y="0px"
	 width="162.002px" height="170.079px" viewBox="0 0 162.002 170.079" enable-background="new 0 0 162.002 170.079"
	 xml:space="preserve">
<linearGradient id="SVGID_1_" gradientUnits="userSpaceOnUse" x1="117.7129" y1="208.7026" x2="304.8257" y2="182.2432" gradientTransform="matrix(0.9206 0.3905 0.3905 -0.9206 -180.9437 187.9973)">
	<stop  offset="0" style="stop-color:#E74AAB"/>
	<stop  offset="1" style="stop-color:#E0193F"/>
</linearGradient>
<path fill="url(#SVGID_1_)" d="M108.493,19.847c0,0,28.537-0.725,40.597,13.773c12.764,15.343,2.069,42.822,2.069,42.822
	s17.074,24.721,8.371,42.045c-9.779,19.462-36.049,23.2-36.049,23.2s-11.031,26.117-32.229,28.272
	c-18.724,1.904-38.117-19.62-38.117-19.62s-27.926,1.066-40.597-13.771c-12.866-15.066-2.069-42.819-2.069-42.819
	S-5.633,70.491,2.1,51.702C10.012,32.474,38.148,28.5,38.148,28.5S48.685,2.944,70.377,0.228
	C91.919-2.469,108.493,19.847,108.493,19.847z"/>
<linearGradient id="SVGID_2_" gradientUnits="userSpaceOnUse" x1="92.4785" y1="-65.7632" x2="78.6033" y2="114.6194" gradientTransform="matrix(1 0 0 -1 0.04 169.1436)">
	<stop  offset="0" style="stop-color:#E12247"/>
	<stop  offset="1" style="stop-color:#E0193F;stop-opacity:0"/>
</linearGradient>
<path fill="url(#SVGID_2_)" d="M108.493,19.847c0,0,28.537-0.725,40.597,13.773c12.764,15.343,2.069,42.822,2.069,42.822
	s17.074,24.721,8.371,42.045c-9.779,19.462-36.049,23.2-36.049,23.2s-11.031,26.117-32.229,28.272
	c-18.724,1.904-38.117-19.62-38.117-19.62s-27.926,1.066-40.597-13.771c-12.866-15.066-2.069-42.819-2.069-42.819
	S-5.633,70.491,2.1,51.702C10.012,32.474,38.148,28.5,38.148,28.5S48.685,2.944,70.377,0.228
	C91.919-2.469,108.493,19.847,108.493,19.847z"/>
<g>
	<g>
		<defs>
			<path id="SVGID_3_" d="M108.493,19.847c0,0,28.537-0.725,40.597,13.773c12.764,15.343,2.069,42.822,2.069,42.822
				s17.074,24.721,8.371,42.045c-9.779,19.462-36.049,23.2-36.049,23.2s-11.031,26.117-32.229,28.272
				c-18.724,1.904-38.117-19.62-38.117-19.62s-27.926,1.066-40.597-13.771c-12.866-15.066-2.069-42.819-2.069-42.819
				S-5.633,70.491,2.1,51.702C10.012,32.474,38.148,28.5,38.148,28.5S48.685,2.944,70.377,0.228
				C91.919-2.469,108.493,19.847,108.493,19.847z"/>
		</defs>
		<clipPath id="SVGID_4_">
			<use xlink:href="#SVGID_3_"  overflow="visible"/>
		</clipPath>
		<g clip-path="url(#SVGID_4_)">
			<path fill="#E84A66" d="M5.471,125.418c0.755-4.801,5.814-5.299,5.884-10.786c0.327,0,0.653,0,0.981,0c0.653,0,1.308,0,1.961,0
				c-1.64,5.225-5.312,8.418-7.845,12.748C5.688,127.164,5.311,126.558,5.471,125.418z"/>
			<path fill="#E22346" d="M149.624,87.173c0.148-1.813,3.322-0.603,3.925-1.961c0.327,0,0.653,0,0.979,0
				c-0.811,2.772,1.383,2.541,0.982,4.904c-0.795,0.186-0.979,0.982-1.961,0.979c0.742-3.447-2.566-4.388-3.924-2.94
				C149.624,87.829,149.624,87.5,149.624,87.173z"/>
			<g>
				<path fill="#E73746" d="M105.495,70.502c0.209,1.1,1.09,1.527,1.961,1.961c0.22-0.764,0.822-1.141,1.961-0.981
					c0.601,0.056,1.162,0.146,0.982,0.981c-0.275,2.059-2.619-1.421-3.924,0.981c2.361,0.703,5.213,3.498,6.865,1.96
					c0.598,0.056,1.16,0.146,0.98,0.981c-2.884,0.114-7.5,3.539-5.884,4.902c-1.911,2.013-4.625,3.22-6.864,4.902
					c-2.496-5.532,5.034-8.764,2.94-15.69C104.844,70.502,105.169,70.502,105.495,70.502z"/>
				<path fill="#E63857" d="M87.846,59.716c-0.035,4.284,2.707,5.791,2.94,9.807c3.302-1.304,9.33-5.012,13.729-1.96
					c-0.088,1.546-2.502,0.768-1.961,2.941c2.676,0.714,1.976-1.948,3.924-1.961c0.002,0.984-0.795,1.167-0.981,1.961
					c-0.326,0-0.652,0-0.98,0c2.094,6.926-5.438,10.158-2.941,15.69c-2.697,3.188-6.447,5.319-9.807,7.847
					c-3.086-3.424-8.021,0.396-9.807-4.902c-3.623,1.735-9.036,0.963-10.787-1.961c8.072-7.036,9.234-16.536,14.711-29.419
					C86.09,58.854,86.971,59.282,87.846,59.716z M88.827,89.136c1.194,0.108,2.319,0.293,1.961,1.959c1.633,0,3.27,0,4.901,0
					c-0.168-1.468,0.351-3.617-0.979-3.922c-0.402,1.231-1.266,2.004-2.943,1.961c0.863-0.567,3.109-5.288,0.982-2.942
					C92.083,87.284,89.491,85.999,88.827,89.136z"/>
				<path fill="#E63857" d="M97.651,45.006c1.854,0.109,0.682,3.242,2.942,2.942c-5.662,3.734,4.196,5.588-3.922,6.864
					c0-0.327,0-0.654,0-0.981C98.896,52.788,97.042,47.667,97.651,45.006z"/>
				<path fill="#E84FA0" d="M60.387,71.484c0,0.655,0,1.308,0,1.961c1.89-0.399,0.774-3.803,3.923-2.942
					c-1.062,4.17-4.99,5.47-6.865,8.825c1.289,1.225,5.078-3.371,6.865-4.902c-3.57,7.876-13.083,18.292-21.575,24.515
					c-0.519-0.788-1.023-1.592-0.98-2.94c-1.077-8.403-7.373-11.587-12.749-15.69C39.242,64.18,47.106,41.177,47.638,18.53
					c4.307,9.083,0.919,22.062,1.961,31.381c1.297-5.239,1.274-11.801,3.923-15.69c3.823,1.734,2.094,9.021,4.903,11.768
					c-6.712,4.383-3.721,11.96-3.923,19.613c3.148,0.816,2.033,0.834,3.923-0.98C61.824,66.352,58.14,69.486,60.387,71.484z"/>
				<path fill="#E73746" d="M126.09,65.6c-3.287-2.722,2.539-4.587,2.94-6.865c2.488-1.038,5.59,2.065,2.943,2.942
					c-1.93-2.805-4.184,2.278-4.904,3.922C126.743,65.6,126.417,65.6,126.09,65.6z"/>
				<path fill="#E22346" d="M126.09,95.017c0.678-3.862-4.132,0.904-3.923-3.922c3.938,0.168,7.813-2.596,9.808,0.981
					c2.84-0.549-1.504-1.528-0.979-2.94c1.717,0.896,3.406,1.821,2.94,4.9C131.659,96.732,128.368,92.326,126.09,95.017z"/>
				<path fill="#E84A66" d="M96.672,53.832c-1.181-1.288-0.384-1.542,0-2.942c-4.189,0.388-4.814,4.34-8.826,4.903
					c0.306-4.596,4.655-5.15,7.844-6.864c0-2.615,0-5.229,0-7.845c1.312,0,2.615,0,3.925,0c0.715,2.676-1.949,1.974-1.961,3.923
					C97.042,47.667,98.896,52.788,96.672,53.832z"/>
				<path fill="#E84A66" d="M127.071,67.561c-9.101,9.188-19.476,17.857-29.42,23.535c-16.148,10.33-33.368,19.588-50.013,29.422
					c9.034-1.76,20.047-10.023,34.323-9.809C68.3,124.091,31.455,128.75,20.181,142.089c-0.162,0.19,0.129,0.764,0,0.982
					c-4.303-2.563-9.131-4.6-10.787-9.807c7.288-8.729,17.084-14.95,24.516-23.537c3.761-2.774,8.84-4.235,8.826-10.788
					c8.492-6.222,18.004-16.639,21.575-24.515c-1.787,1.532-5.576,6.127-6.865,4.902c1.875-3.355,5.803-4.656,6.865-8.825
					c-3.148-0.86-2.033,2.543-3.923,2.942c0-0.654,0-1.308,0-1.961c0.309-1.325,1.396-1.873,0.981-3.922
					c3.778-1.427,8.046-5.987,11.767-1.961c-14.418,28.731-42.15,49.376-59.819,71.587c19.593-16.364,35.959-35.957,57.858-50.014
					c1.751,2.924,7.165,3.697,10.787,1.963c1.785,5.299,6.721,1.479,9.807,4.9c3.359-2.525,7.109-4.658,9.807-7.846
					c2.24-1.684,4.953-2.89,6.865-4.902c6.998-4.115,12.604-9.623,17.65-15.69c0.328,0,0.654,0,0.98,0
					C128.305,65.843,128.059,67.55,127.071,67.561z"/>
				<path fill="#E12657" d="M92.747,86.194c2.127-2.346-0.119,2.375-0.979,2.942c1.679,0.041,2.539-0.73,2.94-1.963
					c1.332,0.305,0.814,2.455,0.98,3.922c-1.633,0-3.27,0-4.902,0c0.361-1.666-0.764-1.849-1.961-1.959
					C89.491,85.999,92.083,87.284,92.747,86.194z"/>
				<path fill="#E22346" d="M127.071,65.6c0.721-1.645,2.975-6.727,4.903-3.922c0.84,4.545-1.545,1.028-1.963,2.942
					c4.853,8.757-1.213,15.654,1.963,20.592c-5.448-0.477-2.058,1.798-5.885,2.943c-0.412,2.201-5.203,0.026-5.884,1.961
					c-2.338,2.842,4.781-6.125-0.979-1.961c-0.328,0-0.653,0-0.981,0c1.692-2.56,3.528-4.972,7.846-4.903
					c-5.715-5.896-11.926,3.912-11.768,7.844c-0.795,0.188-0.979,0.985-1.961,0.981c0.549-1.412,1.528-2.394,2.94-2.94
					c-0.187-0.795-0.983-0.979-0.979-1.961c-2.689,2.279-4.101-0.244-4.904,3.922c-0.834,0.182-0.924-0.383-0.979-0.979
					c-0.655,0-1.311,0-1.963,0c4.763-7.549,15.041-13.115,20.595-22.555C128.059,67.55,128.305,65.843,127.071,65.6z"/>
				<path fill="#E73746" d="M114.323,91.095c-0.158-3.933,6.055-13.738,11.768-7.844c-4.316-0.068-6.152,2.346-7.846,4.903
					c-1.412,0.548-2.392,1.528-2.941,2.94C114.977,91.095,114.651,91.095,114.323,91.095z"/>
				<path fill="#E73746" d="M97.651,91.095c9.944-5.677,20.319-14.346,29.42-23.535c-5.552,9.44-15.832,15.006-20.593,22.555
					c0.652,0,1.308,0,1.961,0c0.056,0.599,0.146,1.159,0.979,0.979c0.806-4.166,2.214-1.642,4.902-3.922
					c-0.004,0.983,0.795,1.166,0.98,1.961c-1.41,0.549-2.393,1.529-2.941,2.941c-3.375,5.852-12.076,6.805-14.709,10.787
					c-0.652,0-1.309,0-1.961,0c1.16,2.643,5.113-0.004,6.865,0c-1.27,2.652-3.746,4.099-6.865,4.902
					c0.604,0.873,1.186,1.754,0,1.961c1.426,2.908,3.824-1.291,6.865,0c-1.145,4.74,3.984,3.207,4.902,5.884
					c-0.723,2.219-3.738,2.146-3.922,4.903c1.209,1.405,3.371,1.857,5.883,1.959c-2.402,1.521-6.383,1.465-9.807,1.963
					c4.684,1.716,13.278-1.086,20.594,0c1.961,0,3.922,0,5.883,0c-11.6,1.334,4.506,4.524,3.922,7.846
					c-0.871-0.762-2.213-1.055-3.922-0.98c-12.789-4.828-30.691,0.139-45.11,0c-1.139,0.823-2.629,1.293-4.903,0.98
					c3.296-1.278,5.862-3.289,10.787-2.941c-2.158-2.727-6.988,0.139-9.806,0c-1.06-0.81,5.19-2.599,7.847-2.941
					c-1.949-1.244-9.725,0.045-12.75,0.98c2.729-2.771,4.651-10.668,8.826-8.826c-1.244-1.75,5.081-10.035,4.903-9.807
					c2.313-2.974,5.239-6.27,6.862-5.884c2.306-0.013-0.356-2.677-1.961-1.962C92.946,96.375,95.219,96.367,97.651,91.095z"/>
				<path fill="#E84FA0" d="M12.335,114.632c7.075-1.752,15.236-2.416,21.574-4.904c-7.432,8.587-17.229,14.809-24.516,23.537
					c-0.953-0.026-0.761-1.2-0.98-1.961c1.992-4.871,5.923-7.807,8.826-11.768c-3.758-0.793-8.29,6.073-9.806,10.787
					c-1.149-0.158-0.827-1.789-0.981-2.941c2.534-4.33,6.206-7.523,7.845-12.748C13.643,114.632,12.989,114.632,12.335,114.632z"/>
				<path fill="#E12657" d="M113.342,75.407c-1.652,1.537-4.504-1.259-6.865-1.961c1.306-2.401,3.647,1.078,3.925-0.981
					C111.813,73.013,112.792,73.994,113.342,75.407z"/>
				<path fill="#E84A66" d="M119.227,88.155c-4.508,5.952-11.487,9.432-17.651,13.729c-0.873,0.76-2.215,1.055-3.924,0.98
					c2.635-3.98,11.334-4.938,14.711-10.788c0.983,0.004,1.166-0.794,1.961-0.981c0.325,0,0.651,0,0.979,0
					c0.549-1.412,1.528-2.393,2.94-2.94C118.573,88.155,118.898,88.155,119.227,88.155z"/>
				<path fill="#E22346" d="M123.148,94.038c-2.002,3.367-2.055,3.585-5.885,3.924c5.416,0.591,0.155,1.731-1.961,4.902
					c0.795-0.187,0.979-0.985,1.961-0.981c-0.187,0.795-0.983,0.979-0.979,1.961c4.268,1,4.51-2.028,6.864-2.941
					c-0.383,1.4-1.178,1.654,0,2.941c0.326,0,0.652,0,0.979,0c-0.241,1.066-1.948,0.666-1.961,1.963
					c0.83,1.457,3.158,1.418,4.902,1.961c3.906,3.61,8.494,6.541,11.769,10.787c2.211,1.99-3.425-2.379-4.902-2.942
					c-1.455,0.428,0.388,1.255,0,2.942c-2.985-1.59-4.229-4.924-7.844-5.885c-2.752,0.014,2.334,2.676-1.961,1.961
					c1.6,2.321,5.756,2.088,7.844,3.924c-2.627,2.379-15.532,0.531-11.769,5.883c-7.313-1.084-15.909,1.718-20.592,0
					c3.424-0.498,7.402-0.44,9.808-1.961c-2.513-0.104-4.677-0.555-5.886-1.959c0.185-2.76,3.201-2.687,3.922-4.904
					c-0.918-2.676-6.047-1.145-4.901-5.883c-3.041-1.293-5.438,2.906-6.864,0c1.188-0.208,0.604-1.09,0-1.961
					c3.12-0.805,5.596-2.25,6.864-4.903c-1.752-0.004-5.705,2.644-6.864,0c0.653,0,1.309,0,1.961,0
					c1.709,0.073,3.049-0.222,3.924-0.979c9.147-0.004,13.076-5.23,17.651-9.809C120.766,92.499,120.063,95.161,123.148,94.038z"/>
				<path fill="#E84A66" d="M72.155,127.38c3.025-0.938,10.799-2.225,12.749-0.981c-2.652,0.345-8.906,2.135-7.846,2.94
					c2.818,0.141,7.646-2.725,9.807,0c-4.925-0.346-7.49,1.664-10.788,2.942c-6.826,0.692-12.519,2.519-19.613,2.942
					c-4.28,0.021-0.166-1.688,1.961-0.98c-0.159-1.15-1.788-0.827-2.942-0.98c1.425-2.907,3.826,1.291,6.864,0
					C55.205,130.091,69.671,129.974,72.155,127.38z"/>
				<path fill="#E63857" d="M20.181,143.072c0.129-0.221-0.162-0.791,0-0.98c11.273-13.343,48.119-18,61.781-31.382
					c-14.276-0.217-25.289,8.048-34.323,9.808c16.645-9.834,33.864-19.092,50.013-29.42c-2.433,5.271-4.705,5.277-6.863,9.806
					c1.604-0.713,4.266,1.948,1.961,1.962c-1.625-0.383-4.551,2.91-6.865,5.884c0.18-0.229-6.146,8.056-4.903,9.808
					c-4.174-1.84-6.096,6.054-8.825,8.826c-2.484,2.592-16.95,2.711-9.807,5.883c-3.039,1.291-5.439-2.907-6.864,0
					c1.154,0.153,2.783-0.17,2.942,0.98c-2.126-0.708-6.241,1.002-1.961,0.98c-10.384,3.347-21.141,6.316-31.381,9.807
					C22.644,145.183,22.048,143.492,20.181,143.072z"/>
				<path fill="#E73746" d="M119.227,88.155c5.763-4.163-1.356,4.805,0.979,1.962c0.681-1.936,5.472,0.24,5.884-1.962
					c1.139,0.823,2.629,1.293,4.903,0.981c-0.522,1.412,3.82,2.394,0.98,2.94c-1.994-3.575-5.869-0.813-9.807-0.981
					c-0.209,4.826,4.6,0.06,3.922,3.924c-0.939,2.005-2.004,3.881-2.941,5.885c-2.355,0.912-2.598,3.939-6.865,2.941
					c-0.004-0.983,0.795-1.166,0.98-1.961c1.941-2.02,7.951-5.074,5.885-7.845c-3.086,1.122-2.383-1.54-3.922-1.961
					c-4.578,4.576-8.504,9.802-17.652,9.806C107.739,97.585,114.719,94.107,119.227,88.155z"/>
				<path fill="#E73746" d="M149.624,88.155c1.357-1.446,4.666-0.507,3.925,2.94c-4.929-0.023-6.285,3.522-9.81,4.904
					c2.865,1.193,8.717-3.025,11.771-4.904c0.762,0.873,1.055,2.217,0.979,3.924c-9.854,0.355-19.543,9.162-29.42,12.75
					c-1.744-0.543-4.072-0.506-4.902-1.963c10.252-1.842,16.08-8.108,24.517-11.767c-0.024-0.955-1.198-0.762-1.961-0.981
					C144.126,89.194,146.917,88.714,149.624,88.155z"/>
				<path fill="#E11C3C" d="M153.549,91.095c0.981,0.004,1.166-0.793,1.961-0.979c0,0.327,0,0.652,0,0.979
					c-3.056,1.879-8.904,6.099-11.771,4.904C147.264,94.617,148.618,91.072,153.549,91.095z"/>
				<path fill="#E11C3C" d="M117.264,101.882c-0.983-0.004-1.166,0.795-1.961,0.981c2.119-3.171,7.377-4.313,1.961-4.902
					c3.83-0.339,3.883-0.555,5.885-3.924C125.215,96.808,119.204,99.864,117.264,101.882z"/>
				<path fill="#E22346" d="M126.09,124.439c5.778-0.139,11.521,2.474,13.729,2.941c-0.768,3.297-8.141-1.314-8.826,3.922
					c2.453,0.815,3.853,2.688,6.865,2.942c-0.436,0.871-0.863,1.754-1.963,1.96c0.682-3.949-4.877-1.656-5.883-3.923
					C130.596,128.964,114.491,125.773,126.09,124.439z"/>
				<path fill="#E84A66" d="M124.128,103.845c8.228-2.233,14.732-6.188,20.595-10.787c0.763,0.221,1.935,0.024,1.961,0.979
					c-8.438,3.658-14.265,9.925-24.517,11.769C122.18,104.509,123.887,104.91,124.128,103.845z"/>
				<path fill="#E84A66" d="M7.432,130.322c1.517-4.712,6.048-11.579,9.806-10.786c-2.902,3.961-6.834,6.896-8.826,11.767
					C7.579,131.483,7.487,130.918,7.432,130.322z"/>
				<path fill="#E22346" d="M135.896,118.554c3.402-0.461,0.563,5.321,2.941,5.885C137.708,126.542,133.294,120.396,135.896,118.554
					z"/>
				<path fill="#E73746" d="M152.566,82.271c1.15,0.159,0.828,1.79,0.982,2.942c-0.603,1.359-3.775,0.147-3.925,1.961
					C142.202,90.179,148.316,81.798,152.566,82.271z"/>
				<path fill="#E53571" d="M42.735,98.941c0.015,6.553-5.063,8.012-8.826,10.787c-6.338,2.488-14.5,3.152-21.574,4.904
					c-0.328,0-0.654,0-0.981,0c-5.789-1.215-4.372,4.779-7.845,5.885c0-0.654,0-1.311,0-1.963
					c7.357-10.193,22.205-16.402,33.342-25.496c2.302,1.431,2.195,2.439,3.923,0c0.113,3.722-3.556,4.604,0.98,2.941
					C41.711,97.351,42.217,98.153,42.735,98.941z"/>
				<path fill="#E11C3C" d="M126.09,131.302c1.709-0.072,3.049,0.221,3.922,0.981c1.006,2.265,6.565-0.028,5.885,3.923
					c-3.545,1.358-5.493,4.313-9.807,4.902c-3.935-1.258,2.909-4.667,0-4.902c-0.218,0.766-0.822,1.141-1.962,0.98
					c0.078-3.653,1.472-3.166-0.979-4.903C124.403,132.23,124.506,131.027,126.09,131.302z"/>
			</g>
			<path fill="#E84FA0" d="M11.354,114.632c-0.069,5.487-5.128,5.985-5.884,10.786c-1.458-0.829-1.419-3.157-1.961-4.901
				C6.982,119.414,5.565,113.417,11.354,114.632z"/>
		</g>
	</g>
</g>
</svg>
