<?xml version="1.0" encoding="utf-8"?>
<!-- Generator: Adobe Illustrator 15.1.0, SVG Export Plug-In . SVG Version: 6.00 Build 0)  -->
<!DOCTYPE svg PUBLIC "-//W3C//DTD SVG 1.1//EN" "http://www.w3.org/Graphics/SVG/1.1/DTD/svg11.dtd">
<svg version="1.1" id="Layer_1" xmlns="http://www.w3.org/2000/svg" xmlns:xlink="http://www.w3.org/1999/xlink" x="0px" y="0px"
	 width="346px" height="338px" viewBox="0 0 346 338" enable-background="new 0 0 346 338" xml:space="preserve">
<g>
	<path fill-rule="evenodd" clip-rule="evenodd" fill="#B12B4F" d="M186.651,196.556c-8.674,10.204-21.792,16.705-36.473,16.705
		c-26.116,0-47.287-20.574-47.287-45.955c0-25.38,21.17-45.955,47.287-45.955c14.062,0,26.651,5.998,35.313,15.466l29.95-29.041
		c-16.121-14.264-38.064-23.056-62.266-23.056c-49.474,0-89.58,36.675-89.58,81.919c0,45.242,40.105,81.919,89.58,81.919
		c24.131,0,46.017-8.742,62.124-22.933L186.651,196.556z"/>
	<path fill-rule="evenodd" clip-rule="evenodd" fill="#B12B4F" d="M178.694,174.188c0.04-0.193,0.119-0.372,0.119-0.578v-2.75
		l0.227-23.178v-3.021h-3.081h-35.882h-2.13c-1.701,0-3.082,1.353-3.082,3.021l-0.227,25.927c0,0.206,0.079,0.385,0.119,0.578
		h-8.333v0.666v6.438v5.773h7.77v-5.773h45.955v5.549h6.883v-5.549v-6.438v-0.666H178.694z M171.937,176.63h-29.75v-26.64h29.75
		V176.63z"/>
	<path fill-rule="evenodd" clip-rule="evenodd" fill="#8C8B91" d="M287.688,144.662h-37.251c-1.668,0-3.021,1.353-3.021,3.021
		v29.924c0,1.667,1.354,3.02,3.021,3.02h37.251c1.666,0,3.021-1.353,3.021-3.02v-29.924
		C290.709,146.014,289.354,144.662,287.688,144.662z M283.826,175.743h-29.749l-0.223-26.197h29.75L283.826,175.743z"/>
	<polygon fill-rule="evenodd" clip-rule="evenodd" fill="#B12B4F" points="232.739,145.104 232.636,144.991 232.51,145.104 
		231.877,145.104 230.767,145.104 203.017,171.808 203.017,144.662 195.469,144.662 195.469,181.513 203.017,181.513 
		230.543,154.652 230.767,181.737 237.427,181.737 237.427,145.104 	"/>
	<polygon fill="#8C8B91" points="304.282,181.513 319.125,151.256 333.969,181.513 341.12,181.513 341.134,181.505 322.633,144.44 
		315.573,144.44 297.115,181.505 297.133,181.513 	"/>
	<path fill="#8C8B91" d="M207.02,242.136c0,0-0.179,16.903,21,30.002c21.176,13.097,27.67,29.148,27.67,29.148l2.169,4.907
		l-11.643,9.204l39.382,13.293l-5.873-39.311l-9.893,7.527c0,0-19.166-22.34-32.856-29.145
		C223.278,260.958,213.545,255.083,207.02,242.136z"/>
	<path fill="#8C8B91" d="M91.273,93.25c0,0-0.348-17.804-23.063-30.928C45.497,49.199,38.151,32.498,38.151,32.498l-2.44-5.098
		l11.97-10.061L5.789,4.587l7.429,41.211l10.176-8.239c0,0,20.891,22.921,35.522,29.651C73.555,73.944,83.99,79.823,91.273,93.25z"
		/>
</g>
</svg>
