<?xml version="1.0" encoding="utf-8"?>
<!-- Generator: Adobe Illustrator 15.1.0, SVG Export Plug-In . SVG Version: 6.00 Build 0)  -->
<!DOCTYPE svg PUBLIC "-//W3C//DTD SVG 1.1//EN" "http://www.w3.org/Graphics/SVG/1.1/DTD/svg11.dtd">
<svg version="1.1" id="Слой_1" xmlns="http://www.w3.org/2000/svg" xmlns:xlink="http://www.w3.org/1999/xlink" x="0px" y="0px"
	 width="141.732px" height="37.875px" viewBox="0 0 141.732 37.875" enable-background="new 0 0 141.732 37.875"
	 xml:space="preserve">
<g>
	<path fill="#FFFFFF" d="M13.772-0.002l5.256,1.713c-1.211,2.562-2.345,4.95-3.402,7.17c-1.057,2.218-2.057,4.319-3,6.305
		c-2.144,4.466-3.705,7.813-4.683,10.035c-0.979,2.225-1.591,3.727-1.839,4.504c-0.248,0.779-0.372,1.344-0.372,1.689
		c0,0.565,0.283,0.85,0.849,0.85c0.715,0,2.035-0.506,3.961-1.52c0.179-0.091,1.137-0.562,2.873-1.414l-1.221,4.153
		c-4.338,2.562-7.306,3.843-8.903,3.843C1.097,37.327,0,36.144,0,33.781c0-1.221,0.226-2.506,0.677-3.854
		c0.451-1.35,1.179-3.051,2.182-5.107c0.992-2.064,2.167-4.6,3.521-7.608c1.355-3.008,2.67-5.994,3.946-8.963
		C11.601,5.279,12.75,2.53,13.772-0.002z"/>
	<path fill="#FFFFFF" d="M27.932,29.331l-1.459,4.153c-1.489,0.854-3.188,1.707-5.1,2.562c-1.911,0.854-3.323,1.281-4.235,1.281
		c-0.974,0-1.784-0.349-2.435-1.043c-0.649-0.695-0.975-1.568-0.975-2.619c0-0.836,0.302-1.97,0.908-3.404
		c0.604-1.434,1.662-3.506,3.171-6.215s3.683-6.498,6.521-11.361l4.273,2.145L20.86,28.915c-0.566,1.071-0.849,1.86-0.849,2.366
		c0,0.455,0.282,0.685,0.849,0.685c0.564,0,1.2-0.135,1.905-0.408S25.192,30.542,27.932,29.331z M30.433,1.473h2.068
		c1.103,0,1.653,0.363,1.653,1.09c0,0.706-0.246,1.46-0.737,2.261c-0.491,0.801-1.129,1.48-1.913,2.037
		c-0.784,0.558-1.568,0.836-2.353,0.836c-1.103,0-1.732-0.343-1.891-1.03V5.802c0.268-1.374,0.709-2.438,1.324-3.194
		C29.202,1.851,29.817,1.473,30.433,1.473z"/>
	<path fill="#FFFFFF" d="M42.017-0.002l5.256,1.713c-1.211,2.562-2.347,4.95-3.403,7.17c-1.057,2.218-2.057,4.319-3,6.305
		c-2.144,4.466-3.705,7.813-4.682,10.035c-0.979,2.225-1.591,3.727-1.839,4.504c-0.248,0.779-0.372,1.344-0.372,1.689
		c0,0.565,0.282,0.85,0.848,0.85c0.715,0,2.035-0.506,3.961-1.52c0.178-0.091,1.136-0.562,2.873-1.414l-1.221,4.153
		c-4.338,2.562-7.307,3.843-8.903,3.843c-2.194,0-3.291-1.183-3.291-3.546c0-1.221,0.226-2.506,0.677-3.854
		c0.452-1.35,1.179-3.051,2.182-5.107c0.991-2.064,2.167-4.6,3.521-7.608c1.354-3.008,2.67-5.994,3.946-8.963
		C39.845,5.279,40.995,2.53,42.017-0.002z"/>
	<path fill="#FFFFFF" d="M41.6,29.583l1.34-0.862c0.596-1.847,1.556-3.658,2.88-5.437c1.326-1.775,2.872-3.385,4.638-4.824
		c1.768-1.438,3.611-2.578,5.532-3.417c1.92-0.839,3.709-1.258,5.367-1.258c1.688,0,2.924,0.393,3.708,1.176
		c0.785,0.784,1.177,1.693,1.177,2.725c0,1.975-1.188,4.094-3.566,6.357c-2.377,2.263-7.104,4.271-14.181,6.029
		c-0.08,0.318-0.12,0.563-0.12,0.73c0,0.764,0.328,1.373,0.983,1.824s1.548,0.678,2.68,0.678c0.854,0,1.911-0.178,3.171-0.529
		c1.261-0.354,2.534-0.816,3.819-1.393s2.489-1.195,3.61-1.861l-1.341,3.961c-1.757,1.133-3.802,2.055-6.135,2.77
		c-2.332,0.716-4.392,1.072-6.179,1.072c-1.191,0-2.271-0.24-3.238-0.723s-1.718-1.123-2.248-1.928
		c-0.532-0.805-0.797-1.668-0.797-2.59l-2.442,1.518L41.6,29.583z M49.655,26.531c5.201-1.368,8.695-3.563,10.481-6.579
		c0.247-0.429,0.372-0.814,0.372-1.164c0-0.734-0.348-1.102-1.042-1.102c-1.082,0-2.296,0.509-3.641,1.526
		c-1.345,1.018-2.593,2.234-3.745,3.648C50.93,24.275,50.121,25.5,49.655,26.531z"/>
	<path fill="#FFFFFF" d="M81.904,12.133l0.983,3.544c-1.936,0.626-3.742,1.521-5.42,2.687c-1.678,1.167-3.116,2.458-4.317,3.873
		s-2.124,2.816-2.771,4.207c-0.645,1.389-0.968,2.619-0.968,3.691c0,2.154,0.895,3.229,2.68,3.229c1.312,0,2.613-0.584,3.908-1.75
		c1.296-1.166,2.36-2.739,3.194-4.719s1.251-4.11,1.251-6.396c0-0.496-0.04-1.189-0.119-2.083l5.494-1.519
		c0.159,0.863,0.239,1.816,0.239,2.86c0,3.104-0.803,6.014-2.405,8.723c-1.604,2.711-3.621,4.863-6.053,6.455
		c-2.433,1.594-4.8,2.391-7.103,2.391c-4.427,0-6.641-2.195-6.641-6.582c0-2.264,0.708-4.572,2.122-6.93s3.492-4.566,6.23-6.625
		C74.951,15.128,78.182,13.443,81.904,12.133z"/>
	<path fill="#FFFFFF" d="M88.585,31.654h2.074c1.263,0,1.896,0.484,1.896,1.457c0,0.586-0.225,1.259-0.672,2.019
		c-0.446,0.76-1.039,1.408-1.775,1.942c-0.736,0.535-1.487,0.806-2.252,0.806c-1.423-0.041-2.134-0.59-2.134-1.654
		c0-1.041,0.287-2.063,0.864-3.066C87.163,32.154,87.829,31.654,88.585,31.654z"/>
	<path fill="#FFFFFF" d="M104.323,12.997l4.156,1.831l-4.573,9.574l0.417,0.179c2.165-2.402,3.907-4.236,5.229-5.509
		c1.321-1.271,2.688-2.286,4.098-3.045c1.411-0.76,2.899-1.139,4.469-1.139c1.4,0,2.519,0.446,3.353,1.341l-3.353,5.791
		c-0.755-1.012-1.647-1.52-2.682-1.52c-1.312,0-3.02,0.914-5.124,2.739c-2.106,1.826-4.176,3.974-6.212,6.439
		s-3.565,4.528-4.588,6.186l-1.162,1.894l-4.692-1.34L104.323,12.997z"/>
	<path fill="#FFFFFF" d="M137.638,15.305l4.094,2.084l-6.536,12.373c-0.239,0.438-0.357,0.844-0.357,1.221
		c0,0.656,0.303,0.982,0.908,0.982c0.496,0,1.415-0.367,2.754-1.103c0.934-0.545,1.945-1.057,3.037-1.532l-1.34,4.153
		c-1.221,0.783-2.794,1.619-4.72,2.509c-1.926,0.889-3.281,1.334-4.065,1.334c-0.625,0-1.196-0.203-1.712-0.611
		c-0.516-0.406-0.839-0.998-0.968-1.771v-1.088c0.148-1.299,1.266-3.457,3.351-6.475l-0.238-0.299
		c-0.119,0.1-0.992,0.934-2.62,2.502c-5.162,5.162-8.983,7.742-11.464,7.742c-0.646,0-1.254-0.238-1.824-0.716
		c-0.571-0.478-0.856-1.274-0.856-2.397c0-0.783,0.269-1.849,0.804-3.193c0.536-1.344,1.507-3.377,2.911-6.098
		c1.404-2.719,3.562-6.798,6.47-12.238l4.139,2.145l-7.132,13.474c-0.349,0.715-0.531,1.143-0.551,1.281v0.297
		c0.04,0.486,0.263,0.729,0.67,0.729c0.505,0,1.099-0.256,1.778-0.768c0.681-0.513,1.997-1.675,3.953-3.49
		c2.531-2.373,4.438-4.263,5.717-5.666C135.122,19.283,136.388,17.488,137.638,15.305z"/>
</g>
</svg>
