<?xml version="1.0" standalone="no"?>
<!DOCTYPE svg PUBLIC "-//W3C//DTD SVG 1.1//EN" "http://www.w3.org/Graphics/SVG/1.1/DTD/svg11.dtd" >
<svg xmlns="http://www.w3.org/2000/svg" xmlns:xlink="http://www.w3.org/1999/xlink" version="1.1">
<metadata>
Created by FontForge 20170910 at Fri Jan  1 01:00:00 1904
 By Jimmy Wärting
Copyright (C) 1990-1992 ParaGraph JV.
</metadata>
<defs>
<font id="Jikharev" horiz-adv-x="1262" >
  <font-face 
    font-family="Jikharev"
    font-weight="400"
    font-style="italic"
    font-stretch="normal"
    units-per-em="4096"
    panose-1="2 11 114 0 0 0 0 0 0 0"
    ascent="3276"
    descent="-820"
    x-height="1655"
    cap-height="2875"
    bbox="-373 -975 4768 3518"
    underline-thickness="56"
    underline-position="-266"
    slope="28"
    unicode-range="U+0020-2122"
  />
<missing-glyph horiz-adv-x="3072" 
d="M512 0v2560h2048v-2560h-2048zM2494 66v2428h-1916v-2428h1916z" />
    <glyph glyph-name=".notdef" horiz-adv-x="3072" 
d="M512 0v2560h2048v-2560h-2048zM2494 66v2428h-1916v-2428h1916z" />
    <glyph glyph-name=".null" horiz-adv-x="0" 
 />
    <glyph glyph-name="nonmarkingreturn" horiz-adv-x="0" 
 />
    <glyph glyph-name="space" unicode=" " horiz-adv-x="1438" 
 />
    <glyph glyph-name="edieresis" horiz-adv-x="1409" 
d="M90 520l90 58q60 186 193.5 365t311.5 324t371.5 229.5t360.5 84.5q170 0 249 -79t79 -183q0 -199 -239.5 -427t-952.5 -405q-8 -32 -8 -49q0 -77 66 -122.5t180 -45.5q86 0 213 35.5t256.5 93.5t242.5 125l-90 -266q-177 -114 -412 -186t-415 -72q-120 0 -217.5 48.5
t-151 129.5t-53.5 174l-164 -102zM631 725q524 138 704 442q25 43 25 78q0 74 -70 74q-109 0 -244.5 -102.5t-251.5 -245t-163 -246.5zM1212 2408h140q110 0 110 -73q0 -111 -106.5 -227.5t-229.5 -116.5q-108 0 -127 69v58q27 136 90 213t123 77zM1901 2408h139
q110 0 110 -73q0 -111 -105.5 -227.5t-229.5 -116.5q-109 0 -127 69v58q25 135 88.5 212.5t124.5 77.5z" />
    <glyph glyph-name="minus" horiz-adv-x="2753" 
d="M717 1434h2064v-230h-2064v230z" />
    <glyph glyph-name="oe" horiz-adv-x="2372" 
d="M1380 1692l66 -238q-278 -89 -482 -278t-307.5 -399.5t-103.5 -362.5q0 -148 168 -148q128 0 259.5 117.5t216.5 320t85 435.5q0 41 -8 131l368 102l13 -98q107 89 227 157t250 109t248 41q158 0 240.5 -72.5t82.5 -189.5q0 -100 -52.5 -205.5t-183.5 -216t-365.5 -216.5
t-585.5 -194q0 -221 237 -221q137 0 344 76t385 195l-102 -279q-184 -113 -416.5 -185.5t-415.5 -72.5q-133 0 -221.5 48.5t-159.5 160.5h-20q-228 -209 -533 -209q-214 0 -328 99t-114 249q0 183 69 371t215.5 368.5t377.5 336.5t546 268zM1589 725q224 58 478.5 204
t254.5 316q0 74 -69 74q-105 0 -242.5 -103t-256.5 -246t-165 -245z" />
    <glyph glyph-name="OE" horiz-adv-x="4088" 
d="M2933 2490l-254 -237q-75 120 -190.5 207.5t-235.5 87.5q-217 0 -455.5 -181.5t-442 -467.5t-329 -600t-125.5 -558q0 -240 113 -357.5t256 -117.5q184 0 383 136t369 380t272 565.5t102 675.5q0 140 -8 209l389 -233q70 230 292.5 436t504.5 329.5t510 123.5
q134 0 253 -52t193 -156t74 -255q0 -232 -201 -426l-291 209q123 183 123 237q0 81 -46.5 128.5t-108.5 47.5q-169 0 -399 -162.5t-397 -379.5t-167 -355q0 -68 55.5 -103.5t124.5 -35.5q166 0 377 119l131 -229q-52 -29 -65 -35.5t-70 -38.5q-219 -121 -418 -255.5
t-359.5 -314.5t-160.5 -356q0 -94 51 -165.5t174 -71.5q218 0 457 165.5t510 436.5l238 -271q-335 -301 -604.5 -447.5t-551.5 -146.5q-263 0 -409 97.5t-196 218.5t-50 213q0 94 8 143h-24q-139 -180 -325 -334t-388 -246t-385 -92q-184 0 -348.5 94t-268.5 286.5
t-104 467.5q0 339 156 695t415.5 654.5t569.5 476t600 177.5q136 0 250.5 -34.5t217.5 -108t208 -193.5zM2753 1696l-46 12q-12 -384 -204 -709l24 -12q270 257 606 393v33q-125 0 -233.5 80t-146.5 203z" />
    <glyph glyph-name="ae" horiz-adv-x="2499" 
d="M1778 1581l290 -156l-28 -61l16 -8q192 225 447 225q154 0 240.5 -75.5t86.5 -186.5q0 -199 -239.5 -427t-952.5 -405q-8 -32 -8 -49q0 -77 66 -122.5t180 -45.5q88 0 215.5 34.5t260.5 94.5t253 138l-102 -279q-184 -116 -412 -187t-420 -71q-216 0 -308.5 96.5
t-92.5 206.5q0 87 45 189l-17 4q-20 -14 -49 -50q-112 -137 -339.5 -291.5t-409.5 -154.5q-119 0 -223.5 100.5t-104.5 313.5q0 218 200.5 496t483 474.5t496.5 196.5q229 0 352 -147zM1716 725q134 34 307 115.5t297.5 189t124.5 215.5q0 74 -69 74q-108 0 -244.5 -102.5
t-252.5 -245t-163 -246.5zM1413 885l209 393q-75 86 -184 86q-133 0 -338 -146.5t-359.5 -352.5t-154.5 -365q0 -176 119 -176q71 0 223 99t293 232t192 230z" />
    <glyph glyph-name="AE" horiz-adv-x="4022" 
d="M3006 2904l328 -156l-45 -114q158 115 360 184.5t373 69.5q129 0 247.5 -51t193.5 -156t75 -256q0 -233 -200 -426l-291 209q123 147 123 237q0 83 -43.5 129.5t-112.5 46.5q-140 0 -374 -153.5t-411 -366.5t-177 -377q0 -68 55.5 -103.5t124.5 -35.5q76 0 185.5 35
t195.5 84l127 -229q-1074 -555 -1074 -1000q0 -94 51 -165.5t175 -71.5q218 0 457.5 166.5t508.5 435.5l242 -271q-326 -295 -586 -444.5t-569 -149.5q-497 0 -586 340l-118 -340l-377 82l401 955h-549q-219 -281 -385 -465.5t-321 -312.5t-303.5 -193.5t-296.5 -65.5
q-158 0 -255.5 94.5t-97.5 262.5q0 103 70 285t143 182q9 0 25 -8l229 -127q33 -18 41 -50v-32q-10 -54 -41.5 -103t-31.5 -90q0 -17 22.5 -41t67.5 -24q93 0 211 89t214 192t345 386q-198 -14 -471 -90l123 266q19 40 35 51.5t55 14.5l479 29q416 487 524 618
q450 534 909 1024zM2830 1573l-209 -504l21 -8q183 208 426 319v33q-122 25 -169.5 58.5t-68.5 101.5zM1913 1262h459q108 254 254 557q60 119 135 278q95 205 151 311l-45 21q-33 -39 -57.5 -68.5t-85.5 -99.5q-200 -233 -385 -467q-164 -208 -426 -532z" />
    <glyph glyph-name="oslash" horiz-adv-x="1548" 
d="M33 -33l-103 164l254 188q-24 87 -24 173q0 237 173.5 473t456 426.5t594.5 300.5l66 -238q-190 -54 -385.5 -176.5t-340.5 -301.5t-183 -386l745 553l-4 127l283 82l331 245l136 -176l-369 -266q-15 -286 -159.5 -554.5t-380.5 -434.5t-505 -166q-221 0 -352 135z
M1257 856l-684 -496q45 -94 152 -94q96 0 207 84t200.5 222t124.5 284z" />
    <glyph glyph-name="ccedilla" horiz-adv-x="1438" 
d="M1532 967l-262 155q57 103 57 144q0 21 -23 41t-63 20q-116 0 -272.5 -158.5t-269.5 -372.5t-113 -358q0 -52 42.5 -101.5t125.5 -49.5q218 0 778 250l-90 -279q-267 -119 -413.5 -171t-287.5 -79l-77 -135q103 0 192.5 -52.5t89.5 -176.5q0 -162 -156 -282t-425 -120
q-172 0 -316 66l111 180q112 -20 159 -20q259 0 259 159q0 119 -213 119l139 258q-332 38 -332 385q0 207 126.5 428t324 402t416 290t391.5 109q143 0 212.5 -89.5t69.5 -217.5q0 -82 -51.5 -176t-128.5 -168z" />
    <glyph glyph-name="Ccedilla" horiz-adv-x="2077" 
d="M2028 537l-91 -279q-241 -178 -456.5 -230.5t-366.5 -52.5l-57 -102q103 0 192.5 -52.5t89.5 -176.5q0 -162 -155.5 -282t-425.5 -120q-172 0 -316 66l111 180q112 -20 160 -20q258 0 258 159q0 119 -213 119l147 270q-161 49 -270.5 166.5t-163 279t-53.5 337.5
q0 385 171 758t449 667t597.5 464.5t600.5 170.5q251 0 390 -129.5t139 -316.5q0 -175 -137.5 -355.5t-403.5 -349.5l-295 176q166 110 325 275t159 278q0 65 -46 116.5t-147 51.5q-192 0 -436.5 -160.5t-469 -429t-366 -591.5t-141.5 -625q0 -272 120.5 -402.5
t370.5 -130.5q159 0 361.5 80.5t368.5 190.5z" />
    <glyph glyph-name="acute" 
d="M1667 2515l86 -12q63 -8 97 -23t34 -59q0 -81 -150.5 -199t-340 -209.5t-271.5 -91.5q-60 0 -99.5 28t-39.5 54q0 34 37 53q141 73 233 153t197 208q90 110 127 110q6 0 33.5 -4.5t56.5 -7.5z" />
    <glyph glyph-name="caron" 
d="M1540 2212l402 221l19.5 10.5t33.5 10.5q17 0 33 -21l77 -111q0 -49 -12 -57l-672 -344q-61 -33 -135 -33q-107 0 -164 123l-139 307q-12 29 -12 123q0 25 65 25h181q40 0 61 -17q7 -9 53 -151q20 -73 36 -102t50 -29q35 0 123 45z" />
    <glyph glyph-name="circumflex" 
d="M1405 2134l-389 -213q-43 -20 -53 -20q-13 0 -33 20l-78 111q0 53 12 57l672 344q58 33 135 33q110 0 164 -123l139 -307q13 -37 13 -123q0 -25 -66 -25h-180q-53 0 -70 29q-34 100 -45 143q-21 70 -37 100.5t-49 30.5q-38 0 -135 -57z" />
    <glyph glyph-name="dieresis" 
d="M967 2408h139q111 0 111 -73q0 -111 -107.5 -227.5t-228.5 -116.5q-109 0 -127 69v58q27 138 89 214t124 76zM1655 2408h139q111 0 111 -73q0 -111 -106.5 -227.5t-229.5 -116.5q-109 0 -127 69v58q27 138 89 214t124 76z" />
    <glyph glyph-name="tilde" 
d="M745 2048l-110 201q74 86 185.5 151.5t203.5 65.5q87 0 143 -21q43 -15 132 -65t160.5 -78.5t150.5 -28.5q72 0 150 42.5t132 113.5l127 -180q-286 -262 -503 -262q-50 0 -96.5 11.5t-86.5 29.5t-98 52t-72 42q-101 61 -192 61q-109 0 -226 -135z" />
    <glyph glyph-name="macron" 
d="M1659 2093l-832 -8q-51 0 -65 37v37q59 208 188 208l877 13q69 0 69 -37q0 -45 -65 -135q-79 -115 -172 -115z" />
    <glyph glyph-name="breve" 
d="M840 2417l331 16q0 -279 230 -279q184 0 446 316l164 -131q-173 -204 -345.5 -311t-391.5 -107q-434 0 -434 496z" />
    <glyph glyph-name="ring" 
d="M1262 1876q-112 0 -214 68t-102 210q0 118 70.5 215.5t179 154t209.5 56.5q147 0 217 -97t70 -222q0 -134 -118 -259.5t-312 -125.5zM1290 2048q90 0 139.5 62.5t49.5 134.5q0 131 -131 131q-84 0 -138.5 -62.5t-54.5 -122.5q0 -59 33.5 -101t101.5 -42z" />
    <glyph glyph-name="hungarumlaut" 
d="M1610 2810l127 -12q98 -18 98 -78q0 -65 -107 -226.5t-237.5 -293.5t-204.5 -132q-48 0 -98 50q-37 35 -41 65v25q18 81 60 121t102.5 106.5t136.5 239.5q17 39 30.5 70.5t32.5 50t52 18.5q7 0 22 -2t27 -2z" />
    <glyph glyph-name="cedilla" 
d="M1311 2408h139q111 0 111 -73q0 -111 -107.5 -227.5t-228.5 -116.5q-109 0 -127 69v58q27 138 89 214t124 76z" />
    <glyph glyph-name="Edieresis" horiz-adv-x="2224" 
d="M2056 840l242 -271q-312 -280 -584 -437t-571 -157q-230 0 -384.5 83.5t-227 207t-72.5 238.5q0 211 155 446.5t656 429.5v33h-33q-161 0 -258.5 100.5t-97.5 264.5q0 196 121.5 394.5t321 360.5t438.5 258.5t458 96.5q134 0 253 -52t193 -156t74 -255q0 -231 -200 -426
l-291 209q123 188 123 237q0 81 -46.5 128.5t-109.5 47.5q-104 0 -268.5 -90.5t-324.5 -232t-265 -296.5t-105 -278q0 -68 56.5 -103.5t124.5 -35.5q170 0 376 119l127 -229q-77 -48 -180 -99q-535 -292 -712 -519.5t-177 -381.5q0 -95 51 -166t171 -71q392 0 966 602z
M1876 3363l135 -4q115 0 115 -70q0 -68 -58 -147q-106 -141 -147 -169t-131 -28q-113 0 -131 70v57q21 93 80.5 192t136.5 99zM2564 3363l135 -4q115 0 115 -70q0 -67 -57 -147q-108 -142 -148.5 -169.5t-130.5 -27.5q-113 0 -131 70v57q21 93 80.5 192t136.5 99z" />
    <glyph glyph-name="zeroslash" horiz-adv-x="2064" 
d="M1188 1950l-119 319q296 283 643 283q150 0 287 -82l225 274l201 -143l-254 -303q102 -188 102 -475q0 -253 -127 -575.5t-343 -620.5t-477.5 -485t-518.5 -187q-169 0 -279 53l-241 -389l-303 115l323 491q-74 166 -74 381q0 365 172 759.5t459 739.5l307 -274
q-131 -147 -266 -357t-230 -441t-106 -431q262 360 505.5 681t719.5 929q-67 49 -135 49q-229 0 -471 -311zM1905 1954q-130 -176 -189.5 -256.5t-167.5 -222.5q-268 -361 -431 -589t-421 -624q70 -41 152 -41q119 0 250 110t246 271.5t204 327.5q83 155 162 328t137 362.5
t58 333.5z" />
    <glyph glyph-name="star" horiz-adv-x="3502" 
d="M2163 651l-873 -651l340 1040l-876 652h1081l328 1036l323 -1036h1082l-877 -652l340 -1040zM2163 938l426 -320l-168 508l454 336h-557l-155 500l-160 -500h-557l455 -336l-168 -508z" />
    <glyph glyph-name="divide" horiz-adv-x="2753" 
d="M1491 1954q0 101 71 177.5t187 76.5q112 0 183 -77.5t71 -176.5t-71 -176.5t-183 -77.5q-116 0 -187 76.5t-71 177.5zM1491 680q0 109 78.5 183.5t179.5 74.5q109 0 181.5 -81t72.5 -177q0 -99 -71 -176.5t-183 -77.5q-116 0 -187 76.5t-71 177.5zM717 1204v230h2064
v-230h-2064z" />
    <glyph glyph-name="notequal" horiz-adv-x="2753" 
d="M717 1778h1200l373 643l196 -115l-303 -528h598v-230h-733l-262 -458h995v-230h-1126l-373 -643l-197 115l304 528h-672v230h807l262 458h-1069v230z" />
    <glyph glyph-name="greaterequal" horiz-adv-x="2642" 
d="M2789 1544l-1876 -1085l-139 246l1667 962l-1667 963l139 241l1876 -1085v-242zM2789 889l-1876 -1086l-139 246l1876 1086z" />
    <glyph glyph-name="lessequal" horiz-adv-x="2642" 
d="M672 1544v242l1876 1085l139 -241l-1667 -963l1667 -962l-139 -246zM672 889l139 246l1876 -1086l-139 -246z" />
    <glyph glyph-name="emptyset" horiz-adv-x="3002" 
d="M639 -205l397 475q-222 225 -297 466t-75 423q0 229 89.5 452.5t255 403t397 284.5t503.5 105q397 0 717 -229h4l397 475l156 -127l-402 -479q207 -203 290 -437.5t83 -447.5q0 -311 -156.5 -599t-443 -467t-645.5 -179q-387 0 -713 221l-393 -467zM1184 446l1294 1549
q-221 180 -569 180q-220 0 -409.5 -85t-325.5 -230t-208.5 -327t-72.5 -374q0 -409 291 -713zM2634 1868l-1291 -1553q214 -172 566 -172q223 0 413 84t325 229t206.5 328.5t71.5 374.5q0 413 -291 709z" />
    <glyph glyph-name="dotmath" horiz-adv-x="2753" 
d="M1434 1282q0 127 86.5 207t199.5 80q127 0 207 -87t80 -200q0 -127 -86.5 -207t-200.5 -80q-112 0 -199 80.5t-87 206.5z" />
    <glyph glyph-name="radical" horiz-adv-x="0" 
 />
    <glyph glyph-name="cent" horiz-adv-x="1667" 
d="M745 -471l-151 45l147 426q-454 0 -454 389q0 174 85.5 358.5t232 349t326.5 289t359 187.5l135 393l160 -37l-110 -315q183 0 267.5 -88t84.5 -215q0 -82 -51.5 -176t-128.5 -168l-263 155q16 23 37 71.5t21 72.5q0 48 -66 61l-360 -1024q248 65 631 234l-91 -279
q-384 -173 -638 -238zM844 291l327 950q-137 -106 -246.5 -257t-167 -298.5t-57.5 -247.5q0 -58 42 -101t102 -46z" />
    <glyph glyph-name="approxequal" horiz-adv-x="2474" 
d="M2163 1966h340q-92 -268 -207 -369.5t-273 -101.5q-169 0 -315 45q-33 9 -151.5 45t-186.5 51t-137 15q-129 0 -184 -127h-332q49 249 189.5 351.5t285.5 102.5q150 0 332 -53q33 -9 162 -47t183 -50.5t101 -12.5q127 0 193 151zM2163 1147h340q-92 -268 -207 -369.5
t-273 -101.5q-169 0 -315 45q-33 9 -149 44.5t-186.5 50.5t-139.5 15q-130 0 -184 -126h-332q49 249 189.5 351.5t285.5 102.5q142 0 332 -53q121 -35 206 -60.5t139 -38t101 -12.5q126 0 193 152z" />
    <glyph glyph-name="adieresis" horiz-adv-x="1966" 
d="M1749 1524l295 -156l-361 -704q-94 -183 -94 -246q0 -74 53 -74q40 0 187.5 70.5t238.5 122.5l-86 -279q-125 -97 -282.5 -177.5t-253.5 -80.5q-102 0 -165.5 60.5t-63.5 136.5q0 41 14.5 90.5t26.5 79t32 75.5q19 30 25 50l-17 4q-20 -14 -49 -50
q-112 -137 -339.5 -291.5t-409.5 -154.5q-119 0 -223.5 100.5t-104.5 313.5q0 218 200.5 496t483 474.5t496.5 196.5q229 0 352 -147zM1413 885l209 393q-75 86 -184 86q-133 0 -338 -146.5t-359.5 -352.5t-154.5 -365q0 -176 119 -176q71 0 223 99t293 232t192 230z
M1315 2408h143q111 0 111 -73q0 -71 -49.5 -151.5t-128.5 -136.5t-158 -56q-110 0 -127 69v58q26 150 89 220t120 70zM2003 2408h143q111 0 111 -73q0 -71 -49.5 -151.5t-128.5 -136.5t-158 -56q-110 0 -127 69v58q25 147 89 218.5t120 71.5z" />
    <glyph glyph-name="odieresis" horiz-adv-x="1548" 
d="M1384 1692l66 -238q-209 -67 -377.5 -194t-285 -283t-175.5 -304t-59 -259q0 -75 50.5 -111.5t121.5 -36.5q132 0 263.5 116t214.5 317.5t83 435.5q0 45 -8 135l369 102q16 -87 16 -192q0 -313 -161.5 -586t-406.5 -433.5t-477 -160.5q-446 0 -446 442q0 228 142.5 465.5
t418.5 445t651 339.5zM1106 2408h143q111 0 111 -73q0 -71 -49.5 -151.5t-128.5 -136.5t-158 -56q-110 0 -127 69v58q25 147 89 218.5t120 71.5zM1794 2408h143q111 0 111 -73q0 -71 -49.5 -151.5t-128.5 -136.5t-158 -56q-109 0 -127 69v58q25 147 89 218.5t120 71.5z" />
    <glyph glyph-name="udieresis" horiz-adv-x="1802" 
d="M1630 1479l275 -140l-439 -831q-24 -44 -24 -82q0 -66 61 -66q50 0 185 74q94 55 204 103l-90 -279q-123 -79 -317 -168.5t-273 -89.5q-63 0 -115 41t-65 119v73q15 131 225 435l-16 20q-12 -10 -176 -168q-520 -520 -770 -520q-65 0 -122.5 48t-57.5 161q0 79 54 214.5
t195.5 409.5t434.5 822l278 -144l-479 -905q-35 -72 -37 -86v-20q4 -49 45 -49q51 0 119.5 51.5t265.5 234.5q255 239 384 380.5t255 361.5zM1233 2408h139q115 0 115 -73q0 -45 -43.5 -130.5t-119.5 -149.5t-173 -64q-110 0 -127 69v58q24 137 85.5 213.5t123.5 76.5z
M1921 2408h139q115 0 115 -73q0 -45 -43.5 -130.5t-119.5 -149.5t-173 -64q-109 0 -127 69v58q24 137 85.5 213.5t123.5 76.5z" />
    <glyph glyph-name="dotlessi" horiz-adv-x="971" 
d="M1069 537l-98 -279q-150 -86 -342.5 -172t-284.5 -86q-98 0 -163.5 70t-65.5 176q0 84 61 228.5t213 417.5t438 763l287 -144l-520 -946q-14 -26 -18 -37t-19 -36q-20 -42 -20 -86q0 -46 57 -46t128 27.5t347 149.5z" />
    <glyph glyph-name="Oslash" horiz-adv-x="2597" 
d="M631 -49l-193 160l197 217q-119 193 -119 495q0 339 156 695t416 654.5t568.5 476t596.5 177.5q298 0 520 -176l262 287l193 -176l-615 -664l185 -110q0 -521 -243.5 -985t-612.5 -743t-705 -279q-246 0 -434 155zM909 627l1639 1781q-2 3 -7 9t-14 16q-115 115 -278 115
q-212 0 -450.5 -178t-444 -461t-331.5 -594.5t-126 -556.5q0 -69 12 -131zM2392 1855l-1368 -1478q105 -111 246 -111q151 0 335.5 110.5t355.5 319t289.5 506t141.5 653.5z" />
    <glyph glyph-name="Adieresis" horiz-adv-x="2732" 
d="M3006 2904l357 -168l-647 -1483h237l-106 -241l-226 4l-360 -1041l-393 82l373 959l-525 -4q-189 -245 -337 -416t-306.5 -312t-326.5 -225t-336 -84t-260.5 102t-92.5 255q0 104 68 285.5t141 181.5q13 0 29 -8l229 -127q33 -18 41 -50v-32q-9 -58 -41 -108.5t-32 -84.5
q0 -22 23.5 -43.5t66.5 -21.5q117 0 270.5 138t499.5 529q-198 -14 -471 -90l127 266q19 41 29.5 52t60.5 14l475 29q416 487 524 618q450 534 909 1024zM1917 1262h442q135 319 410 860q64 128 83 166.5t60 119.5l-45 21q-70 -93 -196 -238q-100 -109 -222.5 -259.5
t-531.5 -669.5zM2867 3363h139q111 0 111 -74q0 -70 -50 -151.5t-128.5 -137t-157.5 -55.5q-110 0 -127 70v57q15 80 73.5 185.5t139.5 105.5zM3555 3363h140q110 0 110 -74q0 -70 -50 -151.5t-128.5 -137t-157.5 -55.5q-110 0 -127 70v57q19 87 76.5 189t136.5 102z" />
    <glyph glyph-name="Odieresis" horiz-adv-x="2503" 
d="M2933 2486l-254 -237q-75 120 -190.5 207.5t-235.5 87.5q-217 0 -455.5 -181.5t-442 -467.5t-329 -600t-125.5 -558q0 -259 122 -367t247 -108q168 0 365 130.5t371 369.5t282 562.5t108 690.5q0 144 -8 213l414 -246q-3 -382 -141.5 -745t-370.5 -649t-509.5 -449.5
t-543.5 -163.5q-216 0 -379.5 107t-252.5 298.5t-89 438.5q0 337 157 695t416.5 655t569.5 475t598 178q136 0 250.5 -34.5t217.5 -108t208 -193.5zM2064 3363h144q110 0 110 -74q0 -72 -50 -153.5t-129 -136t-157 -54.5q-109 0 -127 70v57q19 106 77.5 198.5t131.5 92.5z
M2753 3363h143q110 0 110 -74q0 -72 -50 -153.5t-129 -136t-156 -54.5q-110 0 -127 70v57q17 101 76 196t133 95z" />
    <glyph glyph-name="Udieresis" horiz-adv-x="2515" 
d="M1577 2847l332 -201l-709 -1274q-76 -133 -166.5 -307.5t-158.5 -332t-68 -216.5q0 -78 86 -78q106 0 414 271q295 256 474.5 435.5t325 370.5t298 438.5t429.5 725.5l312 -209q-161 -257 -416 -699t-450 -830.5t-195 -502.5q0 -106 115 -106q157 0 417 205l-102 -279
q-266 -283 -541 -283q-286 0 -286 287q0 259 217 643l-21 21q-58 -59 -135 -135q-92 -98 -239 -233t-322 -271t-333 -224t-261 -88q-250 0 -250 291q0 102 31 195t100 252q113 249 205 445.5t198 400.5t309 575.5t390 712.5zM2191 3363l144 -4q110 0 110 -70q0 -73 -51 -154
t-130 -135.5t-155 -54.5q-109 0 -127 70v57q20 100 79.5 195.5t129.5 95.5zM2879 3363l144 -4q110 0 110 -70q0 -73 -51 -154t-130 -135.5t-154 -54.5q-110 0 -127 70v57q17 95 77.5 193t130.5 98z" />
    <glyph glyph-name="Acute" 
d="M2077 3498l86 -12q131 -16 131 -82q0 -76 -150.5 -185t-339 -191.5t-272.5 -82.5q-57 0 -98 29.5t-41 52.5t54.5 41.5t155 89t269.5 258.5q58 54 80.5 70.5t58.5 19.5q16 0 66 -8z" />
    <glyph glyph-name="Grave" horiz-adv-x="1266" 
d="M1868 3494l155 12q72 0 97.5 -18t46.5 -88q48 -138 81.5 -185.5t76 -89t42.5 -86.5q0 -32 -35.5 -63t-107.5 -31q-63 0 -171.5 84.5t-193.5 197t-85 185.5q0 82 94 82z" />
    <glyph glyph-name="Caron" 
d="M1950 3252l401 221q34 21 53 21q20 0 33 -21l78 -110q0 -49 -12 -58l-672 -344q-59 -32 -135 -32q-108 0 -164 123l-139 307q-13 28 -13 123q0 24 66 24h180q41 0 62 -16q7 -10 53 -152q17 -71 34.5 -101t51.5 -30q31 0 123 45z" />
    <glyph glyph-name="Circumflex" 
d="M1741 3183l-402 -222l-13 -6.5t-21.5 -10t-18.5 -3.5q-18 0 -33 20l-77 111q0 49 12 57l672 344q57 33 135 33q104 0 164 -123l139 -307q12 -29 12 -123q0 -24 -65 -24h-181q-41 0 -61 16q-7 9 -53 152q-34 131 -86 131q-31 0 -123 -45z" />
    <glyph glyph-name="Dieresis" 
d="M1393 3363h139q110 0 110 -74q0 -71 -49 -151.5t-128.5 -136.5t-157.5 -56q-109 0 -127 70v57q15 80 73.5 185.5t139.5 105.5zM2081 3363h139q111 0 111 -74q0 -109 -106.5 -226.5t-229.5 -117.5q-109 0 -127 70v57q15 80 73.5 185.5t139.5 105.5z" />
    <glyph glyph-name="Tilde" 
d="M1360 3031l-111 201q74 86 185.5 151.5t203.5 65.5q88 0 144 -21q43 -15 133.5 -65.5t160 -78.5t148.5 -28q160 0 283 156l127 -180q-286 -262 -504 -262q-96 0 -160 29.5t-192 105.5q-102 61 -193 61q-110 0 -225 -135z" />
    <glyph glyph-name="Macron" 
d="M2273 3076l-831 -8q-52 0 -66 37v37q60 209 189 209l876 12q70 0 70 -37q0 -45 -66 -135q-80 -115 -172 -115z" />
    <glyph glyph-name="Brieve" 
d="M1454 3445l332 16q0 -278 229 -278q186 0 447 315l164 -131q-173 -204 -346 -311t-392 -107q-434 0 -434 496z" />
    <glyph glyph-name="Ring" 
d="M1753 2802q-114 0 -214.5 67.5t-100.5 210.5q0 118 70.5 215.5t179 154t208.5 56.5q149 0 218 -97t69 -222q0 -82 -51.5 -172.5t-149.5 -151.5t-229 -61zM1782 2974q90 0 139 62t49 134q0 131 -131 131q-85 0 -138.5 -61t-53.5 -123q0 -59 33.5 -101t101.5 -42z" />
    <glyph glyph-name="Hungarumlaut" 
d="M340 -127l127 -12q98 -16 98 -78q0 -76 -109.5 -215.5t-246 -255t-193.5 -115.5q-47 0 -98 49q-38 40 -41 66v24q13 53 62.5 92t99.5 97t133 229q47 93 59 108t60 15q8 0 25 -2t24 -2z" />
    <glyph glyph-name="dotaccent" 
d="M1737 3363l139 -4q111 0 111 -70q0 -109 -107.5 -226.5t-228.5 -117.5q-109 0 -127 70v57q16 77 74.5 184t138.5 107z" />
    <glyph glyph-name="exclamdown" horiz-adv-x="1663" 
d="M418 -836l-246 86q-57 26 -57 78q0 79 372 770q113 212 172 328q172 326 268.5 502t147.5 258.5t81.5 113t60.5 35.5h102q119 -13 119 -82q0 -31 -160 -352q-175 -344 -291 -614q-49 -118 -115 -262q-87 -195 -176 -410q-57 -145 -94.5 -239t-80.5 -153t-103 -59z
M1593 1667h-143q-107 0 -119 70v28q13 136 108 228t199 92q140 0 140 -111q0 -62 -25.5 -134.5t-68.5 -122.5t-91 -50z" />
    <glyph glyph-name="questiondown" horiz-adv-x="1778" 
d="M1303 -41l159 -102q44 -26 49 -70v-33q-13 -109 -148.5 -251t-323.5 -242.5t-347 -100.5q-207 0 -392 150.5t-185 451.5q0 141 61 260.5t153.5 210t205 170.5t202.5 142q194 138 314 261.5t187 229t134 238.5q4 7 12.5 22.5t17.5 23t23 7.5q209 0 209 -61
q0 -100 -85 -270t-252 -369.5t-396 -380.5q-218 -172 -322 -290.5t-104 -283.5q0 -111 65.5 -157.5t143.5 -46.5q111 0 213 80t172.5 183t106.5 183q34 70 81 70q11 0 46 -25zM1765 1663h-143q-105 0 -119 74v28q13 133 105.5 224.5t201.5 91.5q140 0 140 -107
q0 -136 -63 -223.5t-122 -87.5z" />
    <glyph glyph-name="sterling" horiz-adv-x="2421" 
d="M2159 528l282 -151q-179 -438 -606 -438q-86 0 -159.5 14t-198.5 46.5t-211 49.5q-154 29 -271 29q-150 0 -284 -31.5t-342 -95.5l-82 242q159 55 285.5 192.5t247 379t282.5 660.5q-199 -32 -504 -163l-82 258q351 137 692 168q132 346 279.5 603.5t360.5 425t491 167.5
q418 0 540 -324l-307 -115q-47 156 -254 156q-155 0 -277.5 -130.5t-201 -299.5t-192.5 -467q242 0 392 -20.5t283 -73.5l-196 -291q-251 143 -586 143q-285 -718 -663 -1122l20 -29q212 86 373 86q164 0 303 -41q19 -5 90 -25t112 -28t85 -8q206 0 299 233z" />
    <glyph glyph-name="germandbls" horiz-adv-x="1913" 
d="M1130 1343l103 291q222 0 409 103.5t296.5 255.5t109.5 288q0 121 -64.5 185.5t-140.5 64.5q-379 0 -721 -770q-46 -106 -143.5 -349t-236 -590.5t-305.5 -755.5t-363 -869l-361 111q203 427 340 739.5t242 562.5q135 337 292 724.5t343.5 725.5t431 562.5t539.5 224.5
q124 0 247 -67t202 -196.5t79 -302.5q0 -185 -112.5 -352.5t-301.5 -290t-409 -180.5l-13 -16q172 -31 262.5 -177t90.5 -339q0 -225 -106.5 -444.5t-306 -360.5t-464.5 -141q-244 0 -438 131l127 311q157 -135 327 -135q145 0 257.5 104t173.5 264t61 320q0 368 -447 368z
" />
    <glyph glyph-name="minute" horiz-adv-x="975" 
d="M1270 2781l278 -123q-113 -277 -467 -737l-45 -57l-176 57q171 331 227.5 448t182.5 412z" />
    <glyph glyph-name="second" horiz-adv-x="1606" 
d="M1270 2781l278 -123q-113 -277 -467 -737l-45 -57l-176 57q171 331 227.5 448t182.5 412zM1901 2781l278 -123q-112 -274 -467 -737l-49 -57l-172 57q171 331 232.5 460t177.5 400z" />
    <glyph glyph-name="multiply" horiz-adv-x="2753" 
d="M856 590l729 729l-729 729l164 164l729 -729l729 729l164 -164l-729 -729l729 -729l-164 -164l-729 729l-729 -729z" />
    <glyph glyph-name="exclam" unicode="!" horiz-adv-x="1663" 
d="M1876 2884l246 -86q50 -16 57 -45v-33q-11 -72 -183 -409t-362.5 -690t-236.5 -433q-103 -184 -163.5 -293.5t-87.5 -142t-65 -39.5h-106q-115 16 -115 82q0 31 74 180q135 266 328 683t335 771q38 97 73.5 187.5t65 148.5t63 88.5t77.5 30.5zM705 381h139q123 0 123 -98
q0 -85 -92.5 -202.5t-219.5 -117.5q-139 0 -139 111q0 81 54.5 194t134.5 113z" />
    <glyph glyph-name="quotedbl" unicode="&#x22;" horiz-adv-x="2154" 
d="M1372 3039l-172 -745h-229l-172 745h573zM2175 3039l-172 -745h-229l-172 745h573z" />
    <glyph glyph-name="numbersign" unicode="#" horiz-adv-x="3752" 
d="M2699 0h-245l110 565h-856l-106 -565h-246l110 565h-532l70 369h532l152 778h-533l74 369h528l107 540h245l-106 -540h852l106 540h246l-106 -540h536l-73 -369h-533l-152 -778h533l-70 -369h-536zM2634 934l151 778h-852l-151 -778h852z" />
    <glyph glyph-name="dollar" unicode="$" horiz-adv-x="2236" 
d="M766 -315l-221 90l168 348q-263 150 -426 405l286 193q102 -202 279 -307l475 987q-319 344 -319 672q0 222 118.5 381t294.5 239t340 80q74 0 221 -16l144 299l217 -86l-139 -287q308 -122 376 -447l-323 -65q-3 86 -50.5 156.5t-125.5 97.5l-426 -877
q134 -144 226.5 -262.5t154 -260t61.5 -296.5q0 -175 -104.5 -345t-302.5 -279t-461 -109q-146 0 -303 37zM1491 1737l364 753q-217 0 -360 -97.5t-143 -278.5q0 -203 139 -377zM1499 1225l-446 -926q107 -33 229 -33q223 0 347 162.5t124 333.5q0 114 -76 243.5t-178 219.5
z" />
    <glyph glyph-name="percent" unicode="%" horiz-adv-x="2925" 
d="M2548 2699l241 -192q-353 -419 -693 -887.5t-635.5 -945.5t-502.5 -887l-385 111q100 192 204.5 364t250.5 384t345 477.5t450 588.5q140 181 183.5 235.5t98.5 125.5q99 115 185 233l-17 25q-102 -82 -323 -82q-69 0 -148 37q-16 -171 -124 -306.5t-259.5 -209.5
t-283.5 -74q-168 0 -287 119.5t-119 338.5q0 197 115 360.5t305.5 258t398.5 94.5q58 0 86 -4v-192q-210 -24 -349.5 -118t-206 -219t-66.5 -245q0 -77 32.5 -126.5t69.5 -49.5q144 0 268.5 109.5t124.5 324.5q0 75 -28 152l250 127q56 -58 86 -107q86 -41 249 -41
q217 0 484 221zM2523 729l287 111q57 -89 57 -201q0 -144 -80.5 -315.5t-236 -290.5t-363.5 -119q-193 0 -303 115t-110 290q0 212 117.5 389.5t312.5 279.5t409 102q62 0 90 -5l13 -192q-248 -29 -398 -131.5t-210 -224.5t-60 -222q0 -93 48 -146.5t132 -53.5
q82 0 159 65.5t123 170t46 214.5q0 81 -33 164z" />
    <glyph glyph-name="ampersand" unicode="&#x26;" horiz-adv-x="3097" 
d="M2765 1331l278 -123q-254 -475 -680 -794q121 -172 353 -172q141 0 270 77l111 -253q-191 -91 -443 -91q-176 0 -321 43t-260 187q-111 -77 -255.5 -139t-298 -97t-278.5 -35q-205 0 -383.5 83t-288.5 254.5t-110 420.5q0 189 87.5 352.5t296.5 327.5t574 348
q-41 168 -41 316q0 253 111 434t274 272.5t316 91.5q182 0 281.5 -133t99.5 -297q0 -373 -652 -770q138 -550 389 -970q364 263 570 667zM1475 1450q-603 -301 -603 -729q0 -199 108 -335t323 -136q142 0 303 69.5t286 155.5q-130 202 -241 466.5t-176 508.5zM1757 1884
q139 76 248 211t109 248q0 81 -49.5 122.5t-106.5 41.5q-100 0 -167 -105t-67 -276q0 -100 33 -242z" />
    <glyph glyph-name="quotesingle" unicode="'" horiz-adv-x="1352" 
d="M1372 2867l-172 -745h-229l-172 745h573z" />
    <glyph glyph-name="parenleft" unicode="(" horiz-adv-x="2179" 
d="M1106 -684l-365 -131q-53 207 -53 524q0 229 65.5 535t263 714.5t597.5 900t1016 996.5l180 -221q-336 -265 -645.5 -600.5t-559.5 -725t-393 -800.5t-143 -807q0 -197 37 -385z" />
    <glyph glyph-name="parenright" unicode=")" horiz-adv-x="2179" 
d="M1700 2724l364 131q58 -232 58 -520q0 -443 -162.5 -879.5t-435.5 -833.5t-616.5 -755t-731.5 -682l-176 225q335 270 647 610t556.5 720.5t389 792.5t144.5 806q0 189 -37 385z" />
    <glyph glyph-name="asterisk" unicode="*" horiz-adv-x="1630" 
d="M1503 2888l164 -13q53 -5 53 -86q0 -34 -23.5 -93.5t-29.5 -86.5q-16 -74 -16 -115q0 -40 32 -40q55 0 127 28q102 38 137 62t40 24q56 0 61 -33l41 -208v-29q-9 -40 -57 -45h-45q-74 8 -123 8q-148 0 -148 -12q0 -20 38 -60.5t80 -80t68.5 -72t26.5 -58.5q0 -29 -37 -57
l-143 -106q-26 -21 -45 -21q-43 0 -86 168q-46 172 -78 172q-20 0 -55.5 -60.5t-54.5 -115.5q-32 -89 -58 -115q-16 -16 -33 -16q-12 0 -36 16l-152 94q-29 21 -29 62q0 15 99 98q155 140 155 172q0 39 -135 45q-110 4 -159.5 20.5t-49.5 69.5l62 176q13 33 45 33
q19 0 114 -57q17 -11 95.5 -48.5t93.5 -37.5q3 0 12 29v147q-21 108 -29 152v41q20 49 78 49z" />
    <glyph glyph-name="plus" unicode="+" horiz-adv-x="2753" 
d="M717 1434h917v917h230v-917h917v-230h-917v-917h-230v917h-917v230z" />
    <glyph glyph-name="comma" unicode="," horiz-adv-x="1434" 
d="M750 401l127 -12q98 -14 98 -78q0 -67 -106.5 -227.5t-238 -292t-204.5 -131.5q-56 0 -98 49q-38 38 -41 66v24q18 82 59.5 122t102.5 107t137 238q41 95 55 117.5t59 22.5q12 0 25.5 -2.5t24.5 -2.5z" />
    <glyph glyph-name="hyphen" unicode="-" horiz-adv-x="1663" 
d="M475 815l107 156q30 44 53.5 52.5t89.5 8.5q33 0 99 -2t114 -2q167 0 602 53h33q33 -9 33 -41q0 -150 -60 -223t-163.5 -92.5t-280.5 -19.5h-148h-204h-177q-114 8 -114 61q0 25 16 49z" />
    <glyph glyph-name="period" unicode="." horiz-adv-x="1434" 
d="M1118 381h139q127 0 127 -98q0 -59 -45 -135.5t-119 -130.5t-151 -54q-143 4 -143 111q0 105 58 206t134 101z" />
    <glyph glyph-name="slash" unicode="/" horiz-adv-x="2064" 
d="M2437 2867l201 -143q-306 -370 -832 -1069q-75 -101 -299.5 -406.5t-436 -611.5t-466.5 -706.5t-473 -790.5l-360 143q329 489 642 928t559 767.5t447 588t469 600.5q227 288 549 700z" />
    <glyph glyph-name="zero" unicode="0" horiz-adv-x="2064" 
d="M1311 1950l-119 319q296 283 643 283q183 0 309.5 -93t189 -256.5t62.5 -379.5q0 -253 -127 -575.5t-343 -620.5t-477.5 -485t-518.5 -187q-212 0 -393 126.5t-181 524.5q0 366 172.5 762t458.5 737l307 -274q-155 -172 -293.5 -400t-223.5 -465.5t-85 -424.5
q0 -152 76 -236t203 -84q148 0 330.5 185t348.5 467t272 574.5t106 485.5q0 153 -69.5 240.5t-176.5 87.5q-232 0 -471 -311z" />
    <glyph glyph-name="one" unicode="1" horiz-adv-x="2060" 
d="M1311 1700l-86 217q530 144 1093 680l222 -152q-198 -355 -435 -737q-150 -246 -305 -510t-328.5 -578.5t-349.5 -664.5l-352 106q257 519 432.5 813.5t407.5 636.5q166 240 278 422q-307 -156 -577 -233z" />
    <glyph glyph-name="two" unicode="2" horiz-adv-x="2064" 
d="M1765 631l254 -225q-317 -406 -614 -406q-210 0 -479 152q-256 147 -377 147q-65 0 -168 -94l-250 217q113 141 194.5 183.5t190.5 49.5q72 3 338.5 188.5t435.5 323.5q239 195 420.5 383.5t274 333.5t92.5 230q0 217 -176 217q-175 0 -337 -180.5t-278 -393.5l-278 201
q155 289 390.5 474t555.5 185q303 0 397 -149t94 -301q0 -268 -263.5 -584t-644.5 -600.5t-718 -462.5q119 -46 258 -110q173 -95 279 -95q186 0 409 316z" />
    <glyph glyph-name="three" unicode="3" horiz-adv-x="2060" 
d="M152 66l90 241q188 -53 381 -53q296 0 551.5 122.5t405 313t149.5 375.5q0 217 -250 217q-92 0 -226 -57q-18 -7 -163 -58l-119 250q258 94 470 228.5t333.5 278t121.5 259.5q0 71 -40.5 111.5t-102.5 40.5q-232 0 -659 -475l-250 229q214 210 382.5 321.5t301 151
t266.5 39.5q211 0 347 -107t136 -311q0 -241 -198 -413t-441 -275v-45q29 8 91 8q166 0 285.5 -111.5t119.5 -289.5q0 -146 -93 -332t-277.5 -358t-460 -282t-619.5 -110q-272 0 -532 91z" />
    <glyph glyph-name="four" unicode="4" horiz-adv-x="2064" 
d="M1139 2634l315 -156q-106 -177 -200.5 -383t-94.5 -317q0 -193 184 -193q180 0 344 135t295.5 331.5t266.5 455.5l311 -185q-215 -346 -322.5 -541.5t-336.5 -629.5q-230 -437 -321 -621t-228 -530l-340 111q75 186 187 410.5t231.5 433.5t248.5 405q37 55 49.5 74.5
t57.5 89.5l-29 12q-40 -45 -164 -115q-137 -71 -226 -103t-208 -32q-170 0 -275.5 103t-105.5 274q0 134 64 356t297 615z" />
    <glyph glyph-name="five" unicode="5" horiz-adv-x="2064" 
d="M152 -25l12 258q141 -24 274 -24q346 0 623.5 142.5t431.5 367t154 457.5q0 145 -80 191t-162 46q-232 0 -451 -160l-229 136q57 147 209 520q146 352 278 663q325 -41 717 -41q241 0 389 172l291 -229q-99 -128 -245 -199t-390 -71q-258 0 -561 37q-90 -190 -98 -205
q-45 -94 -197 -434l12 -17q144 60 229.5 83.5t205.5 23.5q246 0 370.5 -151t124.5 -382q0 -219 -115 -434t-322.5 -391.5t-481 -279.5t-576.5 -103q-222 0 -413 24z" />
    <glyph glyph-name="six" unicode="6" horiz-adv-x="2064" 
d="M2261 2675l135 -250q-321 -127 -586.5 -310t-464.5 -401.5t-333 -451.5l37 -13q240 209 503 209q179 0 297.5 -68t175 -188.5t56.5 -275.5q0 -166 -79 -343t-218.5 -324t-327.5 -236t-395 -89q-321 0 -508.5 146t-187.5 424q0 213 123 508t362 607t598.5 592t812.5 464z
M1065 188q163 0 305.5 122.5t227.5 300.5t85 323q0 121 -78.5 181.5t-203.5 60.5q-148 0 -297 -102.5t-245.5 -255t-96.5 -281.5q0 -167 85 -258t218 -91z" />
    <glyph glyph-name="seven" unicode="7" horiz-adv-x="2068" 
d="M2523 2355l-967 -1163q307 0 492 -127l-111 -213q-158 53 -352 53q-127 0 -229 -20q-157 -201 -287 -414.5t-311 -548.5l-377 156q62 97 201 303q43 60 114 168q57 80 83.5 118.5t92.5 131.5q-53 106 -53 217q0 67 128.5 118t260.5 62q430 524 955 1028l-21 29
q-398 -185 -737 -185q-215 0 -358.5 55.5t-210 148.5t-66.5 202q0 91 41 172l340 -45q0 -113 93 -173.5t337 -60.5q144 0 345 49.5t380 131.5z" />
    <glyph glyph-name="eight" unicode="8" horiz-adv-x="2060" 
d="M1544 2666l172 -266q-207 -118 -310 -224t-103 -275q0 -205 94 -402q268 128 502.5 289.5t234.5 288.5q0 78 -61.5 116.5t-135.5 38.5q-82 0 -114 -4l-13 291q88 16 181 16q171 0 292.5 -66.5t182.5 -172.5t61 -228q0 -127 -81 -240.5t-216 -213.5t-345 -217t-357 -197
q176 -368 176 -590q0 -182 -110 -331t-294.5 -232.5t-390.5 -83.5q-208 0 -361.5 68t-236 187.5t-82.5 264.5q0 207 189.5 412.5t687.5 447.5q-101 235 -138.5 340.5t-37.5 208.5q0 277 187 472t427 302zM1233 1036q-294 -167 -442 -281.5t-148 -267.5q0 -97 77.5 -159
t188.5 -62q159 0 311 95t152 257q0 92 -29.5 170.5t-109.5 247.5z" />
    <glyph glyph-name="nine" unicode="9" horiz-adv-x="2064" 
d="M504 -94l-139 250q464 180 797 466.5t591 692.5l-37 12q-262 -209 -504 -209q-268 0 -400 157t-132 380q0 227 138 459t375 382t511 150q287 0 489.5 -134.5t202.5 -434.5q0 -275 -141.5 -584t-401.5 -613t-606.5 -557t-742.5 -417zM1700 2388q-172 0 -315.5 -128
t-225.5 -306.5t-82 -306.5q0 -118 84.5 -182t202.5 -64q128 0 279.5 100t255.5 251t104 288q0 156 -77 252t-226 96z" />
    <glyph glyph-name="colon" unicode=":" horiz-adv-x="1434" 
d="M1225 1528h139q127 0 127 -98q0 -59 -45 -135t-118.5 -130.5t-151.5 -54.5q-144 4 -144 111q0 105 58 206t135 101zM709 381h139q127 0 127 -98q0 -59 -45 -135t-119.5 -130.5t-151.5 -54.5q-143 4 -143 111q0 105 58 206t135 101z" />
    <glyph glyph-name="semicolon" unicode=";" horiz-adv-x="1434" 
d="M1225 1528h139q127 0 127 -98q0 -59 -45 -135t-118.5 -130.5t-151.5 -54.5q-144 4 -144 111q0 105 58 206t135 101zM750 401l127 -12q98 -14 98 -78q0 -82 -108 -240.5t-241 -284.5t-196 -126q-53 0 -102 49q-38 38 -41 66v24q4 18 63 87.5t124 166.5t132 250
q27 63 41 83t53 20q12 0 25.5 -2.5t24.5 -2.5z" />
    <glyph glyph-name="less" unicode="&#x3c;" horiz-adv-x="2642" 
d="M672 1458l1876 1086l139 -242l-1667 -963l1667 -962l-139 -246l-1876 1086v241z" />
    <glyph glyph-name="equal" unicode="=" horiz-adv-x="2753" 
d="M717 1778h2064v-230h-2064v230zM717 1090h2064v-230h-2064v230z" />
    <glyph glyph-name="greater" unicode="&#x3e;" horiz-adv-x="2642" 
d="M2789 1217l-1876 -1086l-139 246l1667 962l-1667 963l139 242l1876 -1086v-241z" />
    <glyph glyph-name="question" unicode="?" horiz-adv-x="1778" 
d="M1167 2089l-163 98q-50 30 -50 70v37q12 79 135.5 223.5t310 255.5t378.5 111q153 0 283.5 -72t210 -208t79.5 -318q0 -186 -94.5 -330t-199.5 -224.5t-324 -228.5q-435 -301 -603 -672q-16 -34 -27.5 -58t-26.5 -40t-36 -16q-209 0 -209 65q0 64 35 165t121 238.5
t229.5 293.5t348.5 319q150 120 229.5 193t140 170.5t60.5 210.5q0 105 -64 156.5t-149 51.5q-151 0 -259 -121t-212 -292q-53 -95 -78 -103h-21q-15 4 -45 25zM705 381h139q123 0 123 -98q0 -85 -92.5 -202.5t-219.5 -117.5q-139 0 -139 111q0 81 54.5 194t134.5 113z" />
    <glyph glyph-name="at" unicode="@" horiz-adv-x="3391" 
d="M2286 2048l266 -139l-328 -635q-53 -106 -53 -238q0 -78 44.5 -125t119.5 -47q115 0 242 57t219 199t92 379q0 230 -83.5 432t-238.5 351t-376.5 232t-489.5 83q-330 0 -604 -158t-431 -437.5t-157 -625.5q0 -423 182 -695.5t456 -394.5t554 -122q340 0 606 172l115 -201
q-169 -100 -335.5 -146t-385.5 -46q-322 0 -590.5 103.5t-457 294.5t-289.5 456t-101 579q0 288 100.5 550t290.5 461t457 311t590 112q461 0 785.5 -187.5t484 -496.5t159.5 -668q0 -272 -125 -458t-317 -275.5t-389 -89.5q-176 0 -301 86.5t-125 249.5q0 34 20 147l-16 4
q-400 -446 -717 -446q-117 0 -206 134.5t-89 319.5t101 361t263 312t347.5 215t349.5 79q203 0 320 -131zM1982 1470l189 357q-71 78 -168 78q-181 0 -363.5 -105t-298.5 -268t-116 -324q0 -107 49 -155.5t119 -48.5q63 0 186.5 78t241 190.5t161.5 197.5z" />
    <glyph glyph-name="A" unicode="A" horiz-adv-x="2732" 
d="M3006 2904l357 -168l-647 -1483h237l-106 -241l-226 4l-360 -1041l-393 82l373 959l-525 -4q-189 -245 -337 -416t-306.5 -312t-326.5 -225t-336 -84t-260.5 102t-92.5 255q0 104 68 285.5t141 181.5q13 0 29 -8l229 -127q33 -18 41 -50v-32q-9 -58 -41 -108.5t-32 -84.5
q0 -22 23.5 -43.5t66.5 -21.5q117 0 270.5 138t499.5 529q-198 -14 -471 -90l127 266q19 41 29.5 52t60.5 14l475 29q416 487 524 618q450 534 909 1024zM1917 1262h442q135 319 410 860q64 128 83 166.5t60 119.5l-45 21q-70 -93 -196 -238q-100 -109 -222.5 -259.5
t-531.5 -669.5z" />
    <glyph glyph-name="B" unicode="B" horiz-adv-x="2548" 
d="M1712 2781l324 -168l-295 -508l28 -20q261 255 520 424.5t496 169.5q139 0 237.5 -94t98.5 -275q0 -224 -157 -415.5t-391 -323.5t-468 -195v-33q492 0 492 -425q0 -155 -99.5 -332.5t-279.5 -333t-419 -251t-501 -95.5q-259 0 -434 90l119 217q135 -33 246 -33
q247 0 464.5 115.5t347.5 287t130 322.5q0 295 -250 295q-132 0 -242 -33l-65 238q326 111 575.5 252t381.5 285.5t132 273.5q0 131 -127 131q-142 0 -442 -221q-275 -205 -478 -430t-355.5 -463.5t-397 -689.5t-305.5 -559l-369 94q337 596 611 1084t438 788t259.5 484.5
t174.5 346.5z" />
    <glyph glyph-name="C" unicode="C" horiz-adv-x="2175" 
d="M2126 537l-90 -279q-162 -118 -384.5 -200.5t-430.5 -82.5q-196 0 -357.5 97t-254.5 283.5t-93 443.5q0 385 171 758t449 667t597.5 464.5t601.5 170.5q247 0 387.5 -130t140.5 -316q0 -175 -137 -355.5t-404 -349.5l-294 176q168 110 325.5 275t157.5 278
q0 65 -46 116.5t-147 51.5q-192 0 -436.5 -160.5t-469 -429t-366 -591.5t-141.5 -625q0 -272 120.5 -402.5t371.5 -130.5q159 0 361 80.5t368 190.5z" />
    <glyph glyph-name="D" unicode="D" horiz-adv-x="2605" 
d="M1970 2257l258 -148q-183 -230 -307 -431.5t-270 -473.5q-127 -231 -217 -382t-201 -285q-69 -84 -124.5 -125.5t-55.5 -51.5q0 -27 123 -64.5t217 -37.5q176 0 371 135t362 360.5t267.5 493.5t100.5 522q0 319 -124.5 542.5t-403.5 223.5q-192 0 -374.5 -128
t-399.5 -461l-320 225q496 659 1094 659q247 0 452.5 -131.5t325 -376t119.5 -565.5q0 -268 -103.5 -579t-295.5 -586.5t-454.5 -446t-563.5 -170.5q-117 0 -210.5 24.5t-192 65t-252.5 103.5q-140 -86 -240 -129t-219 -43q-200 0 -221 53l-50 152q0 85 97.5 149.5
t238 100.5t254.5 41q57 0 71.5 -4.5t31.5 -4.5q48 0 145 137.5t186.5 293.5t147.5 270q76 149 166 306t237 364t334 403z" />
    <glyph glyph-name="E" unicode="E" horiz-adv-x="2224" 
d="M2056 840l242 -271q-312 -280 -584 -437t-571 -157q-230 0 -384.5 83.5t-227 207t-72.5 238.5q0 211 155 446.5t656 429.5v33h-33q-161 0 -258.5 100.5t-97.5 264.5q0 196 121.5 394.5t321 360.5t438.5 258.5t458 96.5q134 0 253 -52t193 -156t74 -255q0 -231 -200 -426
l-291 209q123 188 123 237q0 81 -46.5 128.5t-109.5 47.5q-104 0 -268.5 -90.5t-324.5 -232t-265 -296.5t-105 -278q0 -68 56.5 -103.5t124.5 -35.5q170 0 376 119l127 -229q-77 -48 -180 -99q-535 -292 -712 -519.5t-177 -381.5q0 -95 51 -166t171 -71q392 0 966 602z" />
    <glyph glyph-name="F" unicode="F" horiz-adv-x="2167" 
d="M3142 2793l-115 -278q-217 0 -377 4q-86 0 -143.5 -27.5t-129.5 -120.5t-178 -290t-274 -545q105 12 229 12q288 0 451 -57l-201 -324q-165 115 -450 115q-94 0 -168 -12q-198 -389 -394.5 -672t-429.5 -453t-503 -170q-128 0 -232.5 52.5t-165.5 121t-61 109.5
q0 38 25 61l180 197q21 21 41 21q34 0 61 -41q44 -60 129 -110t162 -50q142 0 270 124.5t230.5 303.5t232.5 453q-191 -51 -344 -127l-139 237q130 61 269.5 96t365.5 68q243 455 442 733q88 123 176 262q-90 -10 -234 -50.5t-349 -139t-457 -273.5l-201 320
q214 138 436.5 229t445 141.5t451.5 71.5t486 21q238 0 463 -13z" />
    <glyph glyph-name="G" unicode="G" horiz-adv-x="2339" 
d="M2630 1909l-295 188q86 68 155.5 164.5t69.5 175.5q0 65 -46 116.5t-147 51.5q-192 0 -435 -147.5t-469.5 -397.5t-367.5 -545.5t-141 -576.5q0 -264 116 -357.5t228 -93.5q189 0 369 105t307.5 298t163.5 445l365 -16q-56 -324 -204 -796t-469.5 -899t-805.5 -427
q-186 0 -341.5 83.5t-247 197t-91.5 182.5q0 18 41 45l221 127q10 6 17 10.5t13.5 7.5t18.5 3q25 0 40 -17t34.5 -59t28.5 -60q69 -128 137 -188.5t211 -60.5q145 0 261.5 82t263.5 306.5t376 667.5l-45 21q-163 -188 -317.5 -268t-329.5 -80q-334 0 -542 190t-208 551
q0 355 171.5 702.5t449 623t596.5 435.5t602 160q168 0 287.5 -60.5t180 -163t60.5 -222.5q0 -134 -81.5 -269.5t-200.5 -234.5z" />
    <glyph glyph-name="H" unicode="H" horiz-adv-x="2617" 
d="M2728 541l-115 -312q-148 -88 -339 -158.5t-296 -70.5q-108 0 -183 74t-75 200q0 105 46 247t125 315.5t239 506.5q-401 0 -717 -61q-257 -476 -356 -672q-175 -346 -328 -626l-385 114q278 497 361 639q182 319 258 484q-146 -23 -194.5 -44t-106.5 -56.5t-109 -35.5
q-41 0 -41 70l74 209q18 54 125 96t419 80q40 76 93 181t89.5 178l76.5 153q227 475 417 815l332 -172q-219 -396 -586 -1122q223 29 480 29q64 0 192 -9q34 0 44 11.5t64 115.5t134 238q300 522 532 856l295 -197q-376 -577 -622 -1032q59 -4 192 -20l-102 -246
q-13 3 -119 12h-82q-36 -10 -132.5 -202t-180.5 -411t-84 -288q0 -94 90 -94q70 0 218.5 70.5t256.5 134.5z" />
    <glyph glyph-name="I" unicode="I" horiz-adv-x="1778" 
d="M2367 2740l156 -225q-178 -173 -287 -327t-177 -301.5t-167 -407.5q-91 -247 -187.5 -469.5t-258 -469t-389.5 -414t-504 -167.5q-157 0 -326.5 67t-169.5 138q0 24 9 33l180 258q1 2 5.5 5.5t6.5 10.5q6 13 21 16h16q24 -6 41 -32q161 -185 344 -185q153 0 266 118.5
t175.5 252t201.5 469.5q221 526 326 746.5t222.5 362.5t299.5 243l-21 41q-176 -41 -323 -41q-77 0 -172 20q-207 53 -250 53q-183 0 -291 -131l-233 320q126 98 239.5 124.5t231.5 26.5q80 0 152 -12.5t164 -38.5t126 -35q274 -73 406 -73q81 0 167 24z" />
    <glyph glyph-name="J" unicode="J" horiz-adv-x="1778" 
d="M2367 2740l156 -225q-385 -363 -770 -1360q-185 -483 -342 -823t-334.5 -596t-388.5 -397.5t-467 -141.5q-104 0 -219.5 30t-195.5 78t-80 97q0 25 8 33l180 258l8 8l8 8l17 17h16q16 -4 41 -37q63 -84 157.5 -132.5t186.5 -48.5q114 0 201.5 63.5t153.5 167.5t104.5 192
t134.5 315q134 302 205 463q129 274 229 520q184 435 297.5 659t227.5 356.5t270 217.5l-21 41q-176 -41 -323 -41q-77 0 -172 20q-207 53 -250 53q-183 0 -291 -131l-233 320q126 98 239.5 124.5t231.5 26.5q80 0 152 -12.5t164 -38.5t126 -35q274 -73 406 -73q81 0 167 24
z" />
    <glyph glyph-name="K" unicode="K" horiz-adv-x="2503" 
d="M1634 2732l340 -188l-569 -1016q59 65 135 65q33 0 115 -8h110q310 23 649 418.5t568 847.5l340 -176q-178 -338 -378.5 -575.5t-388 -379t-341.5 -212t-277 -99.5q-109 -26 -146.5 -38.5t-62 -40.5t-24.5 -85q0 -163 39.5 -385t121 -389.5t199.5 -167.5q99 0 261 85
t276 169l-98 -299q-327 -258 -545 -258q-199 0 -339.5 163.5t-210 429t-69.5 566.5q0 164 17 287l-746 -1495l-381 119z" />
    <glyph glyph-name="L" unicode="L" horiz-adv-x="2175" 
d="M1929 528l283 -151q-179 -438 -606 -438q-113 0 -217 24q-46 10 -179.5 45.5t-233 52.5t-210.5 17q-150 0 -286 -32t-341 -95l-82 242q142 50 252 157t205.5 276t192 394t272.5 659q115 280 210.5 472t225 360.5t303.5 270.5t391 102q249 0 415.5 -135t166.5 -402
q0 -223 -107 -383t-217 -256l-299 176q291 194 291 459q0 139 -79 198.5t-191 59.5q-208 0 -320.5 -167t-270 -599t-338.5 -787t-513 -708l21 -29q210 86 372 86q164 0 303 -41q33 -8 101 -27t107 -26.5t83 -7.5q205 0 295 233z" />
    <glyph glyph-name="M" unicode="M" horiz-adv-x="3600" 
d="M3703 537l-103 -279q-105 -108 -280 -195.5t-297 -87.5q-98 0 -168 77.5t-70 250.5q0 112 32 194t108 228q6 13 33.5 69.5t35.5 73.5l-28 17q-78 -83 -185 -201q-112 -126 -268 -281.5t-343.5 -291.5t-314.5 -136q-111 0 -180 77.5t-69 193.5q0 243 233 717l-29 8
q-38 -39 -69 -78q-105 -132 -325 -348t-493 -393t-501 -177q-207 0 -286 103.5t-79 224.5q0 110 50 227t120 193t121 76q25 0 33 -8l209 -144q24 -14 24 -45q0 -29 -41 -70q-65 -69 -65 -131q0 -94 98 -94q215 0 488 226t564 603t557.5 815t483.5 875l336 -192
q-49 -88 -87 -157.5t-89 -162.5q-310 -567 -480.5 -891t-253 -501.5t-110.5 -272.5t-28 -174q0 -110 65 -110q82 0 336 233q285 288 464.5 498t314 409t236.5 377.5t431 763.5l340 -209q-100 -171 -249 -425t-324.5 -574.5t-301 -598.5t-125.5 -397q0 -114 111 -114
q79 0 201.5 67t216.5 142z" />
    <glyph glyph-name="N" unicode="N" horiz-adv-x="2462" 
d="M1585 2847l361 -45q10 -319 25.5 -728t20.5 -553t8 -314.5t3 -428.5l49 -8q112 398 300.5 830t438.5 820t527 640l405 -164q-315 -240 -552 -531t-417 -630.5t-330 -719t-384 -1027.5l-365 41q-41 958 -41 1966l-53 12q-218 -802 -492 -1258t-522.5 -629.5t-468.5 -213.5
l-155 348q324 64 558 275t403 534t360.5 866.5t320.5 917.5z" />
    <glyph glyph-name="O" unicode="O" horiz-adv-x="2503" 
d="M2933 2486l-254 -237q-75 120 -190.5 207.5t-235.5 87.5q-217 0 -455.5 -181.5t-442 -467.5t-329 -600t-125.5 -558q0 -259 122 -367t247 -108q168 0 365 130.5t371 369.5t282 562.5t108 690.5q0 144 -8 213l414 -246q-3 -382 -141.5 -745t-370.5 -649t-509.5 -449.5
t-543.5 -163.5q-216 0 -379.5 107t-252.5 298.5t-89 438.5q0 337 157 695t416.5 655t569.5 475t598 178q136 0 250.5 -34.5t217.5 -108t208 -193.5z" />
    <glyph glyph-name="P" unicode="P" horiz-adv-x="2466" 
d="M983 1847l-246 226q314 398 700 565.5t840 167.5q365 0 563.5 -205.5t198.5 -503.5q0 -180 -111 -358t-322 -315t-492 -195l-148 213q179 38 337 140t252.5 238.5t94.5 272.5q0 96 -30 183t-83 148.5t-124 82.5q-123 -138 -212.5 -280.5t-152.5 -275t-160 -354.5
q-109 -245 -237 -520q-129 -273 -269.5 -498.5t-379.5 -412t-547 -186.5q-172 0 -313.5 77.5t-141.5 135.5q0 45 16 61l148 184q29 41 53 41q23 0 37 -28q14 -23 41 -45q76 -61 131.5 -88t142.5 -27q148 0 278 115t258 342t292 608q349 804 647 1106q22 24 45.5 50t32.5 36
q-235 0 -516 -144.5t-623 -556.5z" />
    <glyph glyph-name="Q" unicode="Q" horiz-adv-x="2503" 
d="M2933 2490l-254 -237q-75 120 -190.5 207.5t-235.5 87.5q-217 0 -455.5 -181.5t-442 -467.5t-329 -600t-125.5 -558q0 -133 47.5 -243t132.5 -173t193 -63q90 0 176 41q-47 61 -97.5 102t-172.5 123l151 226q226 -125 377 -316q185 162 318.5 353t214.5 394t118 412.5
t37 417.5q0 148 -8 217l414 -245q-2 -319 -107 -652.5t-312.5 -626.5t-502.5 -495q259 -335 410 -778l-308 -201q-41 188 -150.5 428t-225.5 399q-179 -86 -369 -86q-184 0 -348.5 94t-268.5 286.5t-104 467.5q0 339 156 695t415.5 654.5t569.5 476t600 177.5
q136 0 250.5 -34.5t217.5 -108t208 -193.5z" />
    <glyph glyph-name="R" unicode="R" horiz-adv-x="3039" 
d="M1040 1847l-249 226q304 369 676.5 551t863.5 182q212 0 384.5 -58.5t292 -158.5t184 -231t64.5 -273q0 -203 -125 -365t-326 -269.5t-433 -160.5q0 -413 60 -712t267 -299q97 0 443 253l-99 -303q-330 -254 -536 -254q-285 0 -394.5 344t-109.5 832q0 168 4 242
q321 48 513 159.5t269.5 242.5t77.5 253q0 161 -96 290t-301 169q-120 -134 -210 -276t-161.5 -291t-161.5 -359q-236 -540 -408.5 -856.5t-424.5 -533t-592 -216.5q-233 0 -356 123q-25 22 -50 37q-10 8 -23 17.5t-19.5 18.5t-6.5 22q0 40 17 61l143 184q30 41 53 41
q19 0 45 -37q39 -53 122 -102t186 -49q147 0 277.5 117t254 334t275.5 569q123 285 225.5 483.5t184 326.5t147 210t127.5 147q14 17 31.5 36.5t29.5 33.5q-235 0 -513.5 -144.5t-621.5 -556.5z" />
    <glyph glyph-name="S" unicode="S" horiz-adv-x="1974" 
d="M115 524l364 217q46 -169 177.5 -305.5t367.5 -136.5q178 0 307.5 79t195.5 198.5t66 234.5q0 114 -69 222.5t-181 236.5q-188 217 -272 362.5t-84 349.5q0 247 115 452.5t310 323t423 117.5q232 0 388 -80.5t234 -213t91 -291.5l-377 -148q0 434 -307 434
q-203 0 -357.5 -144t-154.5 -392q0 -140 69 -250.5t217 -282.5q185 -208 269 -335t84 -308q0 -220 -134.5 -426.5t-377 -334.5t-541.5 -128q-163 0 -308.5 41.5t-282 164.5t-232.5 343z" />
    <glyph glyph-name="T" unicode="T" horiz-adv-x="2052" 
d="M3142 2793l-115 -278q-217 0 -377 4q-112 0 -164 -22.5t-111 -113t-171 -315.5q-148 -293 -369 -721.5t-420 -718t-441 -471.5t-515 -182q-128 0 -232.5 52.5t-165.5 121t-61 109.5q0 38 25 61l180 197q21 21 41 21q34 0 61 -41q44 -60 129 -110t162 -50
q143 0 266.5 121.5t209.5 271t216 406.5q337 672 635 1093q83 112 176 258q-90 -10 -234 -50.5t-349 -139t-457 -273.5l-201 320q214 138 436.5 229t445 141.5t451.5 71.5t486 21q238 0 463 -13z" />
    <glyph glyph-name="U" unicode="U" horiz-adv-x="2515" 
d="M1577 2847l332 -201l-709 -1274q-76 -133 -166.5 -307.5t-158.5 -332t-68 -216.5q0 -78 86 -78q106 0 414 271q295 256 474.5 435.5t325 370.5t298 438.5t429.5 725.5l312 -209q-161 -257 -416 -699t-450 -830.5t-195 -502.5q0 -106 115 -106q157 0 417 205l-102 -279
q-266 -283 -541 -283q-286 0 -286 287q0 259 217 643l-21 21q-58 -59 -135 -135q-92 -98 -239 -233t-322 -271t-333 -224t-261 -88q-250 0 -250 291q0 102 31 195t100 252q113 249 205 445.5t198 400.5t309 575.5t390 712.5z" />
    <glyph glyph-name="V" unicode="V" horiz-adv-x="1741" 
d="M991 2863l418 -106q-76 -533 -229 -1471q-27 -158 -44 -269t-26 -165l45 -12q102 186 139 258q137 266 336 581q239 378 398 607t438 557l307 -217q-259 -283 -501.5 -594t-464.5 -647t-416.5 -685t-378.5 -741l-324 94q23 204 44 416t38 383q112 1177 221 2011z" />
    <glyph glyph-name="W" unicode="W" horiz-adv-x="2986" 
d="M2241 856l49 -16q130 253 277 493.5t322 488.5t373 496.5t437 524.5l319 -217q-373 -361 -736 -818.5t-654.5 -938.5t-456.5 -910l-336 98q55 400 82 561q98 669 131 1070l-37 16q-382 -563 -510 -759.5t-253.5 -444.5t-215.5 -541l-344 94q43 445 53 574
q9 102 14.5 174.5t18.5 230.5q29 314 53 688q11 184 29 418q28 334 41 729l418 -114q-43 -352 -66 -558q-22 -249 -69 -589q-12 -101 -22 -177.5t-23 -199.5q-13 -97 -25 -193.5t-25 -179.5l33 -12q107 206 265 469.5t342.5 526t351.5 446.5l20 438l254 -45l78 45l319 -221
l-340 -365q-75 -750 -99 -935.5t-68 -346.5z" />
    <glyph glyph-name="X" unicode="X" horiz-adv-x="2642" 
d="M2744 537l-102 -291q-279 -246 -520 -246q-153 0 -309.5 142.5t-206.5 615.5q-215 -204 -358 -334t-310 -257.5t-329 -208.5t-290 -81q-109 0 -214 73t-105 259q0 88 17 140.5t65 158.5q16 34 36 74t44 65t59 25q24 0 58 -21l172 -110q53 -38 53 -70q0 -17 -37 -78
q-29 -46 -29 -90q0 -90 82 -90q127 0 672 487q301 273 401 373q17 378 45 652t84 553t150 593l385 -155q-237 -648 -279 -1274q69 65 238 233q113 113 364 348q28 26 92.5 85.5t88.5 82.5q203 199 499 459l299 -184q-107 -84 -258 -197q-181 -135 -439 -353t-497 -433.5
t-399 -368.5q-4 -45 -4 -151q9 -656 311 -656q89 0 224.5 69.5t246.5 160.5z" />
    <glyph glyph-name="Y" unicode="Y" horiz-adv-x="2216" 
d="M1417 2879l336 -180q-297 -502 -390 -757.5t-93 -331.5q0 -115 110 -115q76 0 192.5 64.5t269.5 206.5t340 378t386 555l336 -176q-115 -208 -201 -373t-161.5 -321.5t-157.5 -337.5q-243 -515 -417.5 -810.5t-429 -498t-595.5 -202.5q-202 0 -349.5 93t-226.5 209
t-79 160q0 20 41 45l221 131q23 17 49 17q23 0 38.5 -17.5t33 -55.5t30.5 -62q66 -120 128 -181t200 -61q169 0 308.5 122t260.5 325t336 622q123 238 201 369l-33 28q-179 -215 -443.5 -392t-490.5 -177q-102 0 -196 70t-94 254q0 112 41.5 273.5t160.5 438t338 688.5z" />
    <glyph glyph-name="Z" unicode="Z" horiz-adv-x="2212" 
d="M2298 2462l-21 28q-352 -172 -630 -172q-203 0 -362 114.5t-159 287.5q0 101 74 225l352 -45q-20 -55 -20 -86q0 -188 369 -188q110 0 218 27.5t188.5 65.5t150 81.5t86.5 54.5l241 -221q-416 -378 -942 -1086q451 0 451 -106q0 -35 -20 -87.5t-57 -93t-83 -40.5
q-64 0 -187 16t-198 16q-69 0 -156 -12q-128 -166 -389 -442q-175 -183 -265.5 -268t-233.5 -191l20 -29q216 95 414 95q160 0 336 -46q79 -22 163 -45.5t156 -23.5q208 0 311 237l283 -151q-77 -184 -224 -311t-386 -127q-84 0 -161 14.5t-210.5 48.5t-198.5 47
q-154 29 -270 29q-152 0 -282.5 -31t-340.5 -96l-143 242q168 117 274 221.5t271 294.5q228 267 397 467q-16 64 -16 106q0 117 80.5 193.5t259.5 76.5q335 428 517 616t343 294z" />
    <glyph glyph-name="bracketleft" unicode="[" horiz-adv-x="2064" 
d="M2753 2826l-173 -311q-151 49 -376 49q-86 0 -136 -4l-1093 -2953q-21 -66 -21 -99q0 -125 193 -131h86q123 0 213 17l-86 -221q-76 -12 -221 -21q-191 -12 -197 -12q-184 0 -276.5 75t-92.5 191q0 74 45 201l1115 2924l-54 -8l-61 225q265 119 541 119q393 0 594 -41z
" />
    <glyph glyph-name="backslash" unicode="\" horiz-adv-x="2871" 
d="M815 3117l258 131l1802 -3363l-258 -131z" />
    <glyph glyph-name="bracketright" unicode="]" horiz-adv-x="2294" 
d="M0 -819l176 311q151 -49 369 -49q90 0 143 4l1094 2953q20 62 20 94q0 126 -192 136h-86q-127 0 -213 -17l82 221q76 13 221 21q191 12 201 12q206 0 285 -80t79 -186q0 -74 -45 -201l-1110 -2924l53 8l62 -225q-265 -119 -541 -119q-399 0 -598 41z" />
    <glyph glyph-name="asciicircum" unicode="^" horiz-adv-x="2789" 
d="M1401 2867h803l753 -1028h-442l-713 877l-708 -877h-443z" />
    <glyph glyph-name="underscore" unicode="_" horiz-adv-x="2159" 
d="M0 -803v230h2159v-230h-2159z" />
    <glyph glyph-name="grave" unicode="`" 
d="M1049 2511l155 12q66 0 90 -17t45 -85q46 -139 83 -191t70 -93.5t52 -121.5v-20q-14 -74 -139 -74q-61 0 -171.5 94t-195 214t-84.5 196q0 74 95 86z" />
    <glyph glyph-name="a" unicode="a" horiz-adv-x="1966" 
d="M1749 1524l295 -156l-361 -704q-94 -183 -94 -246q0 -74 53 -74q40 0 187.5 70.5t238.5 122.5l-86 -279q-125 -97 -282.5 -177.5t-253.5 -80.5q-102 0 -165.5 60.5t-63.5 136.5q0 41 14.5 90.5t26.5 79t32 75.5q19 30 25 50l-17 4q-20 -14 -49 -50
q-112 -137 -339.5 -291.5t-409.5 -154.5q-119 0 -223.5 100.5t-104.5 313.5q0 218 200.5 496t483 474.5t496.5 196.5q229 0 352 -147zM1413 885l209 393q-75 86 -184 86q-133 0 -338 -146.5t-359.5 -352.5t-154.5 -365q0 -176 119 -176q71 0 223 99t293 232t192 230z" />
    <glyph glyph-name="b" unicode="b" horiz-adv-x="1769" 
d="M315 -8l-290 78q226 476 483 1081q61 142 131 304.5t132.5 310.5t141.5 340.5t160 396.5l332 -115l-565 -1200l37 -21q427 463 720 463q104 0 224.5 -82.5t120.5 -330.5q0 -171 -110 -387.5t-293 -410.5t-399.5 -314.5t-422.5 -120.5q-203 0 -303 184zM508 352
q45 -60 102 -85t148 -25q122 0 260 95t259.5 241.5t196 298t74.5 249.5q0 160 -127 160q-108 0 -268 -116t-332 -329.5t-313 -488.5z" />
    <glyph glyph-name="c" unicode="c" horiz-adv-x="1438" 
d="M1532 967l-262 155q57 103 57 144q0 21 -23 41t-63 20q-116 0 -272.5 -158.5t-269.5 -372.5t-113 -358q0 -52 42.5 -101.5t125.5 -49.5q218 0 778 250l-90 -279q-222 -100 -370.5 -154t-266.5 -79t-232 -25q-401 0 -401 389q0 208 124.5 427.5t323.5 402t416 291
t394 108.5q143 0 212.5 -89.5t69.5 -217.5q0 -82 -51.5 -176t-128.5 -168z" />
    <glyph glyph-name="d" unicode="d" horiz-adv-x="2044" 
d="M2159 2503l356 -111q-140 -294 -209 -434q-58 -122 -187.5 -389.5t-239 -503t-185.5 -423t-76 -245.5q0 -61 61 -61q38 0 113.5 33.5t345.5 162.5l-82 -278q-130 -77 -327 -165.5t-283 -88.5q-94 0 -151.5 61.5t-57.5 135.5q0 129 94 286l-24 17q-428 -500 -807 -500
q-121 0 -224.5 100.5t-103.5 313.5q0 205 132.5 415t333.5 381t409 273t346 102q180 0 311 -151q235 529 455 1069zM1622 1278q-75 86 -184 86q-152 0 -354.5 -162t-350 -380t-147.5 -359q0 -139 143 -139q114 0 249 92t263.5 241.5t229.5 315.5t151 305z" />
    <glyph glyph-name="e" unicode="e" horiz-adv-x="1413" 
d="M90 520l90 58q60 186 193.5 365t311.5 324t371.5 229.5t360.5 84.5q170 0 249 -79t79 -183q0 -199 -239.5 -427t-952.5 -405q-8 -32 -8 -49q0 -77 66 -122.5t180 -45.5q86 0 213 35.5t256.5 93.5t242.5 125l-90 -266q-177 -114 -412 -186t-415 -72q-120 0 -217.5 48.5
t-151 129.5t-53.5 174l-164 -102zM631 725q524 138 704 442q25 43 25 78q0 74 -70 74q-109 0 -244.5 -102.5t-251.5 -245t-163 -246.5z" />
    <glyph glyph-name="f" unicode="f" horiz-adv-x="1008" 
d="M70 -975l-385 74q135 269 282 622q55 130 352 791q56 123 143 318.5t132 295t139 312.5q-249 -23 -459 -78l50 250q295 57 495 65l123 299q125 307 267.5 440.5t379.5 133.5q174 0 283.5 -104.5t109.5 -293.5q0 -104 -28 -184l-348 -16q36 84 36 172q0 123 -110 123
q-101 0 -149.5 -71t-112.5 -228l-103 -250q364 0 533 -45l-164 -250q-161 45 -336 45q-86 0 -131 -4q-258 -574 -386.5 -876t-219.5 -537q-48 -121 -83 -207t-81 -195q-167 -421 -229 -602z" />
    <glyph glyph-name="g" unicode="g" horiz-adv-x="1839" 
d="M1839 1511l287 -151l-717 -1360q-181 -346 -313 -540.5t-315.5 -310.5t-444.5 -116q-278 0 -508 185l192 286q149 -163 345 -163q149 0 254.5 63.5t180 166.5t179.5 294q199 359 295 487l-37 25q-226 -195 -393 -286t-316 -91q-139 0 -247.5 79.5t-108.5 264.5
q0 241 211.5 535.5t518 498t564.5 203.5q97 0 165.5 -34.5t150.5 -116.5zM1675 1245q-48 107 -159 107q-139 0 -356.5 -153.5t-381.5 -363.5t-164 -368q0 -47 24 -91t83 -44q92 0 262.5 99.5t360 307.5t331.5 506z" />
    <glyph glyph-name="h" unicode="h" horiz-adv-x="1749" 
d="M295 -20l-270 90q96 199 170 363t150 341t163 377q254 587 377 893q40 99 68.5 170.5t51 126t68.5 162.5l332 -115l-741 -1565l32 -24q163 200 294.5 341t271 238t258.5 97q102 0 169.5 -74.5t67.5 -192.5q0 -42 -24.5 -99t-108.5 -207.5t-129 -233.5q-98 -181 -98 -226
q0 -53 49 -53q56 0 405 148l-90 -279q-433 -258 -561 -258q-74 0 -143.5 51.5t-69.5 169.5q0 76 32.5 163.5t85.5 188t136 258.5q74 156 74 177q0 15 -14 30t-39 15q-83 0 -309 -256.5t-421 -513.5q-59 -74 -100 -127.5t-137 -175.5z" />
    <glyph glyph-name="i" unicode="i" horiz-adv-x="975" 
d="M1069 537l-98 -279q-150 -86 -342.5 -172t-284.5 -86q-98 0 -163.5 70t-65.5 176q0 84 61 228.5t213 417.5t438 763l287 -144l-520 -946q-57 -108 -57 -159q0 -46 57 -46t128 27.5t347 149.5zM1237 2408h139q111 0 111 -73q0 -71 -49.5 -151.5t-128.5 -136.5t-158 -56
q-111 0 -127 69v58q27 138 89 214t124 76z" />
    <glyph glyph-name="j" unicode="j" horiz-adv-x="750" 
d="M41 -938l-385 66q34 118 76 238.5t126 321.5t235 520t394 791q152 290 324 648l287 -140q-180 -316 -463 -934q-219 -481 -325 -729.5t-167.5 -428t-101.5 -353.5zM1151 2408h139q107 0 119 -73v-58q-14 -86 -94 -186t-209 -100q-139 0 -139 127q0 84 53.5 187t130.5 103
z" />
    <glyph glyph-name="k" unicode="k" horiz-adv-x="1647" 
d="M303 -33l-278 103q366 737 1048 2433l332 -115l-815 -1737l33 -8q115 132 246 256.5t283 248t318 238.5t316 203l147 -266q-586 -279 -921 -582l12 -20q50 8 94 8q127 0 127 -143q0 -30 -49 -135q-17 -47 -25 -99v-28q11 -74 95 -74q79 0 223 93.5t260 193.5l-90 -279
q-281 -303 -549 -303q-146 0 -210 68.5t-64 169.5q0 98 16 188q7 37 16 69t9 42q0 13 -10.5 26.5t-22.5 13.5q-52 0 -189 -143q-230 -241 -352 -422z" />
    <glyph glyph-name="l" unicode="l" horiz-adv-x="922" 
d="M1040 2507l353 -115q-122 -258 -228.5 -481.5t-201.5 -423.5q-216 -450 -314.5 -674t-123.5 -302.5t-25 -113.5q0 -57 57 -57q72 0 266 102q18 9 193 95l-82 -279q-437 -258 -598 -258q-221 0 -221 238q0 123 45.5 259t146.5 343q100 208 236.5 511t265 602t231.5 554z
" />
    <glyph glyph-name="m" unicode="m" horiz-adv-x="2277" 
d="M807 1630l287 -147l-332 -611l37 -24q61 47 278 258q348 348 545 348q69 0 137 -41t68 -139q0 -106 -156 -328q-77 -111 -123 -164l41 -24q495 495 729 495q62 0 115 -39.5t53 -123.5q0 -120 -164 -385q-41 -68 -95 -148.5t-73.5 -115t-19.5 -60.5q0 -41 37 -41
q26 0 495 197l-90 -279q-206 -112 -330 -173t-200 -85.5t-137 -24.5q-147 0 -185 123q-8 50 -8 70q0 28 8 70q15 60 42 113t73.5 125t77.5 126q34 58 54 90.5t28 50t8 35.5q0 37 -37 37q-56 0 -198 -116.5t-318.5 -310.5t-331.5 -417l-299 82l451 860q0 62 -12 62
q-36 0 -275 -221q-136 -126 -228.5 -221t-196.5 -227.5t-234 -338.5l-303 90z" />
    <glyph glyph-name="n" unicode="n" horiz-adv-x="1806" 
d="M803 1638l262 -131l-340 -684l29 -24q78 101 237.5 262.5t324 283t273.5 121.5t167.5 -74.5t58.5 -183.5q0 -58 -36 -126t-227 -414q-98 -181 -98 -226q0 -53 49 -53q57 0 406 148l-90 -279q-434 -258 -562 -258q-75 0 -144 51t-69 170q0 76 32.5 163.5t85.5 188
t136 258.5q74 156 74 177q0 45 -45 45q-95 0 -385 -328q-248 -276 -324 -369q-112 -141 -323 -376l-270 90z" />
    <glyph glyph-name="o" unicode="o" horiz-adv-x="1548" 
d="M1384 1692l66 -238q-195 -63 -364 -180.5t-290 -260t-186 -282.5t-65 -248q0 -217 180 -217q132 0 262.5 117.5t214.5 317t84 429.5q0 50 -8 140l369 102q16 -87 16 -192q0 -313 -161.5 -586t-406.5 -433.5t-477 -160.5q-446 0 -446 442q0 228 142.5 465.5t418.5 445
t651 339.5z" />
    <glyph glyph-name="p" unicode="p" horiz-adv-x="1724" 
d="M963 2073l270 -131l-565 -1090l41 -25q356 362 532.5 488.5t290.5 126.5q95 0 148 -70.5t53 -150.5q0 -100 -111 -320q-80 -160 -165 -302t-85 -181q0 -53 49 -53q29 0 88 24t147.5 66.5t170.5 81.5l-90 -279q-139 -94 -307.5 -176t-266.5 -82q-116 0 -164.5 61.5
t-48.5 135.5q0 151 164 430q51 86 101.5 166t67.5 111t20 54v33q0 49 -66 49q-103 0 -258 -168q-171 -180 -279 -313t-261.5 -404t-344.5 -724q-77 -184 -103.5 -246.5t-68.5 -159.5l-295 74q224 575 448.5 1098t400.5 897.5t273 565t214 413.5z" />
    <glyph glyph-name="q" unicode="q" horiz-adv-x="1839" 
d="M1835 1511l291 -151q-343 -617 -597 -1106.5t-375 -745.5t-212 -466l-377 122q139 275 256 484.5t202.5 342.5t188.5 279q82 118 99 152l-17 8q-21 -12 -77 -70q-215 -200 -396.5 -280t-300.5 -80q-122 0 -235 76.5t-113 267.5q0 242 211 536.5t515.5 497.5t563.5 203
q183 0 316 -151zM1675 1245q-48 107 -159 107q-129 0 -286.5 -96t-298 -243t-229 -298t-88.5 -248q0 -64 32 -99.5t75 -35.5q65 0 177.5 54t248 164t276.5 288t252 407z" />
    <glyph glyph-name="r" unicode="r" horiz-adv-x="1348" 
d="M741 1634l279 -123l-307 -643l28 -12q218 242 351 370t275 204.5t300 76.5q141 0 225 -90l-225 -389q-76 102 -180 102q-132 0 -344 -184t-417 -432.5t-308 -415.5l-78 -127l-315 90z" />
    <glyph glyph-name="s" unicode="s" horiz-adv-x="1167" 
d="M1552 1257l-254 -118q-54 176 -204 176q-81 0 -135 -46.5t-54 -101.5q0 -42 24 -86t78.5 -126t86.5 -140q86 -158 86 -295q0 -211 -175 -386t-481 -175q-209 0 -327.5 79.5t-118.5 211.5q0 73 37 151l344 45q-33 -42 -33 -102q0 -59 38 -97t105 -38q105 0 175.5 72.5
t70.5 164.5q0 40 -15 83t-38 85.5t-49 84t-86 137.5q-111 185 -111 290q0 123 71.5 234.5t208 180.5t322.5 69q163 0 285.5 -91.5t148.5 -261.5z" />
    <glyph glyph-name="t" unicode="t" horiz-adv-x="1106" 
d="M1130 537l-86 -279q-448 -258 -593 -258q-98 0 -160 64.5t-62 177.5q0 275 488 1163q-234 -11 -393 -62l69 250q40 7 63 11.5t76 13.5q164 34 316 41q206 383 299 528l295 -106q-103 -144 -238 -393q99 4 266 4q165 0 267 -25l-148 -266q-141 37 -225 37q-209 0 -287 -8
q-271 -526 -369 -734.5t-98 -289.5q0 -66 62 -66q60 0 136.5 35t321.5 162z" />
    <glyph glyph-name="u" unicode="u" horiz-adv-x="1802" 
d="M1630 1479l275 -140l-439 -831q-24 -44 -24 -82q0 -66 61 -66q50 0 185 74q94 55 204 103l-90 -279q-123 -79 -317 -168.5t-273 -89.5q-63 0 -115 41t-65 119v73q15 131 225 435l-16 20q-12 -10 -176 -168q-520 -520 -770 -520q-65 0 -122.5 48t-57.5 161q0 79 54 214.5
t195.5 409.5t434.5 822l278 -144l-479 -905q-35 -72 -37 -86v-20q4 -49 45 -49q51 0 119.5 51.5t265.5 234.5q255 239 384 380.5t255 361.5z" />
    <glyph glyph-name="v" unicode="v" horiz-adv-x="1561" 
d="M2077 1540l-49 -242l-283 -106q0 -221 -229.5 -502t-524.5 -485.5t-446 -204.5q-137 0 -255 115t-118 368q0 263 158 598t415 631l291 -172q-122 -147 -233.5 -313t-193 -353.5t-81.5 -345.5q0 -168 119 -168q75 0 243.5 143.5t314.5 327t167 291.5q-69 -24 -217 -24
l-37 209q108 110 167 151t161 41q157 0 229 -110z" />
    <glyph glyph-name="w" unicode="w" horiz-adv-x="2613" 
d="M745 1712l291 -172q-508 -635 -508 -1012q0 -176 127 -176q63 0 174 78t226 191.5t190 205.5q0 631 459 631q123 0 123 -139q0 -57 -16.5 -113t-39.5 -102.5t-57.5 -105t-50.5 -85.5q-94 -164 -94 -381q0 -180 131 -180q55 0 124.5 47.5t190.5 165.5q228 222 310 343
t100 214q-70 -24 -217 -24l-33 209q87 98 156 145t172 47q153 0 225 -110l401 151l-49 -242l-282 -106q0 -167 -137.5 -373.5t-343.5 -393.5t-407 -306t-313 -119q-151 0 -259.5 120.5t-108.5 293.5q-195 -197 -358.5 -305.5t-325.5 -108.5q-157 0 -265 123t-108 360
q0 263 158 598t415 631z" />
    <glyph glyph-name="x" unicode="x" horiz-adv-x="1642" 
d="M745 1745l308 -152q0 -348 16 -594q130 125 222.5 212t162.5 153q87 77 234 217l258 -135q-420 -312 -840 -725q36 -369 225 -369q61 0 195 66.5t211 118.5l-90 -279q-88 -88 -218.5 -173t-228.5 -85q-268 0 -356 528q-22 -27 -44 -52.5t-59 -69.5q-323 -406 -598 -406
q-90 0 -174 54.5t-84 211.5q0 111 25 168l319 156q-20 -72 -20 -131q0 -123 94 -123q57 0 159.5 94.5t332.5 347.5q-58 402 -58 725q0 118 8 242z" />
    <glyph glyph-name="y" unicode="y" horiz-adv-x="1569" 
d="M782 1675l287 -147l-377 -697q-172 -316 -172 -368q0 -57 45 -57h33q70 9 219 127t349 359t407 587l282 -144q-518 -924 -755.5 -1450.5t-337.5 -814.5l-344 74q116 425 553 1143q66 108 147 245l-28 13q-533 -541 -787 -541q-69 0 -128.5 58t-59.5 184q0 182 222 619.5
t445 809.5z" />
    <glyph glyph-name="z" unicode="z" horiz-adv-x="1479" 
d="M504 1364l155 344q223 0 499.5 -79.5t516.5 -203.5l-102 -299q-180 -91 -384 -237.5t-368.5 -301.5t-242.5 -272q152 -57 282 -57q148 0 337.5 42t342.5 114l-86 -258q-181 -78 -392 -117t-357 -39q-408 0 -603 156l50 225q60 90 123.5 154.5t175.5 156.5
q110 94 192 155.5t244 161.5t424 244q-139 57 -318 82.5t-489 28.5z" />
    <glyph glyph-name="braceleft" unicode="{" horiz-adv-x="2159" 
d="M1040 1139v286q166 16 275.5 149t109.5 437q0 82 -8 238t-8 229q0 101 19 210t86 227.5t206.5 201t364.5 90.5v-229q-303 -73 -303 -414q0 -112 12 -229q12 -123 12 -250q0 -187 -47.5 -333t-156.5 -257.5t-295 -196.5v-32q186 -85 295 -196.5t156.5 -257.5t47.5 -333
q0 -127 -12 -250q-12 -115 -12 -229q0 -341 303 -414v-229q-416 19 -546 244.5t-130 484.5q0 75 8 229q8 156 8 238q0 325 -120 448.5t-265 137.5z" />
    <glyph glyph-name="bar" unicode="|" horiz-adv-x="1507" 
d="M1040 -803v4313h246v-4313h-246z" />
    <glyph glyph-name="braceright" unicode="}" horiz-adv-x="2159" 
d="M1937 1425v-286q-245 -20 -315 -215.5t-70 -370.5q0 -98 9 -238q8 -154 8 -229q0 -140 -38 -291t-188 -287t-450 -151v229q303 75 303 414q0 113 -12 229q-13 133 -13 250q0 187 47.5 332.5t157 257.5t295.5 197v32q-273 125 -386.5 312.5t-113.5 474.5q0 117 13 250
q12 117 12 229q0 339 -303 414v229q160 -7 311 -68t258 -221.5t107 -439.5q0 -73 -8 -229q-9 -140 -9 -238q0 -327 120 -448t265 -138z" />
    <glyph glyph-name="asciitilde" unicode="~" horiz-adv-x="2474" 
d="M2163 1556h340q-92 -268 -207 -369.5t-273 -101.5q-167 0 -516 107q-151 49 -274 49q-130 0 -184 -127h-332q35 175 117 275t176.5 140t181.5 40q142 0 332 -53q121 -35 206 -60.5t139 -38t101 -12.5q127 0 193 151z" />
    <glyph glyph-name="afii10051" horiz-adv-x="2724" 
d="M2372 2740l151 -225q-166 -164 -269 -305.5t-162.5 -261t-149.5 -334.5q-94 -228 -156 -357l24 -20q154 118 364.5 202.5t360.5 84.5q435 0 435 -693q0 -258 -132 -544t-352 -535t-480 -402t-499 -153q-160 0 -327.5 64t-167.5 141q0 25 8 33l180 258l8 8q-1 0 9 8
q0 7 16 17h16q16 -4 41 -37q63 -84 157.5 -132.5t186.5 -48.5q142 0 298.5 132t292.5 342.5t217 427t81 372.5q0 252 -61 333t-119 81q-250 0 -766 -414q-208 -379 -450 -601t-574 -222q-157 0 -326.5 67t-169.5 138q0 24 9 33l180 258q1 2 5.5 5.5t6.5 10.5q6 13 21 16h16
q24 -6 41 -32q161 -185 344 -185q117 0 210 71.5t165.5 191t144.5 290t123 295.5q208 502 317 730t228.5 370.5t302.5 243.5l-21 41q-176 -41 -323 -41q-77 0 -172 20q-207 53 -250 53q-183 0 -291 -131l-233 320q126 98 239.5 124.5t231.5 26.5q80 0 152 -12.5t164 -38.5
t126 -35q274 -73 406 -73q85 0 172 24z" />
    <glyph glyph-name="quotesinglbase" unicode="&#x201a;" horiz-adv-x="1434" 
d="M750 401l127 -12q98 -14 98 -78q0 -67 -106.5 -227.5t-238 -292t-204.5 -131.5q-56 0 -98 49q-38 38 -41 66v24q18 82 59.5 122t102.5 107t137 238q41 95 55 117.5t59 22.5q12 0 25.5 -2.5t24.5 -2.5z" />
    <glyph glyph-name="quotedblbase" unicode="&#x201e;" horiz-adv-x="1978" 
d="M750 401l127 -12q48 -4 71 -18.5t23 -67.5q0 -61 -104.5 -221t-234 -291t-206.5 -131q-49 0 -94 41t-45 74q0 37 41 78q68 77 152 211.5t122 234.5q35 107 86 107q37 0 62 -5zM1294 401l127 -12q99 -10 99 -86q0 -64 -105.5 -222.5t-235.5 -289.5t-204 -131
q-50 0 -97 42.5t-47 72.5q0 35 41 78q182 204 295 487q20 42 28 54t38 12q37 0 61 -5z" />
    <glyph glyph-name="ellipsis" unicode="&#x2026;" horiz-adv-x="4301" 
d="M1118 381h139q127 0 127 -98q0 -59 -45 -135.5t-119 -130.5t-151 -54q-143 4 -143 111q0 105 58 206t134 101zM2552 381h139q127 0 127 -98q0 -59 -45 -135.5t-119 -130.5t-151 -54q-144 4 -144 111q0 105 58 206t135 101zM3985 385h140q127 0 127 -102
q0 -58 -44.5 -135.5t-118.5 -131t-153 -53.5q-143 4 -143 111q0 90 54 200.5t138 110.5z" />
    <glyph glyph-name="dagger" unicode="&#x2020;" horiz-adv-x="2236" 
d="M1569 1962l139 569q56 230 315 230q148 0 148 -95q0 -34 -29 -94l-303 -614q271 9 453 29t215 20q73 0 73 -45q0 -42 -39 -119t-99 -139t-124 -70h-77q-255 17 -480 49l-749 -2064q-14 -38 -36 -115t-79 -204q-34 -74 -60.5 -100.5t-103.5 -26.5q-140 0 -178.5 28
t-38.5 82q0 53 19 111t78.5 197.5t78.5 187.5l770 1904q-254 -32 -438 -32q-287 0 -287 102q0 80 59 187.5t154 107.5q55 0 176 -25q133 -27 443 -61z" />
    <glyph glyph-name="perthousand" unicode="&#x2030;" horiz-adv-x="4321" 
d="M2548 2699l241 -192q-353 -419 -693 -887.5t-635.5 -945.5t-502.5 -887l-385 111q100 192 204.5 364t250.5 384t345 477.5t450 588.5q140 181 183.5 235.5t98.5 125.5q99 115 185 233l-17 25q-102 -82 -323 -82q-69 0 -148 37q-16 -171 -124 -306.5t-259.5 -209.5
t-283.5 -74q-168 0 -287 119.5t-119 338.5q0 197 115 360.5t305.5 258t398.5 94.5q58 0 86 -4v-192q-210 -24 -349.5 -118t-206 -219t-66.5 -245q0 -77 32.5 -126.5t69.5 -49.5q144 0 268.5 109.5t124.5 324.5q0 75 -28 152l250 127q56 -58 86 -107q86 -41 249 -41
q217 0 484 221zM2523 729l287 111q57 -89 57 -201q0 -144 -80.5 -315.5t-236 -290.5t-363.5 -119q-193 0 -303 115t-110 290q0 212 117.5 389.5t312.5 279.5t409 102q62 0 90 -5l13 -192q-248 -29 -398 -131.5t-210 -224.5t-60 -222q0 -93 48 -146.5t132 -53.5
q82 0 159 65.5t123 170t46 214.5q0 81 -33 164zM3920 729l287 111q57 -89 57 -201q0 -144 -80.5 -315.5t-236 -290.5t-363.5 -119q-192 0 -303 115t-111 290q0 212 118 390t313 279.5t409 101.5q61 0 90 -5l12 -192q-246 -29 -396.5 -131t-210.5 -225t-60 -222
q0 -94 48.5 -147t131.5 -53q82 0 159 65.5t123 170t46 214.5q0 77 -33 164z" />
    <glyph glyph-name="afii10058" unicode="&#x160;" horiz-adv-x="3330" 
d="M2707 2810l369 -205q-229 -440 -412.5 -792.5t-284 -567.5t-146.5 -365t-46 -274q0 -195 84.5 -263.5t182.5 -68.5q128 0 280.5 123t257.5 315.5t105 389.5q0 97 -29 180q-17 0 -49 -2t-45 -2q-132 0 -299 41l-29 201q50 63 150.5 97t177.5 34q183 0 274 -70
q186 23 361 115l98 -217q-145 -66 -279 -107q41 -157 41 -291q0 -202 -89.5 -401.5t-245 -359t-356.5 -252.5t-411 -93q-286 0 -415 162t-129 391q0 318 217 799l-29 16q-35 -44 -49.5 -61t-34.5 -40t-47 -54q-58 -63 -151 -176q-110 -137 -259 -302t-331.5 -332.5
t-377.5 -285t-351 -117.5q-160 0 -256.5 85t-96.5 235q0 65 29.5 184t77.5 209t102 90q5 0 29 -8l229 -127q33 -15 41 -49v-33q-8 -44 -40.5 -93.5t-32.5 -90.5q0 -66 90 -66q91 0 224 97t265.5 229.5t349.5 366.5q287 309 509 586.5t412.5 575.5t364.5 644z" />
    <glyph glyph-name="guilsinglleft" unicode="&#x2039;" horiz-adv-x="1327" 
d="M1077 1475l193 -177q-146 -143 -233 -228.5t-110 -105.5t-67 -51q-98 -65 -98 -94q0 -25 36 -81t116.5 -164.5t240.5 -323.5l-237 -172q-142 245 -361 561q-98 141 -98 180q0 42 143 168q269 240 475 488z" />
    <glyph glyph-name="afii10059" unicode="&#x152;" horiz-adv-x="3408" 
d="M3686 1696l99 -217q-142 -65 -279 -107q41 -157 41 -291q0 -198 -90 -397t-245 -358t-355.5 -252.5t-411.5 -93.5q-285 0 -414.5 161t-129.5 387q0 190 69.5 412.5t159.5 402.5q-401 0 -717 -61q-257 -476 -356 -672q-175 -346 -328 -626l-385 114q278 497 361 639
q182 319 258 484q-146 -23 -194.5 -44t-106.5 -56.5t-109 -35.5q-41 0 -41 70l74 209q18 54 125 96t419 80q40 76 93 181t89.5 178l76.5 153q227 475 417 815l332 -172q-219 -396 -586 -1122q223 29 480 29q64 0 192 -9q34 0 44 11.5t64 115.5t134 238q300 522 532 856
l295 -197q-351 -546 -627 -1032q-111 -198 -191.5 -351t-145 -324.5t-64.5 -303.5q0 -164 75.5 -248t190.5 -84q128 0 280.5 123t257.5 315.5t105 389.5q0 100 -28 180q-17 0 -49 -2t-45 -2q-132 0 -299 41l-29 201q50 63 150.5 97t177.5 34q183 0 274 -70q186 23 360 115z
" />
    <glyph glyph-name="afii10060" horiz-adv-x="2884" 
d="M2372 2740l151 -225q-177 -174 -284 -324t-189 -323.5t-203 -483.5l29 -16q386 299 696 299q142 0 214.5 -94t72.5 -217q0 -108 -233 -508q-197 -333 -197 -422q0 -111 82 -111q67 0 237.5 67.5t237.5 109.5l-102 -263q-361 -254 -607 -254q-229 0 -229 291
q0 152 66.5 307t224.5 394q119 179 119 282q0 28 -28 53t-75 25q-121 0 -341 -133.5t-376 -271.5q-224 -516 -511.5 -739.5t-573.5 -223.5q-157 0 -326.5 67t-169.5 138q0 24 9 33l180 258q1 2 5.5 5.5t6.5 10.5q6 13 21 16h16q24 -6 41 -32q161 -185 344 -185
q117 0 210 71.5t165.5 191t144.5 290t123 295.5q208 502 317 730t228.5 370.5t302.5 243.5l-21 41q-176 -41 -323 -41q-113 0 -242 41q-122 32 -180 32q-183 0 -291 -131l-233 320q126 98 239.5 124.5t231.5 26.5q80 0 152 -12.5t164 -38.5t126 -35q274 -73 406 -73
q85 0 172 24z" />
    <glyph glyph-name="afii10145" horiz-adv-x="2515" 
d="M1577 2847l332 -201l-709 -1274q-76 -133 -166.5 -307.5t-158.5 -332t-68 -216.5q0 -78 86 -78q106 0 414 271q295 256 474.5 435.5t325 370.5t298 438.5t429.5 725.5l312 -209q-161 -257 -416 -699t-450 -830.5t-195 -502.5q0 -106 115 -106q157 0 417 205l-102 -279
q-266 -283 -541 -283q-286 0 -286 287q0 259 217 643l-21 21q-58 -59 -135 -135q-92 -98 -239 -233t-322 -271t-333 -224t-261 -88q-250 0 -250 291q0 102 31 195t100 252q113 249 205 445.5t198 400.5t309 575.5t390 712.5zM1434 377l172 -66l-447 -1102l-303 140z" />
    <glyph glyph-name="afii10099" horiz-adv-x="1688" 
d="M705 963l20 -5q143 201 331 356.5t369 155.5q168 0 258 -111.5t107 -273.5v-159q-21 -239 -141 -503t-330 -521.5t-497.5 -474.5t-641.5 -365l-74 164q375 206 628.5 436t392 448.5t192 402.5t53.5 331q0 142 -58 196t-122 54q-158 0 -370.5 -243t-485.5 -851l-311 119
l712 1675q-185 -21 -418 -115l13 230q225 86 504 127l221 504l356 -173l-156 -303q115 9 381 9q146 0 308 -41l-193 -283q-246 70 -450 70q-107 0 -168 -4z" />
    <glyph glyph-name="quoteleft" unicode="&#x2018;" 
d="M1372 2073l-127 12q-98 8 -98 82q0 59 104.5 222.5t233 294t207.5 130.5q53 0 98 -37.5t45 -73.5q0 -38 -41 -82q-179 -202 -295 -487q-21 -66 -78 -66q-7 0 -20 2.5t-29 2.5z" />
    <glyph glyph-name="quoteright" unicode="&#x2019;" 
d="M1610 2810l127 -12q98 -18 98 -78q0 -65 -107 -226.5t-237.5 -293.5t-204.5 -132q-48 0 -98 50q-37 35 -41 65v25q18 81 60 121t102.5 106.5t136.5 239.5q17 39 30.5 70.5t32.5 50t52 18.5q7 0 22 -2t27 -2z" />
    <glyph glyph-name="quotedblleft" unicode="&#x201c;" horiz-adv-x="1806" 
d="M1917 2073l-127 8q-94 0 -94 90q0 75 109 231.5t240.5 282t195.5 125.5q51 0 91.5 -37.5t47.5 -73.5v-28q-48 -188 -90.5 -217t-101 -63.5t-124.5 -211.5q-26 -69 -37.5 -90t-44.5 -21q-9 0 -27.5 2.5t-37.5 2.5zM1372 2073l-127 8q-98 7 -98 90q0 55 104 216.5t232 292
t209 130.5q54 0 98.5 -39.5t44.5 -71.5q0 -28 -41 -82q-171 -194 -295 -483q-17 -40 -26 -53t-39 -13q-11 0 -28.5 2.5t-33.5 2.5z" />
    <glyph glyph-name="quotedblright" unicode="&#x201d;" horiz-adv-x="1806" 
d="M1614 2806l127 -8q94 -8 94 -91q0 -155 -369 -524q-106 -115 -176 -115q-48 0 -95.5 39.5t-47.5 71.5q0 34 41 82q172 196 295 483q14 36 24.5 51t40.5 15q11 0 33 -2t33 -2zM2159 2806l127 -8q73 -6 94 -50v-41q-16 -79 -122.5 -237t-228 -280t-190.5 -122
q-54 0 -98.5 39.5t-44.5 71.5q0 33 41 82q203 239 295 483q14 36 24.5 51t40.5 15q11 0 31 -2t31 -2z" />
    <glyph glyph-name="bullet" unicode="&#x2022;" horiz-adv-x="2753" 
d="M1106 1282q0 179 88.5 319t231 217.5t294.5 77.5q179 0 320 -88.5t218 -231t77 -294.5t-77 -294.5t-218 -231t-320 -88.5q-152 0 -294.5 77.5t-231 217.5t-88.5 319z" />
    <glyph glyph-name="emdash" unicode="&#x2013;" horiz-adv-x="2753" 
d="M717 1434h2064v-230h-2064v230z" />
    <glyph glyph-name="endash" unicode="&#x2014;" horiz-adv-x="2810" 
d="M475 758l86 147q21 37 33.5 45t40.5 8h135h193h98q400 0 671.5 11.5t454.5 29t294 29.5t185 12q87 0 87 -65q0 -3 -17 -37l-74 -176q-9 -18 -12 -21l-8 -16q-20 -49 -193 -57q-101 -4 -380.5 -8.5t-635 -8.5t-499.5 -4h-225q-148 0 -199 10t-51 48q0 27 16 53z" />
    <glyph glyph-name="trademark" unicode="&#x2122;" horiz-adv-x="3396" 
d="M938 2654h-442v213h1183v-213h-446v-1155h-295v1155zM2675 1499l-398 1045h-20l12 -177v-868h-291v1368h394l368 -942l33 -139h12l33 139l369 942h389v-1368h-291v868l12 177h-16l-402 -1045h-204z" />
    <glyph glyph-name="afii10106" unicode="&#x161;" horiz-adv-x="2175" 
d="M1466 1675l287 -143q-54 -116 -131 -270q-32 -67 -52 -108t-71 -146q-71 -160 -119 -250q-25 -50 -48 -97.5t-45 -100t-34 -98t-12 -85.5q0 -148 131 -148q129 0 250 94t197.5 220.5t76.5 201.5q0 74 -98 74q-50 0 -102 -37l-54 168q152 103 340 103q138 0 208.5 -86
t70.5 -230q0 -170 -134 -342.5t-337.5 -283.5t-396.5 -111q-205 0 -311.5 126t-106.5 292q0 93 139 327l-37 21q-172 -232 -303.5 -388.5t-284 -267t-305.5 -110.5q-147 0 -223 80.5t-76 185.5q0 110 25 168l319 156q-20 -72 -20 -131q0 -123 94 -123q79 0 226.5 135.5
t318.5 342t337 440t281 421.5z" />
    <glyph glyph-name="guilsinglright" unicode="&#x203a;" horiz-adv-x="1331" 
d="M537 78l-193 176q146 143 237.5 232.5t109.5 105.5t63 47q98 66 98 94q0 25 -37.5 84t-130 182.5t-225.5 303.5l237 172q138 -235 279 -439q184 -276 184 -303q0 -34 -147 -168q-290 -268 -475 -487z" />
    <glyph glyph-name="afii10107" unicode="&#x153;" horiz-adv-x="2327" 
d="M1602 1507l278 -123q-98 -196 -160 -331q-72 -150 -114 -238q-172 -336 -172 -438q0 -148 122 -148q96 0 211 90.5t196 215.5t81 210q0 74 -98 74q-40 0 -103 -37l-49 168q136 103 336 103q283 0 283 -316q0 -171 -137.5 -344.5t-344 -283t-387.5 -109.5
q-208 0 -315 108.5t-107 276.5q0 130 103 336q-118 -9 -283 -49q-168 -40 -278 -78l-308 -623l-331 103l802 1568l283 -131l-332 -647q52 16 262 54q196 28 295 28z" />
    <glyph glyph-name="afii10108" horiz-adv-x="1716" 
d="M1057 2540l356 -173l-156 -303q115 9 381 9q146 0 308 -41l-193 -283q-246 70 -450 70q-107 0 -168 -4l-500 -992l29 -24q56 63 94 98q4 5 86 94q452 475 655 475q107 0 166 -75.5t59 -182.5q0 -54 -34 -128.5t-115 -216.5t-109 -195q-102 -191 -102 -226q0 -16 14 -34.5
t39 -18.5q50 0 402 148l-86 -279q-285 -162 -393 -210t-169 -48q-83 0 -150 56.5t-67 164.5q0 166 254 610q74 130 74 177q0 30 -29 41h-20q-102 -10 -377 -324q-178 -200 -295 -355.5t-225 -369.5l-311 119l712 1675q-185 -21 -418 -115l13 230q225 86 504 127z" />
    <glyph glyph-name="afii10193" unicode="&#x178;" horiz-adv-x="1802" 
d="M1630 1479l275 -140l-439 -831q-24 -44 -24 -82q0 -66 61 -66q50 0 185 74q94 55 204 103l-90 -279q-123 -79 -317 -168.5t-273 -89.5q-63 0 -115 41t-65 119v73q15 131 225 435l-16 20q-12 -10 -176 -168q-520 -520 -770 -520q-65 0 -122.5 48t-57.5 161q0 79 54 214.5
t195.5 409.5t434.5 822l278 -144l-479 -905q-35 -72 -37 -86v-20q4 -49 45 -49q51 0 119.5 51.5t265.5 234.5q255 239 384 380.5t255 361.5zM803 172l172 -66l-344 -843l-295 139z" />
    <glyph glyph-name="afii10062" unicode="&#xa1;" horiz-adv-x="2220" 
d="M1356 2879l336 -180q-297 -502 -390.5 -757t-93.5 -332q0 -115 111 -115q104 0 278 119.5t408.5 389t501.5 695.5l336 -176q-114 -204 -201 -372t-170.5 -341.5t-149.5 -318.5q-243 -515 -416.5 -810t-428.5 -498t-596 -203q-201 0 -348.5 93.5t-227.5 208.5t-80 160
q0 18 41 45l221 131q25 17 50 17q23 0 38.5 -17.5t29.5 -47t34 -70.5q67 -122 128.5 -182t199.5 -60q169 0 308.5 122t260.5 325t336 622q129 248 201 369l-33 28q-178 -213 -444 -391t-490 -178q-103 0 -197 70t-94 254q0 173 111 486.5t430 913.5zM1716 3363l336 12
q0 -127 60.5 -200.5t164.5 -73.5q190 0 451 315l160 -131q-134 -187 -333.5 -304.5t-404.5 -117.5q-215 0 -324.5 138.5t-109.5 361.5z" />
    <glyph glyph-name="afii10110" unicode="&#xa2;" horiz-adv-x="1917" 
d="M782 1675l287 -147l-377 -697q-172 -316 -172 -368q0 -57 45 -57h33q70 9 219 127t349 359t407 587l282 -144q-518 -924 -755.5 -1450.5t-337.5 -814.5l-344 74q116 425 553 1143q66 108 147 245l-28 13q-533 -541 -787 -541q-69 0 -128.5 58t-59.5 184q0 182 222 619.5
t445 809.5zM1028 2417l336 16q0 -279 225 -279q189 0 451 316l164 -131q-45 -45 -86 -90q-298 -328 -656 -328q-434 0 -434 496z" />
    <glyph glyph-name="afii10057" unicode="&#xa3;" horiz-adv-x="1778" 
d="M2367 2740l156 -225q-385 -363 -770 -1360q-185 -483 -342 -823t-334.5 -596t-388.5 -397.5t-467 -141.5q-104 0 -219.5 30t-195.5 78t-80 97q0 25 8 33l180 258l8 8l8 8l17 17h16q16 -4 41 -37q63 -84 157.5 -132.5t186.5 -48.5q114 0 201.5 63.5t153.5 167.5t104.5 192
t134.5 315q134 302 205 463q129 274 229 520q184 435 297.5 659t227.5 356.5t270 217.5l-21 41q-176 -41 -323 -41q-77 0 -172 20q-207 53 -250 53q-183 0 -291 -131l-233 320q126 98 239.5 124.5t231.5 26.5q80 0 152 -12.5t164 -38.5t126 -35q274 -73 406 -73q81 0 167 24
z" />
    <glyph glyph-name="currency" unicode="&#xa4;" horiz-adv-x="3170" 
d="M3121 2654l164 -164l-414 -409q262 -313 262 -725t-262 -725l414 -410l-164 -164l-409 414q-316 -262 -725 -262q-410 0 -725 262l-410 -414l-164 164l414 410q-262 315 -262 725t262 725l-414 409l164 164l410 -413q315 262 725 262q409 0 725 -262zM1069 1356
q0 -274 131.5 -489t344 -334t442.5 -119q172 0 337 67.5t295.5 193.5t207.5 301t77 380q0 207 -77 381.5t-207.5 299.5t-295.5 193t-337 68q-230 0 -442 -118.5t-344 -334.5t-132 -489z" />
    <glyph glyph-name="afii10050" unicode="&#xa5;" horiz-adv-x="2056" 
d="M2474 2507q-72 -94 -127.5 -183t-116 -204.5t-207.5 -403.5q-289 -555 -393 -746t-286 -438t-405 -402t-480 -155q-128 0 -232.5 52.5t-165.5 121t-61 109.5q0 38 25 61l180 197q21 21 41 21q34 0 61 -41q44 -60 129 -110t162 -50q143 0 266.5 121.5t209.5 271t216 406.5
q349 696 811 1351q-90 -10 -234 -50.5t-349 -139t-457 -273.5l-201 320q397 250 794 348t783 98q218 0 594 -16q95 237 184 356h349q-123 -205 -179.5 -323t-111.5 -312q-258 13 -799 13z" />
    <glyph glyph-name="section" unicode="&#xa7;" horiz-adv-x="2351" 
d="M2740 2130l-360 4q16 99 16 111q0 102 -50 163.5t-118 61.5q-113 0 -195.5 -81t-82.5 -255q0 -138 32 -295q18 -85 57.5 -239.5t57 -255.5t17.5 -214q0 -261 -97.5 -488.5t-285.5 -373.5t-441 -174q0 -222 -84 -404t-241 -286t-367 -104q-141 0 -251.5 73t-171 194
t-60.5 261q0 34 8 98h418v-102q0 -95 37.5 -164.5t113.5 -69.5q94 0 162 84t68 224q0 139 -25 286q-18 104 -48 239t-46.5 238.5t-16.5 215.5q0 232 78 454.5t223.5 375t333.5 185.5l74 -241q-168 -63 -243.5 -250t-75.5 -443q0 -37 7.5 -94.5t39.5 -247.5t47 -284
q206 12 326 205.5t120 494.5q0 58 -7.5 126t-22.5 150.5t-27 153.5q-46 244 -62 391t-16 265q0 162 96 309.5t256.5 236.5t335.5 89q131 0 243 -61t178.5 -172t66.5 -251q0 -75 -17 -139z" />
    <glyph glyph-name="afii10023" unicode="&#xa8;" horiz-adv-x="2224" 
d="M2056 840l242 -271q-312 -280 -584 -437t-571 -157q-230 0 -384.5 83.5t-227 207t-72.5 238.5q0 211 155 446.5t656 429.5v33h-33q-161 0 -258.5 100.5t-97.5 264.5q0 196 121.5 394.5t321 360.5t438.5 258.5t458 96.5q134 0 253 -52t193 -156t74 -255q0 -231 -200 -426
l-291 209q123 188 123 237q0 81 -46.5 128.5t-109.5 47.5q-104 0 -268.5 -90.5t-324.5 -232t-265 -296.5t-105 -278q0 -68 56.5 -103.5t124.5 -35.5q170 0 376 119l127 -229q-77 -48 -180 -99q-535 -292 -712 -519.5t-177 -381.5q0 -95 51 -166t171 -71q392 0 966 602z
M1876 3363l135 -4q115 0 115 -70q0 -68 -58 -147q-106 -141 -147 -169t-131 -28q-113 0 -131 70v57q21 93 80.5 192t136.5 99zM2564 3363l135 -4q115 0 115 -70q0 -67 -57 -147q-108 -142 -148.5 -169.5t-130.5 -27.5q-113 0 -131 70v57q21 93 80.5 192t136.5 99z" />
    <glyph glyph-name="copyright" unicode="&#xa9;" horiz-adv-x="3441" 
d="M688 1376q0 317 120.5 584.5t326.5 457.5t462.5 291t524.5 101q265 0 521 -101t463.5 -291.5t328 -456.5t120.5 -585q0 -317 -120.5 -583t-328.5 -457t-463.5 -292t-520.5 -101q-268 0 -524 101t-463 291.5t-327 457.5t-120 583zM918 1376q0 -225 85.5 -441.5
t244.5 -388.5t383 -273t491 -101q266 0 489 101t383 274.5t246 390t86 438.5t-86 439t-244.5 389t-384 274t-489.5 102q-267 0 -491.5 -100.5t-383 -273t-244 -388.5t-85.5 -442zM2327 1602q86 118 86 200q0 49 -35.5 86t-96.5 37q-118 0 -245.5 -123.5t-211 -314.5
t-83.5 -369q0 -138 71.5 -200t145.5 -62q140 0 463 205l106 -172q-363 -283 -631 -283q-110 0 -215.5 49t-174 159.5t-68.5 283.5q0 193 78.5 389t210.5 354t295 252t321 94q135 0 229 -75t94 -216q0 -197 -114 -372z" />
    <glyph glyph-name="afii10053" unicode="&#xaa;" horiz-adv-x="2175" 
d="M2142 594l-106 -336q-120 -87 -262.5 -149.5t-284.5 -95.5t-268 -33q-200 0 -360.5 97.5t-252.5 283.5t-92 438q0 508 291 987t722 776t806 297q249 0 388.5 -130t139.5 -316q0 -140 -78.5 -265.5t-179.5 -214.5l-299 181q80 66 142.5 157.5t62.5 165.5q0 65 -46 116.5
t-147 51.5q-164 0 -382 -129t-430 -356.5t-367 -513.5q275 106 598 106q135 0 221 -49t86 -127q0 -39 -25 -82l-90 -151q-12 -25 -37 -25q-14 0 -90 49q-151 111 -381 111q-163 0 -401 -90q-115 -300 -115 -549q0 -272 120.5 -402.5t371.5 -130.5q117 0 247 42t256.5 115
t241.5 171z" />
    <glyph glyph-name="guillemotleft" unicode="&#xab;" horiz-adv-x="2007" 
d="M1077 1475l193 -177q-146 -143 -233 -228.5t-110 -105.5t-67 -51q-98 -65 -98 -94q0 -25 36 -81t116.5 -164.5t240.5 -323.5l-237 -172q-142 245 -361 561q-98 141 -98 180q0 42 143 168q269 240 475 488zM1769 1421l181 -164q-154 -167 -249.5 -247.5t-165 -128.5
t-69.5 -66q0 -11 349 -442l-238 -176q-157 255 -307 454q-86 119 -86 168q0 37 135 156q257 227 450 446z" />
    <glyph glyph-name="logicalnot" unicode="&#xac;" horiz-adv-x="2753" 
d="M717 1327v229h2064v-798h-246v569h-1818z" />
    <glyph glyph-name="registered" unicode="&#xae;" horiz-adv-x="3441" 
d="M688 1376q0 317 120.5 584.5t326.5 457.5t462.5 291t524.5 101q265 0 521 -101t463.5 -291.5t328 -456.5t120.5 -585q0 -317 -120.5 -583t-328.5 -457t-463.5 -292t-520.5 -101q-268 0 -524 101t-463 291.5t-327 457.5t-120 583zM918 1376q0 -225 85.5 -441.5
t244.5 -388.5t383 -273t491 -101q266 0 489 101t383 274.5t246 390t86 438.5t-86 439t-244.5 389t-384 274t-489.5 102q-267 0 -491.5 -100.5t-383 -273t-244 -388.5t-85.5 -442zM1700 1659l-193 160q170 203 375 296t490 93q162 0 281.5 -58t183 -154.5t63.5 -209.5
q0 -154 -106 -287t-340 -192q0 -105 12 -234q14 -161 74 -176h28q36 8 148 82l98 -172q-136 -92 -201 -122t-131 -30q-86 0 -174 112.5t-88 506.5q0 57 8 205q418 63 418 299q0 72 -50 132.5t-134 63.5q-82 -77 -126 -143t-104 -180q-92 -186 -172 -369
q-78 -193 -146.5 -322t-178.5 -225t-256 -96q-58 0 -90 8l-41 230q43 -9 69 -9q107 0 187.5 78t139 194.5t152.5 334.5q98 221 162.5 328.5t186.5 203.5q-130 -3 -282 -104t-263 -244z" />
    <glyph glyph-name="afii10056" unicode="&#xaf;" horiz-adv-x="1778" 
d="M2367 2740l156 -225q-176 -172 -287.5 -327.5t-177.5 -299t-162 -401.5q-88 -241 -185.5 -465t-262.5 -476t-391.5 -419.5t-503.5 -167.5q-176 0 -336 75t-160 130q0 26 9 33l180 258l8 8l8 8q15 15 17 16h16q18 -6 45 -32q99 -95 168.5 -140t171.5 -45q119 0 211 71
t163.5 187.5t144 287t124.5 294.5q188 446 252.5 591t151.5 299t193 266.5t251 195.5l-21 41q-168 -41 -323 -41q-77 0 -172 20q-27 7 -77.5 22t-93.5 23t-79 8q-183 0 -291 -131l-233 320q126 98 239.5 124.5t231.5 26.5q80 0 152 -12.5t164 -38.5t126 -35q280 -73 406 -73
q81 0 167 24zM2085 3514h156q126 0 126 -77q0 -82 -57.5 -173t-145.5 -151.5t-173 -60.5q-115 0 -140 77v66q12 48 58 147q59 113 96.5 142.5t79.5 29.5zM2683 3518l156 -4q127 0 127 -77q0 -82 -57.5 -172.5t-146 -151.5t-173.5 -61q-115 0 -140 77v66q10 44 58 147
q58 118 93.5 147t82.5 29z" />
    <glyph glyph-name="degree" unicode="&#xb0;" horiz-adv-x="1303" 
d="M1749 2793l-53 -225q-33 8 -99 8q-130 0 -237.5 -65t-168.5 -164.5t-61 -196.5q0 -101 58 -148.5t127 -47.5q111 0 188.5 92.5t77.5 226.5q0 89 -33 164l291 94q41 -103 41 -217q0 -163 -86.5 -301t-223 -217.5t-276.5 -79.5q-196 0 -315 129.5t-119 284.5
q0 150 94.5 310t262.5 265t376 105q87 0 156 -17z" />
    <glyph glyph-name="plusminus" unicode="&#xb1;" horiz-adv-x="2753" 
d="M1864 717h-230v696h-917v229h917v857h230v-857h917v-229h-917v-696zM717 229v230h2064v-230h-2064z" />
    <glyph glyph-name="afii10055" unicode="&#xb2;" horiz-adv-x="1778" 
d="M2367 2740l156 -225q-178 -173 -287 -327t-177 -301.5t-167 -407.5q-91 -247 -187.5 -469.5t-258 -469t-389.5 -414t-504 -167.5q-157 0 -326.5 67t-169.5 138q0 24 9 33l180 258q1 2 5.5 5.5t6.5 10.5q6 13 21 16h16q24 -6 41 -32q161 -185 344 -185q153 0 266 118.5
t175.5 252t201.5 469.5q221 526 326 746.5t222.5 362.5t299.5 243l-21 41q-176 -41 -323 -41q-77 0 -172 20q-207 53 -250 53q-183 0 -291 -131l-233 320q126 98 239.5 124.5t231.5 26.5q80 0 152 -12.5t164 -38.5t126 -35q274 -73 406 -73q81 0 167 24z" />
    <glyph glyph-name="afii10103" unicode="&#xb3;" horiz-adv-x="975" 
d="M1069 537l-98 -279q-150 -86 -342.5 -172t-284.5 -86q-98 0 -163.5 70t-65.5 176q0 84 61 228.5t213 417.5t438 763l287 -144l-520 -946q-57 -108 -57 -159q0 -46 57 -46t128 27.5t347 149.5zM1237 2408h139q111 0 111 -73q0 -71 -49.5 -151.5t-128.5 -136.5t-158 -56
q-111 0 -127 69v58q27 138 89 214t124 76z" />
    <glyph glyph-name="afii10098" unicode="&#xb4;" horiz-adv-x="1356" 
d="M774 1343l-184 5l119 249q254 -24 462 -24q222 0 435 24q52 113 69 226h332q-50 -248 -160 -480q-203 -32 -385 -32q-217 0 -364 12l-652 -1352l-331 103z" />
    <glyph glyph-name="mu" unicode="&#xb5;" horiz-adv-x="2028" 
d="M1855 1479l275 -140l-438 -831q-25 -44 -25 -82q0 -66 62 -66q43 0 168.5 60.5t220.5 116.5l-90 -279q-127 -80 -318.5 -169t-271.5 -89q-185 0 -185 238q0 131 144 303l-29 24q-201 -227 -324.5 -347t-203.5 -169t-140 -49q-68 0 -118 58.5t-50 142.5q0 47 17 94h-41
q-149 -372 -512 -1032l-340 155q649 831 1368 2237l279 -144l-463 -880q-45 -88 -45 -131q0 -90 77 -90q111 0 294.5 182.5t287.5 312.5q263 329 401 574z" />
    <glyph glyph-name="paragraph" unicode="&#xb6;" horiz-adv-x="2154" 
d="M1298 -803v2409q-208 6 -372.5 106t-254 262.5t-89.5 347.5q0 189 89.5 351.5t253.5 261t373 104.5h344v-3842h-344zM1929 -803v3842h344v-3842h-344z" />
    <glyph glyph-name="periodcentered" unicode="&#xb7;" horiz-adv-x="1434" 
d="M934 1102h139q127 0 127 -98q0 -61 -33 -110t-94 -120q-50 -61 -85 -75.5t-103 -14.5q-148 0 -148 111q0 59 33 127q19 44 21 53q48 127 143 127z" />
    <glyph glyph-name="afii10071" unicode="&#xb8;" horiz-adv-x="1409" 
d="M90 520l90 58q60 186 193.5 365t311.5 324t371.5 229.5t360.5 84.5q170 0 249 -79t79 -183q0 -199 -239.5 -427t-952.5 -405q-8 -32 -8 -49q0 -77 66 -122.5t180 -45.5q86 0 213 35.5t256.5 93.5t242.5 125l-90 -266q-177 -114 -412 -186t-415 -72q-120 0 -217.5 48.5
t-151 129.5t-53.5 174l-164 -102zM631 725q524 138 704 442q25 43 25 78q0 74 -70 74q-109 0 -244.5 -102.5t-251.5 -245t-163 -246.5zM1212 2408h140q110 0 110 -73q0 -111 -106.5 -227.5t-229.5 -116.5q-108 0 -127 69v58q27 136 90 213t123 77zM1901 2408h139
q110 0 110 -73q0 -111 -105.5 -227.5t-229.5 -116.5q-109 0 -127 69v58q25 135 88.5 212.5t124.5 77.5z" />
    <glyph glyph-name="afii61352" unicode="&#xb9;" horiz-adv-x="3899" 
d="M1495 2687l344 -57q45 -567 78 -901q52 -531 74 -1012l49 -8q79 308 196.5 619t271.5 610t328.5 544.5t358.5 409.5l414 -160q-286 -207 -503 -480t-386.5 -606.5t-306.5 -700t-345 -982.5l-368 62q-99 909 -135 1851l-54 12q-174 -805 -415 -1240.5t-455 -579.5
t-412 -179l-172 332q300 37 519.5 242t375 531t262 678.5t281.5 1014.5zM3551 1737l49 -226q-206 -23 -356.5 -169.5t-171.5 -391.5v-73q9 -71 58.5 -119.5t109.5 -48.5q77 0 148 62.5t115 169t44 226.5q0 97 -53 201l262 139q86 -117 86 -368q0 -157 -98 -299.5t-252 -229
t-309 -86.5q-137 0 -259 94t-122 275q0 187 91 381t262.5 324.5t395.5 138.5zM3514 344l-131 -315q-319 -25 -983 -25l127 283q86 -4 242 -4q385 0 745 61z" />
    <glyph glyph-name="afii10101" unicode="&#xba;" horiz-adv-x="1434" 
d="M1528 537l-86 -279q-222 -100 -370.5 -154t-266.5 -79t-232 -25q-401 0 -401 389q0 208 124.5 426.5t322.5 401t417 292t394 109.5q143 0 210.5 -79t67.5 -200q0 -109 -49 -200l-373 24q37 37 37 99q0 65 -70 65q-62 0 -107.5 -29.5t-166.5 -121.5q-161 -120 -197.5 -161
t-36.5 -110q143 45 205 45q266 0 340 -102l-205 -217q-128 86 -278 86q-101 0 -172 -25q-49 -112 -49 -254q0 -87 55.5 -119t112.5 -32q204 0 774 250z" />
    <glyph glyph-name="guillemotright" unicode="&#xbb;" horiz-adv-x="2007" 
d="M1212 78l-192 176q146 143 237.5 232.5t109.5 105.5t63 47q98 66 98 94q0 25 -37.5 84t-130 182.5t-225.5 303.5l237 172q138 -235 279 -439q184 -276 184 -303q0 -34 -147 -168q-290 -268 -476 -487zM520 131l-176 164q155 174 245.5 249.5t162 123t71.5 69.5
q0 12 -348 443l238 176q125 -203 307 -455q86 -119 86 -168q0 -40 -135 -155q-245 -215 -451 -447z" />
    <glyph glyph-name="afii10105" unicode="&#xbc;" horiz-adv-x="750" 
d="M41 -938l-385 66q34 118 76 238.5t126 321.5t235 520t394 791q152 290 324 648l287 -140q-180 -316 -463 -934q-219 -481 -325 -729.5t-167.5 -428t-101.5 -353.5zM1151 2408h139q107 0 119 -73v-58q-14 -86 -94 -186t-209 -100q-139 0 -139 127q0 84 53.5 187t130.5 103
z" />
    <glyph glyph-name="afii10054" unicode="&#xbd;" horiz-adv-x="1974" 
d="M115 524l364 217q46 -169 177.5 -305.5t367.5 -136.5q178 0 307.5 79t195.5 198.5t66 234.5q0 114 -69 222.5t-181 236.5q-188 217 -272 362.5t-84 349.5q0 247 115 452.5t310 323t423 117.5q232 0 388 -80.5t234 -213t91 -291.5l-377 -148q0 434 -307 434
q-203 0 -357.5 -144t-154.5 -392q0 -140 69 -250.5t217 -282.5q185 -208 269 -335t84 -308q0 -220 -134.5 -426.5t-377 -334.5t-541.5 -128q-163 0 -308.5 41.5t-282 164.5t-232.5 343z" />
    <glyph glyph-name="afii10102" unicode="&#xbe;" horiz-adv-x="1167" 
d="M1552 1257l-254 -118q-54 176 -204 176q-81 0 -135 -46.5t-54 -101.5q0 -42 24 -86t78.5 -126t86.5 -140q86 -158 86 -295q0 -211 -175 -386t-481 -175q-209 0 -327.5 79.5t-118.5 211.5q0 73 37 151l344 45q-33 -42 -33 -102q0 -59 38 -97t105 -38q105 0 175.5 72.5
t70.5 164.5q0 40 -15 83t-38 85.5t-49 84t-86 137.5q-111 185 -111 290q0 123 71.5 234.5t208 180.5t322.5 69q163 0 285.5 -91.5t148.5 -261.5z" />
    <glyph glyph-name="afii10104" unicode="&#xbf;" horiz-adv-x="1053" 
d="M1110 537l-98 -279q-150 -86 -342.5 -172t-284.5 -86q-98 0 -163.5 70t-65.5 176q0 84 61 228.5t213 417.5t438 763l287 -144l-520 -946q-14 -26 -18 -37t-19 -36q-20 -42 -20 -86q0 -46 57 -46t128 27.5t347 149.5zM942 2408h139q111 0 111 -73q0 -88 -54.5 -167.5
t-134.5 -128t-147 -48.5q-109 0 -127 69v58q25 130 89 210t124 80zM1470 2408h136q114 0 114 -73q0 -79 -52 -159t-132 -132.5t-152 -52.5q-112 0 -131 69v58q26 94 80 192t137 98z" />
    <glyph glyph-name="afii10017" unicode="&#xc0;" horiz-adv-x="2732" 
d="M3006 2904l357 -168l-647 -1483h237l-106 -241l-226 4l-360 -1041l-393 82l373 959l-525 -4q-189 -245 -337 -416t-306.5 -312t-326.5 -225t-336 -84t-260.5 102t-92.5 255q0 104 68 285.5t141 181.5q13 0 29 -8l229 -127q33 -18 41 -50v-32q-9 -58 -41 -108.5t-32 -84.5
q0 -22 23.5 -43.5t66.5 -21.5q117 0 270.5 138t499.5 529q-198 -14 -471 -90l127 266q19 41 29.5 52t60.5 14l475 29q416 487 524 618q450 534 909 1024zM1917 1262h442q135 319 410 860q64 128 83 166.5t60 119.5l-45 21q-70 -93 -196 -238q-100 -109 -222.5 -259.5
t-531.5 -669.5z" />
    <glyph glyph-name="afii10017" unicode="&#x410;" horiz-adv-x="2732" 
d="M3006 2904l357 -168l-647 -1483h237l-106 -241l-226 4l-360 -1041l-393 82l373 959l-525 -4q-189 -245 -337 -416t-306.5 -312t-326.5 -225t-336 -84t-260.5 102t-92.5 255q0 104 68 285.5t141 181.5q13 0 29 -8l229 -127q33 -18 41 -50v-32q-9 -58 -41 -108.5t-32 -84.5
q0 -22 23.5 -43.5t66.5 -21.5q117 0 270.5 138t499.5 529q-198 -14 -471 -90l127 266q19 41 29.5 52t60.5 14l475 29q416 487 524 618q450 534 909 1024zM1917 1262h442q135 319 410 860q64 128 83 166.5t60 119.5l-45 21q-70 -93 -196 -238q-100 -109 -222.5 -259.5
t-531.5 -669.5z" />
    <glyph glyph-name="afii10018" unicode="&#xc1;" horiz-adv-x="2589" 
d="M913 2130l-102 291q252 99 564.5 167.5t623 100t606.5 31.5q464 0 1016 -58l-168 -340q-407 86 -700 86h-512q-212 -301 -449.5 -661.5t-325.5 -521.5l37 -21q170 151 324 227.5t265 96.5t222 20q184 0 280.5 -136.5t96.5 -375.5q0 -291 -201 -552t-506.5 -417.5
t-590.5 -156.5q-259 0 -418 37l131 241q76 -16 164 -16q207 0 393.5 93.5t329 239.5t222 294.5t79.5 249.5q0 102 -50 159.5t-147 57.5q-113 0 -258.5 -78.5t-316.5 -239t-364 -407.5t-396 -578l-361 156q67 104 213.5 337.5t229 367.5t209.5 343q177 291 279.5 452.5
t233 349.5t302.5 415q-414 -68 -955 -254z" />
    <glyph glyph-name="afii10018" unicode="&#x411;" horiz-adv-x="2589" 
d="M913 2130l-102 291q252 99 564.5 167.5t623 100t606.5 31.5q464 0 1016 -58l-168 -340q-407 86 -700 86h-512q-212 -301 -449.5 -661.5t-325.5 -521.5l37 -21q170 151 324 227.5t265 96.5t222 20q184 0 280.5 -136.5t96.5 -375.5q0 -291 -201 -552t-506.5 -417.5
t-590.5 -156.5q-259 0 -418 37l131 241q76 -16 164 -16q207 0 393.5 93.5t329 239.5t222 294.5t79.5 249.5q0 102 -50 159.5t-147 57.5q-113 0 -258.5 -78.5t-316.5 -239t-364 -407.5t-396 -578l-361 156q67 104 213.5 337.5t229 367.5t209.5 343q177 291 279.5 452.5
t233 349.5t302.5 415q-414 -68 -955 -254z" />
    <glyph glyph-name="afii10019" unicode="&#xc2;" horiz-adv-x="2548" 
d="M1712 2781l324 -168l-295 -508l28 -20q261 255 520 424.5t496 169.5q139 0 237.5 -94t98.5 -275q0 -224 -157 -415.5t-391 -323.5t-468 -195v-33q492 0 492 -425q0 -155 -99.5 -332.5t-279.5 -333t-419 -251t-501 -95.5q-259 0 -434 90l119 217q135 -33 246 -33
q247 0 464.5 115.5t347.5 287t130 322.5q0 295 -250 295q-132 0 -242 -33l-65 238q326 111 575.5 252t381.5 285.5t132 273.5q0 131 -127 131q-142 0 -442 -221q-275 -205 -478 -430t-355.5 -463.5t-397 -689.5t-305.5 -559l-369 94q337 596 611 1084t438 788t259.5 484.5
t174.5 346.5z" />
    <glyph glyph-name="afii10019" unicode="&#x412;" horiz-adv-x="2548" 
d="M1712 2781l324 -168l-295 -508l28 -20q261 255 520 424.5t496 169.5q139 0 237.5 -94t98.5 -275q0 -224 -157 -415.5t-391 -323.5t-468 -195v-33q492 0 492 -425q0 -155 -99.5 -332.5t-279.5 -333t-419 -251t-501 -95.5q-259 0 -434 90l119 217q135 -33 246 -33
q247 0 464.5 115.5t347.5 287t130 322.5q0 295 -250 295q-132 0 -242 -33l-65 238q326 111 575.5 252t381.5 285.5t132 273.5q0 131 -127 131q-142 0 -442 -221q-275 -205 -478 -430t-355.5 -463.5t-397 -689.5t-305.5 -559l-369 94q337 596 611 1084t438 788t259.5 484.5
t174.5 346.5z" />
    <glyph glyph-name="afii10020" unicode="&#xc3;" horiz-adv-x="2052" 
d="M3142 2793l-115 -278q-217 0 -377 4q-112 0 -164 -22.5t-111 -113t-171 -315.5q-148 -293 -369 -721.5t-420 -718t-441 -471.5t-515 -182q-128 0 -232.5 52.5t-165.5 121t-61 109.5q0 38 25 61l180 197q21 21 41 21q34 0 61 -41q44 -60 129 -110t162 -50
q143 0 266.5 121.5t209.5 271t216 406.5q337 672 635 1093q83 112 176 258q-90 -10 -234 -50.5t-349 -139t-457 -273.5l-201 320q214 138 436.5 229t445 141.5t451.5 71.5t486 21q238 0 463 -13z" />
    <glyph glyph-name="afii10020" unicode="&#x413;" horiz-adv-x="2052" 
d="M3142 2793l-115 -278q-217 0 -377 4q-112 0 -164 -22.5t-111 -113t-171 -315.5q-148 -293 -369 -721.5t-420 -718t-441 -471.5t-515 -182q-128 0 -232.5 52.5t-165.5 121t-61 109.5q0 38 25 61l180 197q21 21 41 21q34 0 61 -41q44 -60 129 -110t162 -50
q143 0 266.5 121.5t209.5 271t216 406.5q337 672 635 1093q83 112 176 258q-90 -10 -234 -50.5t-349 -139t-457 -273.5l-201 320q214 138 436.5 229t445 141.5t451.5 71.5t486 21q238 0 463 -13z" />
    <glyph glyph-name="afii10021" unicode="&#xc4;" horiz-adv-x="2757" 
d="M1970 2257l258 -148q-183 -230 -307 -431.5t-270 -473.5q-127 -231 -217 -382t-201 -285q-69 -84 -124.5 -125.5t-55.5 -51.5q0 -22 112 -62t228 -40q200 0 422 135t410.5 360t302.5 493.5t114 522.5q0 250 -92 423.5t-247 258t-337 84.5q-193 0 -375.5 -127.5
t-398.5 -461.5l-320 225q155 204 320.5 350.5t359.5 227.5t414 81q174 0 356.5 -61t340.5 -191t255 -336t97 -485q0 -335 -136 -655.5t-366 -574t-511 -400.5t-556 -147q-114 0 -211.5 24.5t-202 66t-241.5 97.5q-140 -86 -240 -129t-219 -43q-200 0 -221 53l-50 152
q0 85 97.5 149.5t238 100.5t254.5 41q57 0 71.5 -4.5t31.5 -4.5q48 0 145 137.5t186.5 293.5t147.5 270q76 149 166 306t237 364t334 403z" />
    <glyph glyph-name="afii10021" unicode="&#x414;" horiz-adv-x="2757" 
d="M1970 2257l258 -148q-183 -230 -307 -431.5t-270 -473.5q-127 -231 -217 -382t-201 -285q-69 -84 -124.5 -125.5t-55.5 -51.5q0 -22 112 -62t228 -40q200 0 422 135t410.5 360t302.5 493.5t114 522.5q0 250 -92 423.5t-247 258t-337 84.5q-193 0 -375.5 -127.5
t-398.5 -461.5l-320 225q155 204 320.5 350.5t359.5 227.5t414 81q174 0 356.5 -61t340.5 -191t255 -336t97 -485q0 -335 -136 -655.5t-366 -574t-511 -400.5t-556 -147q-114 0 -211.5 24.5t-202 66t-241.5 97.5q-140 -86 -240 -129t-219 -43q-200 0 -221 53l-50 152
q0 85 97.5 149.5t238 100.5t254.5 41q57 0 71.5 -4.5t31.5 -4.5q48 0 145 137.5t186.5 293.5t147.5 270q76 149 166 306t237 364t334 403z" />
    <glyph glyph-name="afii10022" unicode="&#xc5;" horiz-adv-x="2224" 
d="M2056 840l242 -271q-312 -280 -584 -437t-571 -157q-230 0 -384.5 83.5t-227 207t-72.5 238.5q0 211 155 446.5t656 429.5v33h-33q-161 0 -258.5 100.5t-97.5 264.5q0 196 121.5 394.5t321 360.5t438.5 258.5t458 96.5q134 0 253 -52t193 -156t74 -255q0 -231 -200 -426
l-291 209q123 188 123 237q0 81 -46.5 128.5t-109.5 47.5q-104 0 -268.5 -90.5t-324.5 -232t-265 -296.5t-105 -278q0 -68 56.5 -103.5t124.5 -35.5q170 0 376 119l127 -229q-77 -48 -180 -99q-535 -292 -712 -519.5t-177 -381.5q0 -95 51 -166t171 -71q392 0 966 602z" />
    <glyph glyph-name="afii10022" unicode="&#x415;" horiz-adv-x="2224" 
d="M2056 840l242 -271q-312 -280 -584 -437t-571 -157q-230 0 -384.5 83.5t-227 207t-72.5 238.5q0 211 155 446.5t656 429.5v33h-33q-161 0 -258.5 100.5t-97.5 264.5q0 196 121.5 394.5t321 360.5t438.5 258.5t458 96.5q134 0 253 -52t193 -156t74 -255q0 -231 -200 -426
l-291 209q123 188 123 237q0 81 -46.5 128.5t-109.5 47.5q-104 0 -268.5 -90.5t-324.5 -232t-265 -296.5t-105 -278q0 -68 56.5 -103.5t124.5 -35.5q170 0 376 119l127 -229q-77 -48 -180 -99q-535 -292 -712 -519.5t-177 -381.5q0 -95 51 -166t171 -71q392 0 966 602z" />
    <glyph glyph-name="afii10024" unicode="&#xc6;" horiz-adv-x="3641" 
d="M1282 2093l-283 262q131 172 325.5 291t399.5 119q153 0 271 -64.5t182 -184t64 -271.5q0 -192 -66 -390l16 -16q425 283 680 528l238 -131q-141 -211 -304 -491t-318.5 -570t-254.5 -491l41 -29q282 282 409 398.5t271 216.5q189 356 428.5 633t426.5 433t292 224
l229 -303q-355 -262 -608 -517.5t-403.5 -479.5t-216.5 -404.5t-66 -310.5q0 -119 55.5 -186.5t149.5 -67.5q93 0 248 81.5t243 155.5l-90 -270q-100 -97 -257.5 -177.5t-291.5 -80.5q-91 0 -184.5 41t-155 131t-61.5 225q0 174 86 394l-24 24q-303 -245 -881 -889l-291 107
q94 197 206 419t244.5 471.5t245 451.5t209.5 370l-24 29q-191 -136 -414 -283q-107 -241 -293.5 -516t-415.5 -516t-465.5 -389t-439.5 -148q-179 0 -249 90t-70 160q0 109 108.5 264t311.5 338.5t497 384t647 389.5q81 170 159.5 386t78.5 307q0 124 -70 178.5t-147 54.5
q-104 0 -221.5 -124t-196.5 -257zM1540 1208l-16 17q-383 -252 -574 -418q-446 -379 -446 -500q0 -47 27 -70.5t55 -23.5q64 0 191 102t214 193q235 251 331 371.5t218 328.5z" />
    <glyph glyph-name="afii10024" unicode="&#x416;" horiz-adv-x="3641" 
d="M1282 2093l-283 262q131 172 325.5 291t399.5 119q153 0 271 -64.5t182 -184t64 -271.5q0 -192 -66 -390l16 -16q425 283 680 528l238 -131q-141 -211 -304 -491t-318.5 -570t-254.5 -491l41 -29q282 282 409 398.5t271 216.5q189 356 428.5 633t426.5 433t292 224
l229 -303q-355 -262 -608 -517.5t-403.5 -479.5t-216.5 -404.5t-66 -310.5q0 -119 55.5 -186.5t149.5 -67.5q93 0 248 81.5t243 155.5l-90 -270q-100 -97 -257.5 -177.5t-291.5 -80.5q-91 0 -184.5 41t-155 131t-61.5 225q0 174 86 394l-24 24q-303 -245 -881 -889l-291 107
q94 197 206 419t244.5 471.5t245 451.5t209.5 370l-24 29q-191 -136 -414 -283q-107 -241 -293.5 -516t-415.5 -516t-465.5 -389t-439.5 -148q-179 0 -249 90t-70 160q0 109 108.5 264t311.5 338.5t497 384t647 389.5q81 170 159.5 386t78.5 307q0 124 -70 178.5t-147 54.5
q-104 0 -221.5 -124t-196.5 -257zM1540 1208l-16 17q-383 -252 -574 -418q-446 -379 -446 -500q0 -47 27 -70.5t55 -23.5q64 0 191 102t214 193q235 251 331 371.5t218 328.5z" />
    <glyph glyph-name="afii10025" unicode="&#xc7;" horiz-adv-x="2081" 
d="M1176 2056l-254 250q231 275 506 414t522 139q244 0 388 -134.5t144 -340.5q0 -145 -91.5 -301t-290 -306.5t-503.5 -269.5v-28q249 0 393 -129.5t144 -399.5q0 -242 -177 -474t-470.5 -376.5t-614.5 -144.5q-199 0 -359 73.5t-250.5 168t-90.5 143.5q0 24 37 61l201 172
q4 0 15 5t26 8q31 0 53 -37q194 -316 487 -316q157 0 328 97.5t284 264t113 355.5t-84.5 273t-189.5 84q-153 0 -291 -45l-94 241q138 56 301.5 136.5t336 198.5t285.5 262.5t113 299.5q0 115 -58 152t-118 37q-150 0 -320 -121t-421 -412z" />
    <glyph glyph-name="afii10025" unicode="&#x417;" horiz-adv-x="2081" 
d="M1176 2056l-254 250q231 275 506 414t522 139q244 0 388 -134.5t144 -340.5q0 -145 -91.5 -301t-290 -306.5t-503.5 -269.5v-28q249 0 393 -129.5t144 -399.5q0 -242 -177 -474t-470.5 -376.5t-614.5 -144.5q-199 0 -359 73.5t-250.5 168t-90.5 143.5q0 24 37 61l201 172
q4 0 15 5t26 8q31 0 53 -37q194 -316 487 -316q157 0 328 97.5t284 264t113 355.5t-84.5 273t-189.5 84q-153 0 -291 -45l-94 241q138 56 301.5 136.5t336 198.5t285.5 262.5t113 299.5q0 115 -58 152t-118 37q-150 0 -320 -121t-421 -412z" />
    <glyph glyph-name="afii10026" unicode="&#xc8;" horiz-adv-x="2515" 
d="M1577 2847l332 -201l-709 -1274q-76 -133 -166.5 -307.5t-158.5 -332t-68 -216.5q0 -78 86 -78q106 0 414 271q295 256 474.5 435.5t325 370.5t298 438.5t429.5 725.5l312 -209q-161 -257 -416 -699t-450 -830.5t-195 -502.5q0 -106 115 -106q157 0 417 205l-102 -279
q-266 -283 -541 -283q-286 0 -286 287q0 259 217 643l-21 21q-58 -59 -135 -135q-92 -98 -239 -233t-322 -271t-333 -224t-261 -88q-250 0 -250 291q0 102 31 195t100 252q113 249 205 445.5t198 400.5t309 575.5t390 712.5z" />
    <glyph glyph-name="afii10026" unicode="&#x418;" horiz-adv-x="2515" 
d="M1577 2847l332 -201l-709 -1274q-76 -133 -166.5 -307.5t-158.5 -332t-68 -216.5q0 -78 86 -78q106 0 414 271q295 256 474.5 435.5t325 370.5t298 438.5t429.5 725.5l312 -209q-161 -257 -416 -699t-450 -830.5t-195 -502.5q0 -106 115 -106q157 0 417 205l-102 -279
q-266 -283 -541 -283q-286 0 -286 287q0 259 217 643l-21 21q-58 -59 -135 -135q-92 -98 -239 -233t-322 -271t-333 -224t-261 -88q-250 0 -250 291q0 102 31 195t100 252q113 249 205 445.5t198 400.5t309 575.5t390 712.5z" />
    <glyph glyph-name="afii10027" unicode="&#xc9;" horiz-adv-x="2515" 
d="M1577 2847l332 -201l-709 -1274q-76 -133 -166.5 -307.5t-158.5 -332t-68 -216.5q0 -78 86 -78q106 0 414 271q295 256 474.5 435.5t325 370.5t298 438.5t429.5 725.5l312 -209q-161 -257 -416 -699t-450 -830.5t-195 -502.5q0 -106 115 -106q157 0 417 205l-102 -279
q-266 -283 -541 -283q-286 0 -286 287q0 259 217 643l-21 21q-58 -59 -135 -135q-92 -98 -239 -233t-322 -271t-333 -224t-261 -88q-250 0 -250 291q0 102 31 195t100 252q113 249 205 445.5t198 400.5t309 575.5t390 712.5zM2032 3363l335 12q0 -127 61 -200.5t165 -73.5
q192 0 450 315l160 -131q-134 -187 -333.5 -304.5t-403.5 -117.5q-215 0 -324.5 138.5t-109.5 361.5z" />
    <glyph glyph-name="afii10027" unicode="&#x419;" horiz-adv-x="2515" 
d="M1577 2847l332 -201l-709 -1274q-76 -133 -166.5 -307.5t-158.5 -332t-68 -216.5q0 -78 86 -78q106 0 414 271q295 256 474.5 435.5t325 370.5t298 438.5t429.5 725.5l312 -209q-161 -257 -416 -699t-450 -830.5t-195 -502.5q0 -106 115 -106q157 0 417 205l-102 -279
q-266 -283 -541 -283q-286 0 -286 287q0 259 217 643l-21 21q-58 -59 -135 -135q-92 -98 -239 -233t-322 -271t-333 -224t-261 -88q-250 0 -250 291q0 102 31 195t100 252q113 249 205 445.5t198 400.5t309 575.5t390 712.5zM2032 3363l335 12q0 -127 61 -200.5t165 -73.5
q192 0 450 315l160 -131q-134 -187 -333.5 -304.5t-403.5 -117.5q-215 0 -324.5 138.5t-109.5 361.5z" />
    <glyph glyph-name="afii10028" unicode="&#xca;" horiz-adv-x="2503" 
d="M1634 2732l340 -188l-569 -1016q59 65 135 65q33 0 115 -8h110q310 23 649 418.5t568 847.5l340 -176q-178 -338 -378.5 -575.5t-388 -379t-341.5 -212t-277 -99.5q-109 -26 -146.5 -38.5t-62 -40.5t-24.5 -85q0 -163 39.5 -385t121 -389.5t199.5 -167.5q99 0 261 85
t276 169l-98 -299q-327 -258 -545 -258q-199 0 -339.5 163.5t-210 429t-69.5 566.5q0 164 17 287l-746 -1495l-381 119z" />
    <glyph glyph-name="afii10028" unicode="&#x41a;" horiz-adv-x="2503" 
d="M1634 2732l340 -188l-569 -1016q59 65 135 65q33 0 115 -8h110q310 23 649 418.5t568 847.5l340 -176q-178 -338 -378.5 -575.5t-388 -379t-341.5 -212t-277 -99.5q-109 -26 -146.5 -38.5t-62 -40.5t-24.5 -85q0 -163 39.5 -385t121 -389.5t199.5 -167.5q99 0 261 85
t276 169l-98 -299q-327 -258 -545 -258q-199 0 -339.5 163.5t-210 429t-69.5 566.5q0 164 17 287l-746 -1495l-381 119z" />
    <glyph glyph-name="afii10029" unicode="&#xcb;" horiz-adv-x="2503" 
d="M2601 537l-98 -279q-139 -106 -311 -196.5t-287 -90.5q-112 0 -195.5 78t-83.5 221q0 91 34 216.5t126 330t254 510.5l-29 16q-35 -44 -49.5 -61t-34.5 -40t-47 -54q-58 -63 -151 -176q-362 -454 -636 -687.5t-427.5 -293.5t-255.5 -60q-205 0 -279 104.5t-74 219.5
q0 65 29.5 184t77.5 209t102 90q5 0 29 -8l229 -127q33 -15 41 -49v-33q-8 -44 -40.5 -93.5t-32.5 -90.5q0 -66 90 -66q91 0 224 97t265.5 229.5t349.5 366.5q287 309 509 586.5t412.5 575.5t364.5 644l369 -205q-276 -528 -490 -951t-334 -682t-164 -386t-44 -193
q0 -82 98 -82q78 0 221.5 76.5t237.5 149.5z" />
    <glyph glyph-name="afii10029" unicode="&#x41b;" horiz-adv-x="2503" 
d="M2601 537l-98 -279q-139 -106 -311 -196.5t-287 -90.5q-112 0 -195.5 78t-83.5 221q0 91 34 216.5t126 330t254 510.5l-29 16q-35 -44 -49.5 -61t-34.5 -40t-47 -54q-58 -63 -151 -176q-362 -454 -636 -687.5t-427.5 -293.5t-255.5 -60q-205 0 -279 104.5t-74 219.5
q0 65 29.5 184t77.5 209t102 90q5 0 29 -8l229 -127q33 -15 41 -49v-33q-8 -44 -40.5 -93.5t-32.5 -90.5q0 -66 90 -66q91 0 224 97t265.5 229.5t349.5 366.5q287 309 509 586.5t412.5 575.5t364.5 644l369 -205q-276 -528 -490 -951t-334 -682t-164 -386t-44 -193
q0 -82 98 -82q78 0 221.5 76.5t237.5 149.5z" />
    <glyph glyph-name="afii10030" unicode="&#xcc;" horiz-adv-x="3600" 
d="M3703 537l-103 -279q-105 -108 -280 -195.5t-297 -87.5q-98 0 -168 77.5t-70 250.5q0 112 32 194t108 228q6 13 33.5 69.5t35.5 73.5l-28 17q-78 -83 -185 -201q-112 -126 -268 -281.5t-343.5 -291.5t-314.5 -136q-111 0 -180 77.5t-69 193.5q0 243 233 717l-29 8
q-38 -39 -69 -78q-105 -132 -325 -348t-493 -393t-501 -177q-207 0 -286 103.5t-79 224.5q0 110 50 227t120 193t121 76q25 0 33 -8l209 -144q24 -14 24 -45q0 -29 -41 -70q-65 -69 -65 -131q0 -94 98 -94q215 0 488 226t564 603t557.5 815t483.5 875l336 -192
q-49 -88 -87 -157.5t-89 -162.5q-310 -567 -480.5 -891t-253 -501.5t-110.5 -272.5t-28 -174q0 -110 65 -110q82 0 336 233q285 288 464.5 498t314 409t236.5 377.5t431 763.5l340 -209q-100 -171 -249 -425t-324.5 -574.5t-301 -598.5t-125.5 -397q0 -114 111 -114
q79 0 201.5 67t216.5 142z" />
    <glyph glyph-name="afii10030" unicode="&#x41c;" horiz-adv-x="3600" 
d="M3703 537l-103 -279q-105 -108 -280 -195.5t-297 -87.5q-98 0 -168 77.5t-70 250.5q0 112 32 194t108 228q6 13 33.5 69.5t35.5 73.5l-28 17q-78 -83 -185 -201q-112 -126 -268 -281.5t-343.5 -291.5t-314.5 -136q-111 0 -180 77.5t-69 193.5q0 243 233 717l-29 8
q-38 -39 -69 -78q-105 -132 -325 -348t-493 -393t-501 -177q-207 0 -286 103.5t-79 224.5q0 110 50 227t120 193t121 76q25 0 33 -8l209 -144q24 -14 24 -45q0 -29 -41 -70q-65 -69 -65 -131q0 -94 98 -94q215 0 488 226t564 603t557.5 815t483.5 875l336 -192
q-49 -88 -87 -157.5t-89 -162.5q-310 -567 -480.5 -891t-253 -501.5t-110.5 -272.5t-28 -174q0 -110 65 -110q82 0 336 233q285 288 464.5 498t314 409t236.5 377.5t431 763.5l340 -209q-100 -171 -249 -425t-324.5 -574.5t-301 -598.5t-125.5 -397q0 -114 111 -114
q79 0 201.5 67t216.5 142z" />
    <glyph glyph-name="afii10031" unicode="&#xcd;" horiz-adv-x="2617" 
d="M2728 541l-115 -312q-148 -88 -339 -158.5t-296 -70.5q-108 0 -183 74t-75 200q0 105 46 247t125 315.5t239 506.5q-401 0 -717 -61q-257 -476 -356 -672q-175 -346 -328 -626l-385 114q278 497 361 639q182 319 258 484q-146 -23 -194.5 -44t-106.5 -56.5t-109 -35.5
q-41 0 -41 70l74 209q18 54 125 96t419 80q40 76 93 181t89.5 178l76.5 153q227 475 417 815l332 -172q-219 -396 -586 -1122q223 29 480 29q64 0 192 -9q34 0 44 11.5t64 115.5t134 238q300 522 532 856l295 -197q-376 -577 -622 -1032q59 -4 192 -20l-102 -246
q-13 3 -119 12h-82q-36 -10 -132.5 -202t-180.5 -411t-84 -288q0 -94 90 -94q70 0 218.5 70.5t256.5 134.5z" />
    <glyph glyph-name="afii10031" unicode="&#x41d;" horiz-adv-x="2617" 
d="M2728 541l-115 -312q-148 -88 -339 -158.5t-296 -70.5q-108 0 -183 74t-75 200q0 105 46 247t125 315.5t239 506.5q-401 0 -717 -61q-257 -476 -356 -672q-175 -346 -328 -626l-385 114q278 497 361 639q182 319 258 484q-146 -23 -194.5 -44t-106.5 -56.5t-109 -35.5
q-41 0 -41 70l74 209q18 54 125 96t419 80q40 76 93 181t89.5 178l76.5 153q227 475 417 815l332 -172q-219 -396 -586 -1122q223 29 480 29q64 0 192 -9q34 0 44 11.5t64 115.5t134 238q300 522 532 856l295 -197q-376 -577 -622 -1032q59 -4 192 -20l-102 -246
q-13 3 -119 12h-82q-36 -10 -132.5 -202t-180.5 -411t-84 -288q0 -94 90 -94q70 0 218.5 70.5t256.5 134.5z" />
    <glyph glyph-name="afii10032" unicode="&#xce;" horiz-adv-x="2503" 
d="M2933 2486l-254 -237q-75 120 -190.5 207.5t-235.5 87.5q-217 0 -455.5 -181.5t-442 -467.5t-329 -600t-125.5 -558q0 -259 122 -367t247 -108q168 0 365 130.5t371 369.5t282 562.5t108 690.5q0 144 -8 213l414 -246q-3 -382 -141.5 -745t-370.5 -649t-509.5 -449.5
t-543.5 -163.5q-216 0 -379.5 107t-252.5 298.5t-89 438.5q0 337 157 695t416.5 655t569.5 475t598 178q136 0 250.5 -34.5t217.5 -108t208 -193.5z" />
    <glyph glyph-name="afii10032" unicode="&#x41e;" horiz-adv-x="2503" 
d="M2933 2486l-254 -237q-75 120 -190.5 207.5t-235.5 87.5q-217 0 -455.5 -181.5t-442 -467.5t-329 -600t-125.5 -558q0 -259 122 -367t247 -108q168 0 365 130.5t371 369.5t282 562.5t108 690.5q0 144 -8 213l414 -246q-3 -382 -141.5 -745t-370.5 -649t-509.5 -449.5
t-543.5 -163.5q-216 0 -379.5 107t-252.5 298.5t-89 438.5q0 337 157 695t416.5 655t569.5 475t598 178q136 0 250.5 -34.5t217.5 -108t208 -193.5z" />
    <glyph glyph-name="afii10033" unicode="&#xcf;" horiz-adv-x="2945" 
d="M4035 2781l-119 -274q-555 24 -975 24q-262 0 -463 -32q-170 -249 -297 -477.5t-387 -739.5q-289 -571 -522 -866.5t-411.5 -384t-377.5 -88.5q-119 0 -232 43t-182 106.5t-69 120.5q0 26 33 57l155 164q23 29 54 29q35 0 77 -49q120 -140 271 -140q109 0 216 82.5
t198.5 210t169.5 271t169 329.5q112 228 213.5 419t187 335.5t178 280t200.5 268.5q-420 -63 -1032 -463l-172 299q132 93 303 175t448 156.5t677 119.5t939 45q410 0 750 -21zM3047 479l-102 -282q-135 -79 -321 -148t-334 -69q-159 0 -215 83.5t-56 182.5q0 153 124.5 447
t311.5 638t364.5 635t281.5 438h315q-13 -25 -49.5 -89t-89.5 -161q-50 -89 -210 -372t-296 -541.5t-235 -489.5t-99 -333q0 -127 115 -127q113 0 495 188z" />
    <glyph glyph-name="afii10033" unicode="&#x41f;" horiz-adv-x="2945" 
d="M4035 2781l-119 -274q-555 24 -975 24q-262 0 -463 -32q-170 -249 -297 -477.5t-387 -739.5q-289 -571 -522 -866.5t-411.5 -384t-377.5 -88.5q-119 0 -232 43t-182 106.5t-69 120.5q0 26 33 57l155 164q23 29 54 29q35 0 77 -49q120 -140 271 -140q109 0 216 82.5
t198.5 210t169.5 271t169 329.5q112 228 213.5 419t187 335.5t178 280t200.5 268.5q-420 -63 -1032 -463l-172 299q132 93 303 175t448 156.5t677 119.5t939 45q410 0 750 -21zM3047 479l-102 -282q-135 -79 -321 -148t-334 -69q-159 0 -215 83.5t-56 182.5q0 153 124.5 447
t311.5 638t364.5 635t281.5 438h315q-13 -25 -49.5 -89t-89.5 -161q-50 -89 -210 -372t-296 -541.5t-235 -489.5t-99 -333q0 -127 115 -127q113 0 495 188z" />
    <glyph glyph-name="afii10034" unicode="&#xd0;" horiz-adv-x="2466" 
d="M983 1847l-246 226q314 398 700 565.5t840 167.5q365 0 563.5 -205.5t198.5 -503.5q0 -180 -111 -358t-322 -315t-492 -195l-148 213q179 38 337 140t252.5 238.5t94.5 272.5q0 96 -30 183t-83 148.5t-124 82.5q-123 -138 -212.5 -280.5t-152.5 -275t-160 -354.5
q-109 -245 -237 -520q-129 -273 -269.5 -498.5t-379.5 -412t-547 -186.5q-172 0 -313.5 77.5t-141.5 135.5q0 45 16 61l148 184q29 41 53 41q23 0 37 -28q14 -23 41 -45q76 -61 131.5 -88t142.5 -27q148 0 278 115t258 342t292 608q349 804 647 1106q22 24 45.5 50t32.5 36
q-235 0 -516 -144.5t-623 -556.5z" />
    <glyph glyph-name="afii10034" unicode="&#x420;" horiz-adv-x="2466" 
d="M983 1847l-246 226q314 398 700 565.5t840 167.5q365 0 563.5 -205.5t198.5 -503.5q0 -180 -111 -358t-322 -315t-492 -195l-148 213q179 38 337 140t252.5 238.5t94.5 272.5q0 96 -30 183t-83 148.5t-124 82.5q-123 -138 -212.5 -280.5t-152.5 -275t-160 -354.5
q-109 -245 -237 -520q-129 -273 -269.5 -498.5t-379.5 -412t-547 -186.5q-172 0 -313.5 77.5t-141.5 135.5q0 45 16 61l148 184q29 41 53 41q23 0 37 -28q14 -23 41 -45q76 -61 131.5 -88t142.5 -27q148 0 278 115t258 342t292 608q349 804 647 1106q22 24 45.5 50t32.5 36
q-235 0 -516 -144.5t-623 -556.5z" />
    <glyph glyph-name="afii10035" unicode="&#xd1;" horiz-adv-x="2175" 
d="M2126 537l-90 -279q-162 -118 -384.5 -200.5t-430.5 -82.5q-196 0 -357.5 97t-254.5 283.5t-93 443.5q0 385 171 758t449 667t597.5 464.5t601.5 170.5q247 0 387.5 -130t140.5 -316q0 -175 -137 -355.5t-404 -349.5l-294 176q168 110 325.5 275t157.5 278
q0 65 -46 116.5t-147 51.5q-192 0 -436.5 -160.5t-469 -429t-366 -591.5t-141.5 -625q0 -272 120.5 -402.5t371.5 -130.5q159 0 361 80.5t368 190.5z" />
    <glyph glyph-name="afii10035" unicode="&#x421;" horiz-adv-x="2175" 
d="M2126 537l-90 -279q-162 -118 -384.5 -200.5t-430.5 -82.5q-196 0 -357.5 97t-254.5 283.5t-93 443.5q0 385 171 758t449 667t597.5 464.5t601.5 170.5q247 0 387.5 -130t140.5 -316q0 -175 -137 -355.5t-404 -349.5l-294 176q168 110 325.5 275t157.5 278
q0 65 -46 116.5t-147 51.5q-192 0 -436.5 -160.5t-469 -429t-366 -591.5t-141.5 -625q0 -272 120.5 -402.5t371.5 -130.5q159 0 361 80.5t368 190.5z" />
    <glyph glyph-name="afii10036" unicode="&#xd2;" horiz-adv-x="3707" 
d="M4768 2765l-111 -266q-289 22 -524.5 37t-477.5 23.5t-513 8.5q-289 0 -656 -33q-270 -422 -553 -987q-211 -418 -342 -655t-295 -450.5t-363 -340.5t-433 -127q-128 0 -243.5 50t-186 121t-70.5 124q0 22 29 49l159 152q35 33 50 33q33 0 57 -37q45 -69 126.5 -124.5
t160.5 -55.5q198 0 361 210t314 502q209 396 364 678t246.5 434.5t146.5 233t108 149.5q-136 -25 -273 -71.5t-325 -142t-422 -244.5l-180 303q276 178 587 288t687 158.5t868 48.5q848 0 1704 -69zM3355 2433q-103 -135 -192.5 -278t-188 -331t-234.5 -468
q-303 -623 -470 -914t-283 -442l-349 78q153 191 284 413t347 664q305 616 457.5 877t243.5 389zM4207 2363q-56 -79 -230 -373.5t-355 -623.5t-308 -593.5t-127 -338.5q0 -131 131 -131q134 0 487 184l-98 -270q-241 -135 -386.5 -188.5t-252.5 -53.5q-279 0 -279 287
q0 391 1065 2130z" />
    <glyph glyph-name="afii10036" unicode="&#x422;" horiz-adv-x="3707" 
d="M4768 2765l-111 -266q-289 22 -524.5 37t-477.5 23.5t-513 8.5q-289 0 -656 -33q-270 -422 -553 -987q-211 -418 -342 -655t-295 -450.5t-363 -340.5t-433 -127q-128 0 -243.5 50t-186 121t-70.5 124q0 22 29 49l159 152q35 33 50 33q33 0 57 -37q45 -69 126.5 -124.5
t160.5 -55.5q198 0 361 210t314 502q209 396 364 678t246.5 434.5t146.5 233t108 149.5q-136 -25 -273 -71.5t-325 -142t-422 -244.5l-180 303q276 178 587 288t687 158.5t868 48.5q848 0 1704 -69zM3355 2433q-103 -135 -192.5 -278t-188 -331t-234.5 -468
q-303 -623 -470 -914t-283 -442l-349 78q153 191 284 413t347 664q305 616 457.5 877t243.5 389zM4207 2363q-56 -79 -230 -373.5t-355 -623.5t-308 -593.5t-127 -338.5q0 -131 131 -131q134 0 487 184l-98 -270q-241 -135 -386.5 -188.5t-252.5 -53.5q-279 0 -279 287
q0 391 1065 2130z" />
    <glyph glyph-name="afii10037" unicode="&#xd3;" horiz-adv-x="2216" 
d="M1417 2879l336 -180q-297 -502 -390 -757.5t-93 -331.5q0 -115 110 -115q76 0 192.5 64.5t269.5 206.5t340 378t386 555l336 -176q-250 -450 -520 -1036q-232 -499 -410 -802t-434 -506.5t-598 -203.5q-200 0 -348 93t-227.5 209.5t-79.5 164.5q0 20 41 45l221 131
q23 17 49 17q23 0 38.5 -17.5t33 -55.5t30.5 -62q66 -120 128 -181t200 -61q169 0 308.5 122t260.5 325t336 622q123 238 201 369l-33 28q-179 -215 -443.5 -392t-490.5 -177q-102 0 -196 70t-94 254q0 112 41.5 273.5t160.5 438t338 688.5z" />
    <glyph glyph-name="afii10037" unicode="&#x423;" horiz-adv-x="2216" 
d="M1417 2879l336 -180q-297 -502 -390 -757.5t-93 -331.5q0 -115 110 -115q76 0 192.5 64.5t269.5 206.5t340 378t386 555l336 -176q-250 -450 -520 -1036q-232 -499 -410 -802t-434 -506.5t-598 -203.5q-200 0 -348 93t-227.5 209.5t-79.5 164.5q0 20 41 45l221 131
q23 17 49 17q23 0 38.5 -17.5t33 -55.5t30.5 -62q66 -120 128 -181t200 -61q169 0 308.5 122t260.5 325t336 622q123 238 201 369l-33 28q-179 -215 -443.5 -392t-490.5 -177q-102 0 -196 70t-94 254q0 112 41.5 273.5t160.5 438t338 688.5z" />
    <glyph glyph-name="afii10038" unicode="&#xd4;" horiz-adv-x="3396" 
d="M2798 2916l237 -147l-225 -393l33 -21q241 185 561 185q257 0 368 -173.5t111 -379.5q0 -159 -101.5 -356t-302.5 -377.5t-509.5 -297t-700.5 -116.5l-12 262q286 12 567 127.5t461 323.5t180 479q0 258 -213 258q-271 0 -537.5 -288t-463.5 -645.5t-379 -750.5
q-80 -178 -316 -663l-372 139q59 135 177 357t248 435.5t226 337.5l-25 29q-177 -145 -362.5 -218t-312.5 -73q-107 0 -210 52t-170 165t-67 283q0 339 211 633t533.5 467.5t623.5 173.5q292 0 492 -242zM2404 2294q-78 151 -311 151q-191 0 -373 -103t-326.5 -263
t-228.5 -329.5t-84 -291.5q0 -100 67 -156.5t163 -56.5q230 0 432.5 156t361 386.5t299.5 506.5z" />
    <glyph glyph-name="afii10038" unicode="&#x424;" horiz-adv-x="3396" 
d="M2798 2916l237 -147l-225 -393l33 -21q241 185 561 185q257 0 368 -173.5t111 -379.5q0 -159 -101.5 -356t-302.5 -377.5t-509.5 -297t-700.5 -116.5l-12 262q286 12 567 127.5t461 323.5t180 479q0 258 -213 258q-271 0 -537.5 -288t-463.5 -645.5t-379 -750.5
q-80 -178 -316 -663l-372 139q59 135 177 357t248 435.5t226 337.5l-25 29q-177 -145 -362.5 -218t-312.5 -73q-107 0 -210 52t-170 165t-67 283q0 339 211 633t533.5 467.5t623.5 173.5q292 0 492 -242zM2404 2294q-78 151 -311 151q-191 0 -373 -103t-326.5 -263
t-228.5 -329.5t-84 -291.5q0 -100 67 -156.5t163 -56.5q230 0 432.5 156t361 386.5t299.5 506.5z" />
    <glyph glyph-name="afii10039" unicode="&#xd5;" horiz-adv-x="2642" 
d="M2744 537l-102 -291q-279 -246 -520 -246q-153 0 -309.5 142.5t-206.5 615.5q-215 -204 -358 -334t-310 -257.5t-329 -208.5t-290 -81q-109 0 -214 73t-105 259q0 88 17 140.5t65 158.5q16 34 36 74t44 65t59 25q24 0 58 -21l172 -110q53 -38 53 -70q0 -17 -37 -78
q-29 -46 -29 -90q0 -90 82 -90q127 0 672 487q301 273 401 373q17 378 45 652t84 553t150 593l385 -155q-237 -648 -279 -1274q69 65 238 233q113 113 364 348q28 26 92.5 85.5t88.5 82.5q203 199 499 459l299 -184q-107 -84 -258 -197q-181 -135 -439 -353t-497 -433.5
t-399 -368.5q-4 -45 -4 -151q9 -656 311 -656q89 0 224.5 69.5t246.5 160.5z" />
    <glyph glyph-name="afii10039" unicode="&#x425;" horiz-adv-x="2642" 
d="M2744 537l-102 -291q-279 -246 -520 -246q-153 0 -309.5 142.5t-206.5 615.5q-215 -204 -358 -334t-310 -257.5t-329 -208.5t-290 -81q-109 0 -214 73t-105 259q0 88 17 140.5t65 158.5q16 34 36 74t44 65t59 25q24 0 58 -21l172 -110q53 -38 53 -70q0 -17 -37 -78
q-29 -46 -29 -90q0 -90 82 -90q127 0 672 487q301 273 401 373q17 378 45 652t84 553t150 593l385 -155q-237 -648 -279 -1274q69 65 238 233q113 113 364 348q28 26 92.5 85.5t88.5 82.5q203 199 499 459l299 -184q-107 -84 -258 -197q-181 -135 -439 -353t-497 -433.5
t-399 -368.5q-4 -45 -4 -151q9 -656 311 -656q89 0 224.5 69.5t246.5 160.5z" />
    <glyph glyph-name="afii10040" unicode="&#xd6;" horiz-adv-x="2757" 
d="M2601 582l213 -148q-241 -449 -344 -655.5t-217 -483.5l-389 87q179 317 401 593q106 130 160 205l-29 41q-306 -246 -471 -246q-139 0 -198.5 93.5t-59.5 185.5q0 159 131 422q16 30 33.5 68t19.5 42q24 52 66 127l-49 25q-218 -228 -398 -399.5t-339 -299t-292 -196
t-237 -68.5q-125 0 -191.5 86.5t-66.5 217.5q0 122 130.5 439t329.5 722t398 778t338 612l328 -176q-286 -511 -506.5 -924.5t-321.5 -618.5t-144 -304.5t-73 -183.5q-24 -82 -24 -123q0 -70 82 -70q90 0 310.5 168t499 470t571 724.5t519.5 898.5l320 -184
q-45 -81 -246 -434q-119 -204 -316.5 -574.5t-336 -668t-138.5 -384.5q0 -38 32 -74t95 -36q77 0 161 51.5t249 194.5z" />
    <glyph glyph-name="afii10040" unicode="&#x426;" horiz-adv-x="2757" 
d="M2601 582l213 -148q-241 -449 -344 -655.5t-217 -483.5l-389 87q179 317 401 593q106 130 160 205l-29 41q-306 -246 -471 -246q-139 0 -198.5 93.5t-59.5 185.5q0 159 131 422q16 30 33.5 68t19.5 42q24 52 66 127l-49 25q-218 -228 -398 -399.5t-339 -299t-292 -196
t-237 -68.5q-125 0 -191.5 86.5t-66.5 217.5q0 122 130.5 439t329.5 722t398 778t338 612l328 -176q-286 -511 -506.5 -924.5t-321.5 -618.5t-144 -304.5t-73 -183.5q-24 -82 -24 -123q0 -70 82 -70q90 0 310.5 168t499 470t571 724.5t519.5 898.5l320 -184
q-45 -81 -246 -434q-119 -204 -316.5 -574.5t-336 -668t-138.5 -384.5q0 -38 32 -74t95 -36q77 0 161 51.5t249 194.5z" />
    <glyph glyph-name="afii10041" unicode="&#xd7;" horiz-adv-x="2249" 
d="M1298 2879l328 -184q-467 -727 -467 -901q0 -51 37 -105.5t160 -54.5q135 0 268.5 82.5t266.5 230.5t255.5 325t286.5 440l332 -185q-100 -147 -272.5 -449.5t-340 -626.5t-285.5 -597t-118 -375q0 -79 48 -113t95 -34q70 0 271 110q96 55 188 103l-102 -275
q-354 -270 -590 -270q-136 0 -236 91t-100 241q0 174 114 482t464 792q62 84 77 106l-41 29q-60 -55 -102 -86q-132 -104 -228.5 -171.5t-219.5 -118t-248 -50.5q-206 0 -300 116.5t-94 247.5q0 184 250 660q172 322 303 540z" />
    <glyph glyph-name="afii10041" unicode="&#x427;" horiz-adv-x="2249" 
d="M1298 2879l328 -184q-467 -727 -467 -901q0 -51 37 -105.5t160 -54.5q135 0 268.5 82.5t266.5 230.5t255.5 325t286.5 440l332 -185q-100 -147 -272.5 -449.5t-340 -626.5t-285.5 -597t-118 -375q0 -79 48 -113t95 -34q70 0 271 110q96 55 188 103l-102 -275
q-354 -270 -590 -270q-136 0 -236 91t-100 241q0 174 114 482t464 792q62 84 77 106l-41 29q-60 -55 -102 -86q-132 -104 -228.5 -171.5t-219.5 -118t-248 -50.5q-206 0 -300 116.5t-94 247.5q0 184 250 660q172 322 303 540z" />
    <glyph glyph-name="afii10042" unicode="&#xd8;" horiz-adv-x="3600" 
d="M3703 487l-103 -290q-109 -93 -257.5 -157.5t-266.5 -64.5q-104 0 -181 66t-77 188q0 206 160 508l-49 17q-58 -58 -119 -123q-145 -150 -326 -300t-360 -253t-305 -103q-242 0 -242 242q0 115 50.5 240t170.5 342l-45 20q-322 -349 -613 -596.5t-522 -247.5
q-110 0 -192 64.5t-82 189.5q0 136 151 492t369 786t404.5 774.5t287.5 524.5l328 -180q-185 -342 -488 -905t-418 -787t-159.5 -327.5t-44.5 -139.5q0 -33 23 -61.5t63 -28.5q52 0 139 65q243 178 404 323t336.5 368t402 589t549.5 957l328 -189q-132 -215 -386 -659
t-458.5 -851t-204.5 -525q0 -111 74 -111q59 0 197 98q253 186 445 382.5t362.5 431.5t328 493.5t449.5 757.5l319 -205q-302 -506 -451 -765.5t-239 -436.5t-127.5 -274.5t-91.5 -268.5q-29 -97 -29 -135q0 -36 25.5 -69.5t77.5 -33.5q82 0 393 168z" />
    <glyph glyph-name="afii10042" unicode="&#x428;" horiz-adv-x="3600" 
d="M3703 487l-103 -290q-109 -93 -257.5 -157.5t-266.5 -64.5q-104 0 -181 66t-77 188q0 206 160 508l-49 17q-58 -58 -119 -123q-145 -150 -326 -300t-360 -253t-305 -103q-242 0 -242 242q0 115 50.5 240t170.5 342l-45 20q-322 -349 -613 -596.5t-522 -247.5
q-110 0 -192 64.5t-82 189.5q0 136 151 492t369 786t404.5 774.5t287.5 524.5l328 -180q-185 -342 -488 -905t-418 -787t-159.5 -327.5t-44.5 -139.5q0 -33 23 -61.5t63 -28.5q52 0 139 65q243 178 404 323t336.5 368t402 589t549.5 957l328 -189q-132 -215 -386 -659
t-458.5 -851t-204.5 -525q0 -111 74 -111q59 0 197 98q253 186 445 382.5t362.5 431.5t328 493.5t449.5 757.5l319 -205q-302 -506 -451 -765.5t-239 -436.5t-127.5 -274.5t-91.5 -268.5q-29 -97 -29 -135q0 -36 25.5 -69.5t77.5 -33.5q82 0 393 168z" />
    <glyph glyph-name="afii10043" unicode="&#xd9;" horiz-adv-x="3834" 
d="M1585 2802l320 -185q-334 -534 -725 -1257q-186 -347 -287.5 -557t-101.5 -316q0 -41 25.5 -67.5t55.5 -26.5q59 0 199 76.5t375 308.5t562 700t704 1184l344 -192q-341 -564 -561.5 -955.5t-332.5 -618.5t-143.5 -321t-31.5 -137q0 -75 65 -86h29q124 13 234 65.5
t300 253t495 648t720 1167.5l348 -180q-314 -538 -515 -902.5t-289.5 -546t-117 -267.5t-32.5 -139v-54q9 -90 98 -90q85 0 214 81t232 173l217 -143q-240 -401 -371.5 -649t-238.5 -506l-373 123q154 280 402 585q109 135 151 193l-32 20q-62 -41 -122 -79t-111 -65
t-112.5 -46t-117.5 -19q-242 0 -242 242q0 198 172 528l-41 17q-293 -319 -594 -553t-528 -234q-100 0 -171 56t-71 153q0 175 172 516q15 29 26 50t27 53l-49 8q-61 -66 -86 -94q-154 -169 -338 -335.5t-379.5 -286.5t-343.5 -120q-108 0 -189 68.5t-81 206.5
q0 101 41.5 242.5t160.5 395t351 685.5q187 349 264 491t183 327.5t241 410.5z" />
    <glyph glyph-name="afii10043" unicode="&#x429;" horiz-adv-x="3834" 
d="M1585 2802l320 -185q-334 -534 -725 -1257q-186 -347 -287.5 -557t-101.5 -316q0 -41 25.5 -67.5t55.5 -26.5q59 0 199 76.5t375 308.5t562 700t704 1184l344 -192q-341 -564 -561.5 -955.5t-332.5 -618.5t-143.5 -321t-31.5 -137q0 -75 65 -86h29q124 13 234 65.5
t300 253t495 648t720 1167.5l348 -180q-314 -538 -515 -902.5t-289.5 -546t-117 -267.5t-32.5 -139v-54q9 -90 98 -90q85 0 214 81t232 173l217 -143q-240 -401 -371.5 -649t-238.5 -506l-373 123q154 280 402 585q109 135 151 193l-32 20q-62 -41 -122 -79t-111 -65
t-112.5 -46t-117.5 -19q-242 0 -242 242q0 198 172 528l-41 17q-293 -319 -594 -553t-528 -234q-100 0 -171 56t-71 153q0 175 172 516q15 29 26 50t27 53l-49 8q-61 -66 -86 -94q-154 -169 -338 -335.5t-379.5 -286.5t-343.5 -120q-108 0 -189 68.5t-81 206.5
q0 101 41.5 242.5t160.5 395t351 685.5q187 349 264 491t183 327.5t241 410.5z" />
    <glyph glyph-name="afii10044" unicode="&#xda;" horiz-adv-x="2138" 
d="M2417 1696l98 -217q-145 -66 -279 -107q41 -157 41 -291q0 -198 -90 -397t-245 -357.5t-355 -252.5t-411 -94q-204 0 -374.5 114.5t-170.5 437.5q0 263 99 545t280 548t421 486t519 367l-17 29q-190 -37 -299 -37q-58 0 -172 32.5t-176 32.5q-173 0 -287 -131l-180 320
q183 151 471 151q107 0 443 -90q220 -65 278 -65q115 0 238 20l135 -209q-580 -449 -890 -837.5t-404.5 -650t-94.5 -437.5q0 -194 85.5 -263t181.5 -69q128 0 280.5 123t257.5 315.5t105 389.5q0 97 -29 180q-17 0 -49 -2t-45 -2q-132 0 -299 41l-29 201q50 63 150.5 97
t177.5 34q183 0 274 -70q186 23 361 115z" />
    <glyph glyph-name="afii10044" unicode="&#x42a;" horiz-adv-x="2138" 
d="M2417 1696l98 -217q-145 -66 -279 -107q41 -157 41 -291q0 -198 -90 -397t-245 -357.5t-355 -252.5t-411 -94q-204 0 -374.5 114.5t-170.5 437.5q0 263 99 545t280 548t421 486t519 367l-17 29q-190 -37 -299 -37q-58 0 -172 32.5t-176 32.5q-173 0 -287 -131l-180 320
q183 151 471 151q107 0 443 -90q220 -65 278 -65q115 0 238 20l135 -209q-580 -449 -890 -837.5t-404.5 -650t-94.5 -437.5q0 -194 85.5 -263t181.5 -69q128 0 280.5 123t257.5 315.5t105 389.5q0 97 -29 180q-17 0 -49 -2t-45 -2q-132 0 -299 41l-29 201q50 63 150.5 97
t177.5 34q183 0 274 -70q186 23 361 115z" />
    <glyph glyph-name="afii10045" unicode="&#xdb;" horiz-adv-x="3150" 
d="M1536 2834l328 -196q-113 -194 -250 -422q-221 -373 -374 -652t-256 -533t-103 -425q0 -170 79 -251t187 -81q148 0 297 126.5t245.5 317.5t96.5 363q0 111 -29 201q-280 0 -389 37l-29 201q50 63 151 97t173 34q184 0 274 -70q199 26 409.5 125.5t407 242.5t361 308
t264.5 311l287 -168q-107 -192 -252 -463.5t-309 -600t-266.5 -568t-102.5 -326.5q0 -110 119 -110q114 0 393 172l-98 -283q-124 -85 -280.5 -153t-260.5 -68q-109 0 -204 82.5t-95 241.5q0 174 126.5 479.5t279.5 576.5q103 184 188 361l-33 12q-328 -252 -749 -381
q41 -167 41 -291q0 -201 -90.5 -399t-247.5 -358t-356 -254.5t-408 -94.5q-199 0 -372 114t-173 439q0 90 26.5 228.5t125 403t311.5 686t557 988.5z" />
    <glyph glyph-name="afii10045" unicode="&#x42b;" horiz-adv-x="3150" 
d="M1536 2834l328 -196q-113 -194 -250 -422q-221 -373 -374 -652t-256 -533t-103 -425q0 -170 79 -251t187 -81q148 0 297 126.5t245.5 317.5t96.5 363q0 111 -29 201q-280 0 -389 37l-29 201q50 63 151 97t173 34q184 0 274 -70q199 26 409.5 125.5t407 242.5t361 308
t264.5 311l287 -168q-107 -192 -252 -463.5t-309 -600t-266.5 -568t-102.5 -326.5q0 -110 119 -110q114 0 393 172l-98 -283q-124 -85 -280.5 -153t-260.5 -68q-109 0 -204 82.5t-95 241.5q0 174 126.5 479.5t279.5 576.5q103 184 188 361l-33 12q-328 -252 -749 -381
q41 -167 41 -291q0 -201 -90.5 -399t-247.5 -358t-356 -254.5t-408 -94.5q-199 0 -372 114t-173 439q0 90 26.5 228.5t125 403t311.5 686t557 988.5z" />
    <glyph glyph-name="afii10046" unicode="&#xdc;" horiz-adv-x="2023" 
d="M2302 1696l98 -217q-144 -66 -278 -107q41 -167 41 -291q0 -198 -89.5 -396t-245.5 -357.5t-356 -253.5t-411 -94q-205 0 -375 113.5t-170 434.5q0 212 70 445.5t206 504t337.5 593t484.5 743.5l295 -197q-262 -404 -456.5 -725.5t-320 -564.5t-188.5 -422t-63 -299
q0 -164 75.5 -248t190.5 -84q128 0 280.5 123t257.5 315.5t105 389.5q0 101 -29 180q-16 0 -48 -2t-46 -2q-132 0 -299 41l-29 201q50 63 150.5 97t177.5 34q184 0 275 -70q185 23 360 115z" />
    <glyph glyph-name="afii10046" unicode="&#x42c;" horiz-adv-x="2023" 
d="M2302 1696l98 -217q-144 -66 -278 -107q41 -167 41 -291q0 -198 -89.5 -396t-245.5 -357.5t-356 -253.5t-411 -94q-205 0 -375 113.5t-170 434.5q0 212 70 445.5t206 504t337.5 593t484.5 743.5l295 -197q-262 -404 -456.5 -725.5t-320 -564.5t-188.5 -422t-63 -299
q0 -164 75.5 -248t190.5 -84q128 0 280.5 123t257.5 315.5t105 389.5q0 101 -29 180q-16 0 -48 -2t-46 -2q-132 0 -299 41l-29 201q50 63 150.5 97t177.5 34q184 0 275 -70q185 23 360 115z" />
    <glyph glyph-name="afii10047" unicode="&#xdd;" horiz-adv-x="2290" 
d="M1282 2126l-283 217q213 312 456.5 432.5t473.5 120.5q254 0 412 -123t225.5 -307t67.5 -373q0 -261 -113.5 -624.5t-324.5 -704.5t-518 -565t-674 -224q-240 0 -401.5 89.5t-238.5 239t-77 327.5q0 41 8 123l385 -37v-70q0 -162 94 -269.5t242 -107.5q153 0 311.5 96.5
t295.5 249t242 323t163 318.5q-156 119 -365 119q-230 0 -414 -225l-233 270q266 226 569 226q233 0 545 -152q139 380 139 643q0 279 -99.5 379t-223.5 100q-347 0 -664 -491z" />
    <glyph glyph-name="afii10047" unicode="&#x42d;" horiz-adv-x="2290" 
d="M1282 2126l-283 217q213 312 456.5 432.5t473.5 120.5q254 0 412 -123t225.5 -307t67.5 -373q0 -261 -113.5 -624.5t-324.5 -704.5t-518 -565t-674 -224q-240 0 -401.5 89.5t-238.5 239t-77 327.5q0 41 8 123l385 -37v-70q0 -162 94 -269.5t242 -107.5q153 0 311.5 96.5
t295.5 249t242 323t163 318.5q-156 119 -365 119q-230 0 -414 -225l-233 270q266 226 569 226q233 0 545 -152q139 380 139 643q0 279 -99.5 379t-223.5 100q-347 0 -664 -491z" />
    <glyph glyph-name="afii10048" unicode="&#xde;" horiz-adv-x="3437" 
d="M1470 2769l357 -152q-81 -179 -221 -469t-284.5 -570.5t-240.5 -447.5l21 -16q98 103 314 287.5t437 352t367 249.5l242 -238q-121 -117 -237.5 -303.5t-189.5 -385.5t-73 -355q0 -228 64 -347.5t227 -119.5q232 0 500 276.5t449 690t181 786.5q0 459 -307 459
q-272 0 -573 -467l-295 106q103 189 250 333t319 225t340 81q233 0 383 -119t215.5 -300.5t65.5 -378.5q0 -354 -151.5 -707.5t-398 -641.5t-521 -455t-502.5 -167q-232 0 -417 169t-185 577q0 173 45.5 347.5t126.5 303.5l-25 21q-148 -75 -364.5 -290t-441.5 -512.5
t-394 -602.5l-381 78q420 828 529.5 1044t167 336t270.5 577q244 537 331 746z" />
    <glyph glyph-name="afii10048" unicode="&#x42e;" horiz-adv-x="3437" 
d="M1470 2769l357 -152q-81 -179 -221 -469t-284.5 -570.5t-240.5 -447.5l21 -16q98 103 314 287.5t437 352t367 249.5l242 -238q-121 -117 -237.5 -303.5t-189.5 -385.5t-73 -355q0 -228 64 -347.5t227 -119.5q232 0 500 276.5t449 690t181 786.5q0 459 -307 459
q-272 0 -573 -467l-295 106q103 189 250 333t319 225t340 81q233 0 383 -119t215.5 -300.5t65.5 -378.5q0 -354 -151.5 -707.5t-398 -641.5t-521 -455t-502.5 -167q-232 0 -417 169t-185 577q0 173 45.5 347.5t126.5 303.5l-25 21q-148 -75 -364.5 -290t-441.5 -512.5
t-394 -602.5l-381 78q420 828 529.5 1044t167 336t270.5 577q244 537 331 746z" />
    <glyph glyph-name="afii10049" unicode="&#xdf;" horiz-adv-x="2748" 
d="M2851 512l-103 -295q-392 -262 -614 -262q-97 0 -157 57t-60 172q0 154 100 373t231 425.5t324 487.5q-114 -32 -195 -78t-134.5 -97.5t-93 -106t-89.5 -123.5q-161 -218 -376.5 -418t-446 -352t-435.5 -236t-351 -84q-170 0 -282 107t-112 266q0 114 43 224t99.5 180.5
t87.5 70.5q25 0 49 -16l192 -119q41 -26 41 -70q0 -30 -45 -81q-65 -75 -65 -160q0 -94 102 -103h53q144 15 383.5 167.5t482.5 361t388 377.5q-207 -66 -284 -86.5t-150 -20.5q-135 0 -250 82t-115 279q0 203 113 445t307 459.5t432.5 352.5t470.5 135q225 0 323.5 -143.5
t98.5 -319.5q0 -146 -80 -313.5t-211 -374.5q183 95 332 221l237 -127q-423 -708 -571.5 -981t-148.5 -370q0 -86 73 -86q68 0 194.5 59.5t211.5 120.5zM2052 1458q97 107 202.5 260.5t177 309t71.5 266.5q0 98 -48 151.5t-120 53.5q-223 0 -488 -279q-130 -135 -247 -344.5
t-117 -347.5q0 -68 47 -122t158 -54q143 0 364 106z" />
    <glyph glyph-name="afii10049" unicode="&#x42f;" horiz-adv-x="2748" 
d="M2851 512l-103 -295q-392 -262 -614 -262q-97 0 -157 57t-60 172q0 154 100 373t231 425.5t324 487.5q-114 -32 -195 -78t-134.5 -97.5t-93 -106t-89.5 -123.5q-161 -218 -376.5 -418t-446 -352t-435.5 -236t-351 -84q-170 0 -282 107t-112 266q0 114 43 224t99.5 180.5
t87.5 70.5q25 0 49 -16l192 -119q41 -26 41 -70q0 -30 -45 -81q-65 -75 -65 -160q0 -94 102 -103h53q144 15 383.5 167.5t482.5 361t388 377.5q-207 -66 -284 -86.5t-150 -20.5q-135 0 -250 82t-115 279q0 203 113 445t307 459.5t432.5 352.5t470.5 135q225 0 323.5 -143.5
t98.5 -319.5q0 -146 -80 -313.5t-211 -374.5q183 95 332 221l237 -127q-423 -708 -571.5 -981t-148.5 -370q0 -86 73 -86q68 0 194.5 59.5t211.5 120.5zM2052 1458q97 107 202.5 260.5t177 309t71.5 266.5q0 98 -48 151.5t-120 53.5q-223 0 -488 -279q-130 -135 -247 -344.5
t-117 -347.5q0 -68 47 -122t158 -54q143 0 364 106z" />
    <glyph glyph-name="afii10065" unicode="&#xe0;" horiz-adv-x="1966" 
d="M1749 1524l295 -156l-361 -704q-94 -183 -94 -246q0 -74 53 -74q40 0 187.5 70.5t238.5 122.5l-86 -279q-125 -97 -282.5 -177.5t-253.5 -80.5q-102 0 -165.5 60.5t-63.5 136.5q0 41 14.5 90.5t26.5 79t32 75.5q19 30 25 50l-17 4q-20 -14 -49 -50
q-112 -137 -339.5 -291.5t-409.5 -154.5q-119 0 -223.5 100.5t-104.5 313.5q0 218 200.5 496t483 474.5t496.5 196.5q229 0 352 -147zM1413 885l209 393q-75 86 -184 86q-133 0 -338 -146.5t-359.5 -352.5t-154.5 -365q0 -176 119 -176q71 0 223 99t293 232t192 230z" />
    <glyph glyph-name="afii10065" unicode="&#x430;" horiz-adv-x="1966" 
d="M1749 1524l295 -156l-361 -704q-94 -183 -94 -246q0 -74 53 -74q40 0 187.5 70.5t238.5 122.5l-86 -279q-125 -97 -282.5 -177.5t-253.5 -80.5q-102 0 -165.5 60.5t-63.5 136.5q0 41 14.5 90.5t26.5 79t32 75.5q19 30 25 50l-17 4q-20 -14 -49 -50
q-112 -137 -339.5 -291.5t-409.5 -154.5q-119 0 -223.5 100.5t-104.5 313.5q0 218 200.5 496t483 474.5t496.5 196.5q229 0 352 -147zM1413 885l209 393q-75 86 -184 86q-133 0 -338 -146.5t-359.5 -352.5t-154.5 -365q0 -176 119 -176q71 0 223 99t293 232t192 230z" />
    <glyph glyph-name="afii10066" unicode="&#xe1;" horiz-adv-x="1544" 
d="M2433 2564l-102 -356q-315 -53 -459.5 -92.5t-184.5 -73t-40 -80.5q0 -119 45 -295q28 -132 28 -283q0 -264 -90 -515t-243 -446.5t-347.5 -309t-392.5 -113.5q-136 0 -244.5 57t-169.5 161.5t-61 244.5q0 160 77 325t221.5 313.5t340 256.5t422.5 158l98 -201
q-271 -113 -447.5 -266t-253.5 -299.5t-77 -253.5q0 -90 42.5 -149.5t109.5 -59.5q123 0 278 116t278 311t160 408q13 90 13 181q0 106 -13 200q-19 133 -102 406q-45 131 -45 188q0 73 31.5 123t142.5 103t347.5 112t637.5 129z" />
    <glyph glyph-name="afii10066" unicode="&#x431;" horiz-adv-x="1544" 
d="M2433 2564l-102 -356q-315 -53 -459.5 -92.5t-184.5 -73t-40 -80.5q0 -119 45 -295q28 -132 28 -283q0 -264 -90 -515t-243 -446.5t-347.5 -309t-392.5 -113.5q-136 0 -244.5 57t-169.5 161.5t-61 244.5q0 160 77 325t221.5 313.5t340 256.5t422.5 158l98 -201
q-271 -113 -447.5 -266t-253.5 -299.5t-77 -253.5q0 -90 42.5 -149.5t109.5 -59.5q123 0 278 116t278 311t160 408q13 90 13 181q0 106 -13 200q-19 133 -102 406q-45 131 -45 188q0 73 31.5 123t142.5 103t347.5 112t637.5 129z" />
    <glyph glyph-name="afii10067" unicode="&#xe2;" horiz-adv-x="1520" 
d="M94 537l127 94q71 358 262 680t445.5 564t511 375.5t448.5 133.5q238 0 238 -275q0 -165 -130 -353t-347 -380.5t-484.5 -376.5t-550.5 -352q-41 -140 -41 -221q0 -47 39 -101.5t125 -54.5q102 0 187.5 77t137 219.5t52.5 322.5l348 57q4 -28 4 -82q0 -160 -57 -315
t-163.5 -280.5t-250 -197t-315.5 -71.5q-377 0 -459 393l-217 -135zM713 979q202 118 456.5 307t435.5 378t181 314q0 119 -78 119q-161 0 -463 -328q-198 -216 -307 -377t-225 -413z" />
    <glyph glyph-name="afii10067" unicode="&#x432;" horiz-adv-x="1520" 
d="M94 537l127 94q71 358 262 680t445.5 564t511 375.5t448.5 133.5q238 0 238 -275q0 -165 -130 -353t-347 -380.5t-484.5 -376.5t-550.5 -352q-41 -140 -41 -221q0 -47 39 -101.5t125 -54.5q102 0 187.5 77t137 219.5t52.5 322.5l348 57q4 -28 4 -82q0 -160 -57 -315
t-163.5 -280.5t-250 -197t-315.5 -71.5q-377 0 -459 393l-217 -135zM713 979q202 118 456.5 307t435.5 378t181 314q0 119 -78 119q-161 0 -463 -328q-198 -216 -307 -377t-225 -413z" />
    <glyph glyph-name="afii10068" unicode="&#xe3;" horiz-adv-x="1069" 
d="M504 1188l-107 176q364 221 635 221q234 0 234 -205q0 -131 -76.5 -228.5t-235.5 -246.5q-426 -408 -426 -528q0 -27 24 -52.5t66 -25.5q71 0 251.5 80.5t301.5 157.5l-86 -279q-148 -102 -336 -180t-323 -78q-158 0 -234.5 74.5t-76.5 175.5q0 269 495 745
q61 56 114.5 104.5t96.5 97t43 77.5q0 28 -28 37h-45q-66 -12 -287 -123z" />
    <glyph glyph-name="afii10068" unicode="&#x433;" horiz-adv-x="1069" 
d="M504 1188l-107 176q364 221 635 221q234 0 234 -205q0 -131 -76.5 -228.5t-235.5 -246.5q-426 -408 -426 -528q0 -27 24 -52.5t66 -25.5q71 0 251.5 80.5t301.5 157.5l-86 -279q-148 -102 -336 -180t-323 -78q-158 0 -234.5 74.5t-76.5 175.5q0 269 495 745
q61 56 114.5 104.5t96.5 97t43 77.5q0 28 -28 37h-45q-66 -12 -287 -123z" />
    <glyph glyph-name="afii10069" unicode="&#xe4;" horiz-adv-x="1839" 
d="M1835 1511l291 -151q-343 -617 -597 -1106.5t-375 -745.5t-212 -466l-377 122q139 275 256 484.5t202.5 342.5t188.5 279q82 118 99 152l-17 8q-21 -12 -77 -70q-215 -200 -396.5 -280t-300.5 -80q-122 0 -235 76.5t-113 267.5q0 242 211 536.5t515.5 497.5t563.5 203
q183 0 316 -151zM1675 1245q-48 107 -159 107q-129 0 -286.5 -96t-298 -243t-229 -298t-88.5 -248q0 -64 32 -99.5t75 -35.5q65 0 177.5 54t248 164t276.5 288t252 407z" />
    <glyph glyph-name="afii10069" unicode="&#x434;" horiz-adv-x="1839" 
d="M1835 1511l291 -151q-343 -617 -597 -1106.5t-375 -745.5t-212 -466l-377 122q139 275 256 484.5t202.5 342.5t188.5 279q82 118 99 152l-17 8q-21 -12 -77 -70q-215 -200 -396.5 -280t-300.5 -80q-122 0 -235 76.5t-113 267.5q0 242 211 536.5t515.5 497.5t563.5 203
q183 0 316 -151zM1675 1245q-48 107 -159 107q-129 0 -286.5 -96t-298 -243t-229 -298t-88.5 -248q0 -64 32 -99.5t75 -35.5q65 0 177.5 54t248 164t276.5 288t252 407z" />
    <glyph glyph-name="afii10070" unicode="&#xe5;" horiz-adv-x="1413" 
d="M90 520l90 58q60 186 193.5 365t311.5 324t371.5 229.5t360.5 84.5q170 0 249 -79t79 -183q0 -199 -239.5 -427t-952.5 -405q-8 -32 -8 -49q0 -77 66 -122.5t180 -45.5q86 0 213 35.5t256.5 93.5t242.5 125l-90 -266q-177 -114 -412 -186t-415 -72q-120 0 -217.5 48.5
t-151 129.5t-53.5 174l-164 -102zM631 725q524 138 704 442q25 43 25 78q0 74 -70 74q-109 0 -244.5 -102.5t-251.5 -245t-163 -246.5z" />
    <glyph glyph-name="afii10070" unicode="&#x435;" horiz-adv-x="1413" 
d="M90 520l90 58q60 186 193.5 365t311.5 324t371.5 229.5t360.5 84.5q170 0 249 -79t79 -183q0 -199 -239.5 -427t-952.5 -405q-8 -32 -8 -49q0 -77 66 -122.5t180 -45.5q86 0 213 35.5t256.5 93.5t242.5 125l-90 -266q-177 -114 -412 -186t-415 -72q-120 0 -217.5 48.5
t-151 129.5t-53.5 174l-164 -102zM631 725q524 138 704 442q25 43 25 78q0 74 -70 74q-109 0 -244.5 -102.5t-251.5 -245t-163 -246.5z" />
    <glyph glyph-name="afii10072" unicode="&#xe6;" horiz-adv-x="2707" 
d="M737 1245l-123 180q130 89 282.5 151t270.5 62q271 0 271 -290q0 -191 -164 -422q-19 -30 -26 -41t-18 -27t-22 -31q-10 -14 -32 -49l16 -4q143 104 350 311.5t371 434.5l180 -107l-238 -430q-100 -185 -114 -221l20 -4q9 7 74 61q333 290 574 442.5t372 208.5l127 -221
q-385 -208 -559 -419.5t-174 -374.5q0 -164 86 -164q53 0 245 91t304 155l-94 -279q-370 -258 -611 -258q-278 0 -278 307q0 158 119 324q4 7 9 15.5t9.5 16.5t9.5 17l-16 12q-20 -16 -26.5 -21t-18.5 -16q-91 -72 -162.5 -141.5t-170 -202.5t-216.5 -344l-229 111l376 717
l-16 8q-30 -24 -55 -47.5t-52.5 -50.5t-48.5 -46q-227 -226 -412.5 -375t-329 -216.5t-269.5 -67.5q-149 0 -238.5 100.5t-89.5 251.5q0 85 20 156l320 131q-45 -101 -45 -193q0 -172 123 -172q201 0 479 488q217 369 217 520q0 98 -86 98q-49 0 -201 -86q-17 -11 -39.5 -22
t-50.5 -27z" />
    <glyph glyph-name="afii10072" unicode="&#x436;" horiz-adv-x="2707" 
d="M737 1245l-123 180q130 89 282.5 151t270.5 62q271 0 271 -290q0 -191 -164 -422q-19 -30 -26 -41t-18 -27t-22 -31q-10 -14 -32 -49l16 -4q143 104 350 311.5t371 434.5l180 -107l-238 -430q-100 -185 -114 -221l20 -4q9 7 74 61q333 290 574 442.5t372 208.5l127 -221
q-385 -208 -559 -419.5t-174 -374.5q0 -164 86 -164q53 0 245 91t304 155l-94 -279q-370 -258 -611 -258q-278 0 -278 307q0 158 119 324q4 7 9 15.5t9.5 16.5t9.5 17l-16 12q-20 -16 -26.5 -21t-18.5 -16q-91 -72 -162.5 -141.5t-170 -202.5t-216.5 -344l-229 111l376 717
l-16 8q-30 -24 -55 -47.5t-52.5 -50.5t-48.5 -46q-227 -226 -412.5 -375t-329 -216.5t-269.5 -67.5q-149 0 -238.5 100.5t-89.5 251.5q0 85 20 156l320 131q-45 -101 -45 -193q0 -172 123 -172q201 0 479 488q217 369 217 520q0 98 -86 98q-49 0 -201 -86q-17 -11 -39.5 -22
t-50.5 -27z" />
    <glyph glyph-name="afii10073" unicode="&#xe7;" horiz-adv-x="1352" 
d="M623 1151l-136 164q160 147 350 235t347 88q170 0 255 -87t85 -208q0 -102 -61 -198.5t-156.5 -166t-196.5 -97.5q-68 -20 -82 -25l-28.5 -9.5t-21 -6.5t-24.5 -4v-17h25q307 0 307 -233q0 -158 -131.5 -294t-324.5 -214t-359 -78q-197 0 -334 91t-137 261q0 81 20 156
l316 131q-25 -115 -25 -164q0 -79 48 -148t173 -69q78 0 167.5 53t151.5 136t62 163q0 99 -135 99q-41 0 -106 -13l-49 197q553 176 553 414q0 69 -103 69q-73 0 -168 -53q-139 -69 -282 -172z" />
    <glyph glyph-name="afii10073" unicode="&#x437;" horiz-adv-x="1352" 
d="M623 1151l-136 164q160 147 350 235t347 88q170 0 255 -87t85 -208q0 -102 -61 -198.5t-156.5 -166t-196.5 -97.5q-68 -20 -82 -25l-28.5 -9.5t-21 -6.5t-24.5 -4v-17h25q307 0 307 -233q0 -158 -131.5 -294t-324.5 -214t-359 -78q-197 0 -334 91t-137 261q0 81 20 156
l316 131q-25 -115 -25 -164q0 -79 48 -148t173 -69q78 0 167.5 53t151.5 136t62 163q0 99 -135 99q-41 0 -106 -13l-49 197q553 176 553 414q0 69 -103 69q-73 0 -168 -53q-139 -69 -282 -172z" />
    <glyph glyph-name="afii10074" unicode="&#xe8;" horiz-adv-x="1802" 
d="M1630 1479l275 -140l-439 -831q-24 -44 -24 -82q0 -66 61 -66q50 0 185 74q94 55 204 103l-90 -279q-123 -79 -317 -168.5t-273 -89.5q-63 0 -115 41t-65 119v73q15 131 225 435l-16 20q-12 -10 -176 -168q-520 -520 -770 -520q-65 0 -122.5 48t-57.5 161q0 79 54 214.5
t195.5 409.5t434.5 822l278 -144l-479 -905q-35 -72 -37 -86v-20q4 -49 45 -49q51 0 119.5 51.5t265.5 234.5q255 239 384 380.5t255 361.5z" />
    <glyph glyph-name="afii10074" unicode="&#x438;" horiz-adv-x="1802" 
d="M1630 1479l275 -140l-439 -831q-24 -44 -24 -82q0 -66 61 -66q50 0 185 74q94 55 204 103l-90 -279q-123 -79 -317 -168.5t-273 -89.5q-63 0 -115 41t-65 119v73q15 131 225 435l-16 20q-12 -10 -176 -168q-520 -520 -770 -520q-65 0 -122.5 48t-57.5 161q0 79 54 214.5
t195.5 409.5t434.5 822l278 -144l-479 -905q-35 -72 -37 -86v-20q4 -49 45 -49q51 0 119.5 51.5t265.5 234.5q255 239 384 380.5t255 361.5z" />
    <glyph glyph-name="afii10075" unicode="&#xe9;" horiz-adv-x="1802" 
d="M1630 1479l275 -140l-439 -831q-24 -44 -24 -82q0 -66 61 -66q50 0 185 74q94 55 204 103l-90 -279q-123 -79 -317 -168.5t-273 -89.5q-63 0 -115 41t-65 119v73q15 131 225 435l-16 20q-12 -10 -176 -168q-520 -520 -770 -520q-65 0 -122.5 48t-57.5 161q0 79 54 214.5
t195.5 409.5t434.5 822l278 -144l-479 -905q-35 -72 -37 -86v-20q4 -49 45 -49q51 0 119.5 51.5t265.5 234.5q255 239 384 380.5t255 361.5zM1106 2417l336 16q0 -279 225 -279q189 0 451 316l163 -131q-66 -68 -86 -90q-295 -328 -655 -328q-434 0 -434 496z" />
    <glyph glyph-name="afii10075" unicode="&#x439;" horiz-adv-x="1802" 
d="M1630 1479l275 -140l-439 -831q-24 -44 -24 -82q0 -66 61 -66q50 0 185 74q94 55 204 103l-90 -279q-123 -79 -317 -168.5t-273 -89.5q-63 0 -115 41t-65 119v73q15 131 225 435l-16 20q-12 -10 -176 -168q-520 -520 -770 -520q-65 0 -122.5 48t-57.5 161q0 79 54 214.5
t195.5 409.5t434.5 822l278 -144l-479 -905q-35 -72 -37 -86v-20q4 -49 45 -49q51 0 119.5 51.5t265.5 234.5q255 239 384 380.5t255 361.5zM1106 2417l336 16q0 -279 225 -279q189 0 451 316l163 -131q-66 -68 -86 -90q-295 -328 -655 -328q-434 0 -434 496z" />
    <glyph glyph-name="afii10076" unicode="&#xea;" horiz-adv-x="1729" 
d="M811 1618l274 -164l-454 -803l20 -8q39 35 176 172q118 121 252.5 243t313 254t422.5 277l143 -266q-252 -118 -537.5 -294t-376.5 -292l5 -20q54 12 98 12q115 0 115 -143q0 -20 -7.5 -41t-25.5 -54t-21 -40q-24 -66 -28 -99v-33q0 -81 65 -81q56 0 176.5 57
t248.5 134.5t165 107.5l-90 -279q-355 -315 -692 -315q-126 0 -182 74.5t-56 175.5q0 104 41 188q7 16 22.5 43t18.5 38.5t4 29.5v16q-8 24 -33 24q-61 0 -240 -193t-309 -372l-294 86z" />
    <glyph glyph-name="afii10076" unicode="&#x43a;" horiz-adv-x="1729" 
d="M811 1618l274 -164l-454 -803l20 -8q39 35 176 172q118 121 252.5 243t313 254t422.5 277l143 -266q-252 -118 -537.5 -294t-376.5 -292l5 -20q54 12 98 12q115 0 115 -143q0 -20 -7.5 -41t-25.5 -54t-21 -40q-24 -66 -28 -99v-33q0 -81 65 -81q56 0 176.5 57
t248.5 134.5t165 107.5l-90 -279q-355 -315 -692 -315q-126 0 -182 74.5t-56 175.5q0 104 41 188q7 16 22.5 43t18.5 38.5t4 29.5v16q-8 24 -33 24q-61 0 -240 -193t-309 -372l-294 86z" />
    <glyph glyph-name="afii10077" unicode="&#xeb;" horiz-adv-x="1651" 
d="M1466 1675l287 -143l-254 -528q-67 -141 -134 -315.5t-67 -233.5q0 -62 74 -82h41q41 8 153 61.5t187 102.5l-90 -279q-398 -258 -528 -258q-87 0 -154.5 59t-67.5 162q0 179 164 443q32 53 45 77l-45 25q-172 -232 -303.5 -388.5t-284 -267t-305.5 -110.5
q-147 0 -223 80.5t-76 185.5q0 110 25 168l319 156q-20 -72 -20 -131q0 -123 94 -123q79 0 226.5 135.5t318.5 342t337 440t281 421.5z" />
    <glyph glyph-name="afii10077" unicode="&#x43b;" horiz-adv-x="1651" 
d="M1466 1675l287 -143l-254 -528q-67 -141 -134 -315.5t-67 -233.5q0 -62 74 -82h41q41 8 153 61.5t187 102.5l-90 -279q-398 -258 -528 -258q-87 0 -154.5 59t-67.5 162q0 179 164 443q32 53 45 77l-45 25q-172 -232 -303.5 -388.5t-284 -267t-305.5 -110.5
q-147 0 -223 80.5t-76 185.5q0 110 25 168l319 156q-20 -72 -20 -131q0 -123 94 -123q79 0 226.5 135.5t318.5 342t337 440t281 421.5z" />
    <glyph glyph-name="afii10078" unicode="&#xec;" horiz-adv-x="2421" 
d="M1503 1675l254 -143l-364 -729q-106 -207 -115 -271v-36q5 -25 29 -25q77 0 389 315q92 96 163.5 177.5t173 225.5t220.5 347l270 -143l-385 -705q-102 -172 -102 -250t69 -78q40 0 93 21t166.5 78t158.5 78l-90 -279q-122 -83 -301 -170.5t-268 -87.5q-90 0 -149.5 53.5
t-59.5 130.5q0 137 188 434l-37 29q-370 -392 -535.5 -532t-246.5 -140q-71 0 -123.5 48.5t-52.5 132.5q0 88 74.5 252t158.5 297l-45 16q-70 -85 -178.5 -216t-222 -244.5t-231.5 -187t-224 -73.5q-114 0 -204.5 68t-90.5 198q0 111 25 168l319 156q-20 -72 -20 -131
q0 -123 94 -123q120 0 381 278q171 187 303.5 341t262.5 331.5t253 388.5z" />
    <glyph glyph-name="afii10078" unicode="&#x43c;" horiz-adv-x="2421" 
d="M1503 1675l254 -143l-364 -729q-106 -207 -115 -271v-36q5 -25 29 -25q77 0 389 315q92 96 163.5 177.5t173 225.5t220.5 347l270 -143l-385 -705q-102 -172 -102 -250t69 -78q40 0 93 21t166.5 78t158.5 78l-90 -279q-122 -83 -301 -170.5t-268 -87.5q-90 0 -149.5 53.5
t-59.5 130.5q0 137 188 434l-37 29q-370 -392 -535.5 -532t-246.5 -140q-71 0 -123.5 48.5t-52.5 132.5q0 88 74.5 252t158.5 297l-45 16q-70 -85 -178.5 -216t-222 -244.5t-231.5 -187t-224 -73.5q-114 0 -204.5 68t-90.5 198q0 111 25 168l319 156q-20 -72 -20 -131
q0 -123 94 -123q120 0 381 278q171 187 303.5 341t262.5 331.5t253 388.5z" />
    <glyph glyph-name="afii10079" unicode="&#xed;" horiz-adv-x="1847" 
d="M827 1642l283 -131l-336 -647q58 18 266 54q196 28 295 28l267 561l286 -123l-377 -761q-7 -11 -19.5 -44t-16.5 -42q-45 -87 -45 -131q0 -66 61 -66q76 0 266 102q18 9 193 95l-82 -279q-444 -258 -594 -258q-104 0 -177 64.5t-73 177.5q0 66 35 144.5t166 334.5
q-245 -18 -566 -127l-303 -623l-331 103z" />
    <glyph glyph-name="afii10079" unicode="&#x43d;" horiz-adv-x="1847" 
d="M827 1642l283 -131l-336 -647q58 18 266 54q196 28 295 28l267 561l286 -123l-377 -761q-7 -11 -19.5 -44t-16.5 -42q-45 -87 -45 -131q0 -66 61 -66q76 0 266 102q18 9 193 95l-82 -279q-444 -258 -594 -258q-104 0 -177 64.5t-73 177.5q0 66 35 144.5t166 334.5
q-245 -18 -566 -127l-303 -623l-331 103z" />
    <glyph glyph-name="afii10080" unicode="&#xee;" horiz-adv-x="1548" 
d="M1384 1692l66 -238q-195 -63 -364 -180.5t-290 -260t-186 -282.5t-65 -248q0 -217 180 -217q132 0 262.5 117.5t214.5 317t84 429.5q0 50 -8 140l369 102q16 -87 16 -192q0 -313 -161.5 -586t-406.5 -433.5t-477 -160.5q-446 0 -446 442q0 228 142.5 465.5t418.5 445
t651 339.5z" />
    <glyph glyph-name="afii10080" unicode="&#x43e;" horiz-adv-x="1548" 
d="M1384 1692l66 -238q-195 -63 -364 -180.5t-290 -260t-186 -282.5t-65 -248q0 -217 180 -217q132 0 262.5 117.5t214.5 317t84 429.5q0 50 -8 140l369 102q16 -87 16 -192q0 -313 -161.5 -586t-406.5 -433.5t-477 -160.5q-446 0 -446 442q0 228 142.5 465.5t418.5 445
t651 339.5z" />
    <glyph glyph-name="afii10081" unicode="&#xef;" horiz-adv-x="1806" 
d="M803 1638l266 -131l-344 -684l29 -24q74 82 90 98q45 45 90 94q439 475 655 475q103 0 164.5 -74t61.5 -184q0 -61 -36.5 -141t-116.5 -213t-110 -186q-94 -171 -94 -226q0 -53 49 -53q50 0 402 148l-86 -279q-282 -161 -391 -209.5t-170 -48.5q-84 0 -151 56.5
t-67 164.5q0 166 254 610q74 121 74 177q0 41 -24 41h-25q-53 -6 -112 -55t-265 -269q-206 -218 -340 -385q-168 -203 -307 -360l-274 90z" />
    <glyph glyph-name="afii10081" unicode="&#x43f;" horiz-adv-x="1806" 
d="M803 1638l266 -131l-344 -684l29 -24q74 82 90 98q45 45 90 94q439 475 655 475q103 0 164.5 -74t61.5 -184q0 -61 -36.5 -141t-116.5 -213t-110 -186q-94 -171 -94 -226q0 -53 49 -53q50 0 402 148l-86 -279q-282 -161 -391 -209.5t-170 -48.5q-84 0 -151 56.5
t-67 164.5q0 166 254 610q74 121 74 177q0 41 -24 41h-25q-53 -6 -112 -55t-265 -269q-206 -218 -340 -385q-168 -203 -307 -360l-274 90z" />
    <glyph glyph-name="afii10082" unicode="&#xf0;" horiz-adv-x="1724" 
d="M963 2073l270 -131l-565 -1090l41 -25q356 362 532.5 488.5t290.5 126.5q95 0 148 -70.5t53 -150.5q0 -100 -111 -320q-80 -160 -165 -302t-85 -181q0 -53 49 -53q29 0 88 24t147.5 66.5t170.5 81.5l-90 -279q-139 -94 -307.5 -176t-266.5 -82q-116 0 -164.5 61.5
t-48.5 135.5q0 151 164 430q51 86 101.5 166t67.5 111t20 54v33q0 49 -66 49q-103 0 -258 -168q-171 -180 -279 -313t-261.5 -404t-344.5 -724q-77 -184 -103.5 -246.5t-68.5 -159.5l-295 74q224 575 448.5 1098t400.5 897.5t273 565t214 413.5z" />
    <glyph glyph-name="afii10082" unicode="&#x440;" horiz-adv-x="1724" 
d="M963 2073l270 -131l-565 -1090l41 -25q356 362 532.5 488.5t290.5 126.5q95 0 148 -70.5t53 -150.5q0 -100 -111 -320q-80 -160 -165 -302t-85 -181q0 -53 49 -53q29 0 88 24t147.5 66.5t170.5 81.5l-90 -279q-139 -94 -307.5 -176t-266.5 -82q-116 0 -164.5 61.5
t-48.5 135.5q0 151 164 430q51 86 101.5 166t67.5 111t20 54v33q0 49 -66 49q-103 0 -258 -168q-171 -180 -279 -313t-261.5 -404t-344.5 -724q-77 -184 -103.5 -246.5t-68.5 -159.5l-295 74q224 575 448.5 1098t400.5 897.5t273 565t214 413.5z" />
    <glyph glyph-name="afii10083" unicode="&#xf1;" horiz-adv-x="1438" 
d="M1532 967l-262 155q57 103 57 144q0 21 -23 41t-63 20q-116 0 -272.5 -158.5t-269.5 -372.5t-113 -358q0 -52 42.5 -101.5t125.5 -49.5q218 0 778 250l-90 -279q-222 -100 -370.5 -154t-266.5 -79t-232 -25q-401 0 -401 389q0 208 124.5 427.5t323.5 402t416 291
t394 108.5q143 0 212.5 -89.5t69.5 -217.5q0 -82 -51.5 -176t-128.5 -168z" />
    <glyph glyph-name="afii10083" unicode="&#x441;" horiz-adv-x="1438" 
d="M1532 967l-262 155q57 103 57 144q0 21 -23 41t-63 20q-116 0 -272.5 -158.5t-269.5 -372.5t-113 -358q0 -52 42.5 -101.5t125.5 -49.5q218 0 778 250l-90 -279q-222 -100 -370.5 -154t-266.5 -79t-232 -25q-401 0 -401 389q0 208 124.5 427.5t323.5 402t416 291
t394 108.5q143 0 212.5 -89.5t69.5 -217.5q0 -82 -51.5 -176t-128.5 -168z" />
    <glyph glyph-name="afii10084" unicode="&#xf2;" horiz-adv-x="2572" 
d="M807 1630l287 -147l-332 -611l37 -24q61 47 278 258q348 348 545 348q69 0 137 -41t68 -139q0 -106 -156 -328q-77 -111 -123 -164l41 -24q495 495 729 495q62 0 115 -39.5t53 -123.5q0 -120 -164 -385q-41 -68 -95 -148.5t-73.5 -115t-19.5 -60.5q0 -41 37 -41
q26 0 495 197l-90 -279q-206 -112 -330 -173t-200 -85.5t-137 -24.5q-147 0 -185 123q-8 50 -8 70q0 28 8 70q15 60 42 113t73.5 125t77.5 126q34 58 54 90.5t28 50t8 35.5q0 37 -37 37q-56 0 -198 -116.5t-318.5 -310.5t-331.5 -417l-299 82l451 860q0 62 -12 62
q-36 0 -275 -221q-136 -126 -228.5 -221t-196.5 -227.5t-234 -338.5l-303 90zM1413 1516l-139 188q831 490 1687 512l-172 -377q-118 29 -286 29q-293 0 -571.5 -102.5t-518.5 -249.5z" />
    <glyph glyph-name="afii10084" unicode="&#x442;" horiz-adv-x="2572" 
d="M807 1630l287 -147l-332 -611l37 -24q61 47 278 258q348 348 545 348q69 0 137 -41t68 -139q0 -106 -156 -328q-77 -111 -123 -164l41 -24q495 495 729 495q62 0 115 -39.5t53 -123.5q0 -120 -164 -385q-41 -68 -95 -148.5t-73.5 -115t-19.5 -60.5q0 -41 37 -41
q26 0 495 197l-90 -279q-206 -112 -330 -173t-200 -85.5t-137 -24.5q-147 0 -185 123q-8 50 -8 70q0 28 8 70q15 60 42 113t73.5 125t77.5 126q34 58 54 90.5t28 50t8 35.5q0 37 -37 37q-56 0 -198 -116.5t-318.5 -310.5t-331.5 -417l-299 82l451 860q0 62 -12 62
q-36 0 -275 -221q-136 -126 -228.5 -221t-196.5 -227.5t-234 -338.5l-303 90zM1413 1516l-139 188q831 490 1687 512l-172 -377q-118 29 -286 29q-293 0 -571.5 -102.5t-518.5 -249.5z" />
    <glyph glyph-name="afii10085" unicode="&#xf3;" horiz-adv-x="1569" 
d="M782 1675l287 -147l-377 -697q-172 -316 -172 -368q0 -57 45 -57h33q70 9 219 127t349 359t407 587l282 -144q-518 -924 -755.5 -1450.5t-337.5 -814.5l-344 74q116 425 553 1143q66 108 147 245l-28 13q-533 -541 -787 -541q-69 0 -128.5 58t-59.5 184q0 182 222 619.5
t445 809.5z" />
    <glyph glyph-name="afii10085" unicode="&#x443;" horiz-adv-x="1569" 
d="M782 1675l287 -147l-377 -697q-172 -316 -172 -368q0 -57 45 -57h33q70 9 219 127t349 359t407 587l282 -144q-518 -924 -755.5 -1450.5t-337.5 -814.5l-344 74q116 425 553 1143q66 108 147 245l-28 13q-533 -541 -787 -541q-69 0 -128.5 58t-59.5 184q0 182 222 619.5
t445 809.5z" />
    <glyph glyph-name="afii10086" unicode="&#xf4;" horiz-adv-x="2454" 
d="M1888 1991l242 -111l-336 -663l21 -13q149 109 243 159t207 50q144 0 223.5 -106t79.5 -279q0 -220 -152 -466.5t-412.5 -412t-565.5 -165.5q-66 0 -99 4v205q245 4 436.5 155.5t297.5 348t106 315.5q0 44 -34.5 69t-84.5 25q-166 0 -329 -166.5t-301 -416t-213.5 -423.5
t-266.5 -637q-78 -199 -172 -421l-344 65q211 461 582 1126l-21 21q-282 -258 -549 -258q-136 0 -205 93t-69 251q0 232 105.5 441t272 365t351.5 242.5t336 86.5q179 0 303 -148zM1315 930l127 229q-42 82 -156 82q-133 0 -296.5 -124t-285.5 -306t-139 -336v-78
q12 -110 103 -110q182 0 336 180t311 463z" />
    <glyph glyph-name="afii10086" unicode="&#x444;" horiz-adv-x="2454" 
d="M1888 1991l242 -111l-336 -663l21 -13q149 109 243 159t207 50q144 0 223.5 -106t79.5 -279q0 -220 -152 -466.5t-412.5 -412t-565.5 -165.5q-66 0 -99 4v205q245 4 436.5 155.5t297.5 348t106 315.5q0 44 -34.5 69t-84.5 25q-166 0 -329 -166.5t-301 -416t-213.5 -423.5
t-266.5 -637q-78 -199 -172 -421l-344 65q211 461 582 1126l-21 21q-282 -258 -549 -258q-136 0 -205 93t-69 251q0 232 105.5 441t272 365t351.5 242.5t336 86.5q179 0 303 -148zM1315 930l127 229q-42 82 -156 82q-133 0 -296.5 -124t-285.5 -306t-139 -336v-78
q12 -110 103 -110q182 0 336 180t311 463z" />
    <glyph glyph-name="afii10087" unicode="&#xf5;" horiz-adv-x="1642" 
d="M745 1745l308 -152q0 -348 16 -594q130 125 222.5 212t162.5 153q87 77 234 217l258 -135q-420 -312 -840 -725q36 -369 225 -369q61 0 195 66.5t211 118.5l-90 -279q-88 -88 -218.5 -173t-228.5 -85q-268 0 -356 528q-22 -27 -44 -52.5t-59 -69.5q-323 -406 -598 -406
q-90 0 -174 54.5t-84 211.5q0 111 25 168l319 156q-20 -72 -20 -131q0 -123 94 -123q57 0 159.5 94.5t332.5 347.5q-58 402 -58 725q0 118 8 242z" />
    <glyph glyph-name="afii10087" unicode="&#x445;" horiz-adv-x="1642" 
d="M745 1745l308 -152q0 -348 16 -594q130 125 222.5 212t162.5 153q87 77 234 217l258 -135q-420 -312 -840 -725q36 -369 225 -369q61 0 195 66.5t211 118.5l-90 -279q-88 -88 -218.5 -173t-228.5 -85q-268 0 -356 528q-22 -27 -44 -52.5t-59 -69.5q-323 -406 -598 -406
q-90 0 -174 54.5t-84 211.5q0 111 25 168l319 156q-20 -72 -20 -131q0 -123 94 -123q57 0 159.5 94.5t332.5 347.5q-58 402 -58 725q0 118 8 242z" />
    <glyph glyph-name="afii10088" unicode="&#xf6;" horiz-adv-x="1872" 
d="M815 1659l270 -139l-467 -877q-61 -117 -61 -135q0 -57 45 -57q107 0 520 401q82 79 144 138.5t129 131.5t126 149t130 187l278 -131l-274 -491q-36 -66 -46 -87t-57 -102q-139 -229 -139 -299q0 -53 57 -53q64 0 246 168l209 -139q-239 -414 -442 -926l-275 127
q87 199 242 418q112 159 115 184l-25 20q-70 -58 -165.5 -102.5t-166.5 -44.5q-95 0 -133.5 54.5t-38.5 113.5q0 166 176 422q16 21 58 90l-25 12q-172 -183 -486.5 -437.5t-467.5 -254.5q-75 0 -125.5 53t-50.5 140q0 144 200 540q296 576 500 926z" />
    <glyph glyph-name="afii10088" unicode="&#x446;" horiz-adv-x="1872" 
d="M815 1659l270 -139l-467 -877q-61 -117 -61 -135q0 -57 45 -57q107 0 520 401q82 79 144 138.5t129 131.5t126 149t130 187l278 -131l-274 -491q-36 -66 -46 -87t-57 -102q-139 -229 -139 -299q0 -53 57 -53q64 0 246 168l209 -139q-239 -414 -442 -926l-275 127
q87 199 242 418q112 159 115 184l-25 20q-70 -58 -165.5 -102.5t-166.5 -44.5q-95 0 -133.5 54.5t-38.5 113.5q0 166 176 422q16 21 58 90l-25 12q-172 -183 -486.5 -437.5t-467.5 -254.5q-75 0 -125.5 53t-50.5 140q0 144 200 540q296 576 500 926z" />
    <glyph glyph-name="afii10089" unicode="&#xf7;" horiz-adv-x="1503" 
d="M614 1679l263 -127l-263 -516q-53 -102 -53 -123q0 -73 57 -73q66 0 185.5 77.5t256.5 221.5t255 331l241 -127l-364 -737q-78 -159 -78 -229q0 -49 41 -53h21q58 15 430 213l-90 -279q-212 -133 -341 -195.5t-229 -62.5q-96 0 -160.5 53.5t-64.5 147.5q0 175 246 528
q63 91 82 131l-17 12q-124 -111 -287 -204q-173 -107 -323 -107q-116 0 -164.5 74t-48.5 156q0 89 61 204z" />
    <glyph glyph-name="afii10089" unicode="&#x447;" horiz-adv-x="1503" 
d="M614 1679l263 -127l-263 -516q-53 -102 -53 -123q0 -73 57 -73q66 0 185.5 77.5t256.5 221.5t255 331l241 -127l-364 -737q-78 -159 -78 -229q0 -49 41 -53h21q58 15 430 213l-90 -279q-212 -133 -341 -195.5t-229 -62.5q-96 0 -160.5 53.5t-64.5 147.5q0 175 246 528
q63 91 82 131l-17 12q-124 -111 -287 -204q-173 -107 -323 -107q-116 0 -164.5 74t-48.5 156q0 89 61 204z" />
    <glyph glyph-name="afii10090" unicode="&#xf8;" horiz-adv-x="2556" 
d="M811 1655l266 -131l-524 -1004q-33 -66 -33 -90q0 -33 33 -33q73 0 246.5 171t386 435t391.5 521l254 -115l-426 -819q-32 -62 -37 -94v-21q0 -33 33 -33q47 0 139 86q234 229 385 398q276 311 406 483l245 -131l-376 -725q-41 -70 -41 -135q0 -28 16 -49t41 -21
q57 0 442 189l-86 -279q-157 -91 -341 -174.5t-277 -83.5q-73 0 -137 52.5t-64 127.5q0 64 25 128.5t64.5 132.5t82.5 141l-33 20l-48.5 -48.5l-57.5 -57.5q-305 -307 -416.5 -401.5t-226.5 -94.5q-77 0 -133 50t-56 122q0 97 148 332q11 18 26 41.5t43 72.5l-32 25
l-36.5 -36.5l-45.5 -45.5q-94 -94 -152 -155q-221 -227 -345.5 -316.5t-248.5 -89.5q-94 0 -145 52.5t-51 140.5q0 131 61 245z" />
    <glyph glyph-name="afii10090" unicode="&#x448;" horiz-adv-x="2556" 
d="M811 1655l266 -131l-524 -1004q-33 -66 -33 -90q0 -33 33 -33q73 0 246.5 171t386 435t391.5 521l254 -115l-426 -819q-32 -62 -37 -94v-21q0 -33 33 -33q47 0 139 86q234 229 385 398q276 311 406 483l245 -131l-376 -725q-41 -70 -41 -135q0 -28 16 -49t41 -21
q57 0 442 189l-86 -279q-157 -91 -341 -174.5t-277 -83.5q-73 0 -137 52.5t-64 127.5q0 64 25 128.5t64.5 132.5t82.5 141l-33 20l-48.5 -48.5l-57.5 -57.5q-305 -307 -416.5 -401.5t-226.5 -94.5q-77 0 -133 50t-56 122q0 97 148 332q11 18 26 41.5t43 72.5l-32 25
l-36.5 -36.5l-45.5 -45.5q-94 -94 -152 -155q-221 -227 -345.5 -316.5t-248.5 -89.5q-94 0 -145 52.5t-51 140.5q0 131 61 245z" />
    <glyph glyph-name="afii10091" unicode="&#xf9;" horiz-adv-x="2568" 
d="M848 1683l258 -151q-147 -272 -410 -741q-30 -52 -68 -118.5t-60.5 -114t-22.5 -71.5q0 -49 33 -49h12q21 4 151 111q467 399 836 967l258 -144l-299 -516q-55 -91 -100 -167t-71 -130.5t-26 -87.5t33 -33q58 0 233.5 156t377.5 381.5t348 425.5l266 -164l-266 -446
q-205 -360 -205 -422q0 -45 53 -45q39 0 110 48t124 99l213 -127q-277 -514 -459 -979l-271 123q71 201 304 516q67 89 86 148l-33 24q-20 -14 -37 -25t-33 -24q-174 -127 -278 -127q-78 0 -129.5 42t-51.5 122q0 60 25.5 121.5t70 134t101.5 166.5l-37 24l-52.5 -52.5
l-49.5 -49.5q-69 -76 -190 -191t-262.5 -216t-231.5 -101q-55 0 -107.5 30.5t-52.5 108.5q0 158 180 418q18 26 30.5 44.5t27.5 41.5l-37 16q-22 -20 -67 -66t-68 -69q-502 -524 -705 -524q-88 0 -136 52.5t-48 140.5q0 106 52 233.5t181 355.5q73 140 160 295
q147 289 340 606z" />
    <glyph glyph-name="afii10091" unicode="&#x449;" horiz-adv-x="2568" 
d="M848 1683l258 -151q-147 -272 -410 -741q-30 -52 -68 -118.5t-60.5 -114t-22.5 -71.5q0 -49 33 -49h12q21 4 151 111q467 399 836 967l258 -144l-299 -516q-55 -91 -100 -167t-71 -130.5t-26 -87.5t33 -33q58 0 233.5 156t377.5 381.5t348 425.5l266 -164l-266 -446
q-205 -360 -205 -422q0 -45 53 -45q39 0 110 48t124 99l213 -127q-277 -514 -459 -979l-271 123q71 201 304 516q67 89 86 148l-33 24q-20 -14 -37 -25t-33 -24q-174 -127 -278 -127q-78 0 -129.5 42t-51.5 122q0 60 25.5 121.5t70 134t101.5 166.5l-37 24l-52.5 -52.5
l-49.5 -49.5q-69 -76 -190 -191t-262.5 -216t-231.5 -101q-55 0 -107.5 30.5t-52.5 108.5q0 158 180 418q18 26 30.5 44.5t27.5 41.5l-37 16q-22 -20 -67 -66t-68 -69q-502 -524 -705 -524q-88 0 -136 52.5t-48 140.5q0 106 52 233.5t181 355.5q73 140 160 295
q147 289 340 606z" />
    <glyph glyph-name="afii10092" unicode="&#xfa;" horiz-adv-x="1372" 
d="M471 1540l135 311q471 -114 840 -323l-78 -205q-251 -79 -457 -249t-323 -363t-117 -334q0 -148 111 -148q94 0 217 86.5t209 208t86 221.5q0 36 -26.5 55t-63.5 19q-33 0 -50 -8l-53 168q103 74 279 74q139 0 208.5 -84.5t69.5 -231.5q0 -169 -135.5 -341t-340.5 -284
t-392 -112q-191 0 -304.5 119t-113.5 299q0 155 82.5 323.5t240.5 323.5t373 266q35 15 64.5 28t52.5 29t23 33q0 92 -537 119z" />
    <glyph glyph-name="afii10092" unicode="&#x44a;" horiz-adv-x="1372" 
d="M471 1540l135 311q471 -114 840 -323l-78 -205q-251 -79 -457 -249t-323 -363t-117 -334q0 -148 111 -148q94 0 217 86.5t209 208t86 221.5q0 36 -26.5 55t-63.5 19q-33 0 -50 -8l-53 168q103 74 279 74q139 0 208.5 -84.5t69.5 -231.5q0 -169 -135.5 -341t-340.5 -284
t-392 -112q-191 0 -304.5 119t-113.5 299q0 155 82.5 323.5t240.5 323.5t373 266q35 15 64.5 28t52.5 29t23 33q0 92 -537 119z" />
    <glyph glyph-name="afii10093" unicode="&#xfb;" horiz-adv-x="2257" 
d="M754 1651l278 -144q-230 -378 -459 -819q-63 -123 -86.5 -182t-23.5 -137q0 -64 32 -102t78 -38q101 0 205.5 99.5t181.5 226.5t84 178v8q0 9 -16 17h-16q-152 -21 -160 -21q-26 0 -45 37l-41 94q0 69 113 141t202 72q189 0 262 -73q154 18 306 87.5t271 172.5t173 211
l266 -144l-372 -667q-37 -64 -76 -151.5t-39 -119.5q0 -69 65 -69q109 0 410 209l-90 -279q-135 -110 -291.5 -184t-277.5 -74q-218 0 -218 197q0 131 136 379.5t249 386.5l-24 20q-41 -16 -107 -53q-84 -57 -204 -86q-75 -18 -93 -28.5t-18 -41.5q-2 -114 -126 -303
t-322.5 -330t-415.5 -141q-156 0 -279 107.5t-123 277.5q0 211 168.5 523.5t442.5 742.5z" />
    <glyph glyph-name="afii10093" unicode="&#x44b;" horiz-adv-x="2257" 
d="M754 1651l278 -144q-230 -378 -459 -819q-63 -123 -86.5 -182t-23.5 -137q0 -64 32 -102t78 -38q101 0 205.5 99.5t181.5 226.5t84 178v8q0 9 -16 17h-16q-152 -21 -160 -21q-26 0 -45 37l-41 94q0 69 113 141t202 72q189 0 262 -73q154 18 306 87.5t271 172.5t173 211
l266 -144l-372 -667q-37 -64 -76 -151.5t-39 -119.5q0 -69 65 -69q109 0 410 209l-90 -279q-135 -110 -291.5 -184t-277.5 -74q-218 0 -218 197q0 131 136 379.5t249 386.5l-24 20q-41 -16 -107 -53q-84 -57 -204 -86q-75 -18 -93 -28.5t-18 -41.5q-2 -114 -126 -303
t-322.5 -330t-415.5 -141q-156 0 -279 107.5t-123 277.5q0 211 168.5 523.5t442.5 742.5z" />
    <glyph glyph-name="afii10094" unicode="&#xfc;" horiz-adv-x="1323" 
d="M819 1675l266 -168l-393 -553l33 -24q67 45 210 104.5t286 59.5q109 0 179 -76t70 -219q0 -177 -135 -365t-349.5 -311t-436.5 -123q-139 0 -231 57.5t-133.5 144t-41.5 171.5q0 152 135 442t541 860zM451 344q0 -127 110 -127q86 0 209.5 92.5t215 219t91.5 221.5
q0 86 -94 86q-91 0 -219 -80.5t-220.5 -196.5t-92.5 -215z" />
    <glyph glyph-name="afii10094" unicode="&#x44c;" horiz-adv-x="1323" 
d="M819 1675l266 -168l-393 -553l33 -24q67 45 210 104.5t286 59.5q109 0 179 -76t70 -219q0 -177 -135 -365t-349.5 -311t-436.5 -123q-139 0 -231 57.5t-133.5 144t-41.5 171.5q0 152 135 442t541 860zM451 344q0 -127 110 -127q86 0 209.5 92.5t215 219t91.5 221.5
q0 86 -94 86q-91 0 -219 -80.5t-220.5 -196.5t-92.5 -215z" />
    <glyph glyph-name="afii10095" unicode="&#xfd;" horiz-adv-x="1466" 
d="M750 1188l-160 188q273 258 536 258q222 0 338.5 -157.5t116.5 -378.5q0 -252 -141.5 -507.5t-403 -423t-594.5 -167.5q-215 0 -328.5 108.5t-113.5 243.5q0 63 20 156l320 131q-29 -99 -29 -164q0 -84 43.5 -150.5t149.5 -66.5q166 0 331 131.5t283 347.5
q-87 25 -135 25q-149 0 -242 -86l-176 217q122 86 295 86q180 0 332 -57q65 149 65 270q0 107 -52.5 149.5t-114.5 42.5q-123 0 -340 -196z" />
    <glyph glyph-name="afii10095" unicode="&#x44d;" horiz-adv-x="1466" 
d="M750 1188l-160 188q273 258 536 258q222 0 338.5 -157.5t116.5 -378.5q0 -252 -141.5 -507.5t-403 -423t-594.5 -167.5q-215 0 -328.5 108.5t-113.5 243.5q0 63 20 156l320 131q-29 -99 -29 -164q0 -84 43.5 -150.5t149.5 -66.5q166 0 331 131.5t283 347.5
q-87 25 -135 25q-149 0 -242 -86l-176 217q122 86 295 86q180 0 332 -57q65 149 65 270q0 107 -52.5 149.5t-114.5 42.5q-123 0 -340 -196z" />
    <glyph glyph-name="afii10096" unicode="&#xfe;" horiz-adv-x="2351" 
d="M827 1663l279 -156l-361 -651l33 -29q101 84 389 222q375 493 1028 610l41 -221q-213 -55 -430 -209t-356 -356t-139 -386q0 -113 70.5 -163t142.5 -50q97 0 233 106.5t234 274t98 336.5q0 174 -25 271l385 106q17 -75 17 -172q0 -301 -164 -579t-419.5 -447.5
t-502.5 -169.5q-256 0 -341 132t-85 249q0 156 78 328l-37 16q-162 -98 -271.5 -196.5t-200 -220t-204.5 -308.5l-294 94z" />
    <glyph glyph-name="afii10096" unicode="&#x44e;" horiz-adv-x="2351" 
d="M827 1663l279 -156l-361 -651l33 -29q101 84 389 222q375 493 1028 610l41 -221q-213 -55 -430 -209t-356 -356t-139 -386q0 -113 70.5 -163t142.5 -50q97 0 233 106.5t234 274t98 336.5q0 174 -25 271l385 106q17 -75 17 -172q0 -301 -164 -579t-419.5 -447.5
t-502.5 -169.5q-256 0 -341 132t-85 249q0 156 78 328l-37 16q-162 -98 -271.5 -196.5t-200 -220t-204.5 -308.5l-294 94z" />
    <glyph glyph-name="afii10097" unicode="&#xff;" horiz-adv-x="1962" 
d="M1737 1540l282 -135l-356 -741q-10 -21 -33.5 -68t-38 -89t-14.5 -81q0 -82 78 -82q59 0 192 67t217 126l-86 -279q-112 -88 -278 -173t-270 -85q-109 0 -171.5 55.5t-62.5 141.5q0 177 152 401q19 28 45 78l-33 24q-26 -29 -47.5 -56.5t-30.5 -37.5
q-117 -142 -241.5 -269.5t-295 -232t-344.5 -104.5q-202 0 -301.5 105t-99.5 251q0 87 16 136l340 147q-28 -105 -28 -164q0 -85 37.5 -151t126.5 -66q105 0 226 82.5t318 257.5l-16 25q-99 -62 -234 -62q-229 0 -229 225q0 114 69 261.5t188.5 284t275.5 223.5t319 87
q185 0 291 -184zM1606 1274q-57 98 -168 98q-80 0 -190.5 -67.5t-192.5 -173t-92 -213.5v-41q6 -49 39.5 -78t78.5 -29q60 0 151 44t192.5 158t181.5 302z" />
    <glyph glyph-name="afii10097" unicode="&#x44f;" horiz-adv-x="1962" 
d="M1737 1540l282 -135l-356 -741q-10 -21 -33.5 -68t-38 -89t-14.5 -81q0 -82 78 -82q59 0 192 67t217 126l-86 -279q-112 -88 -278 -173t-270 -85q-109 0 -171.5 55.5t-62.5 141.5q0 177 152 401q19 28 45 78l-33 24q-26 -29 -47.5 -56.5t-30.5 -37.5
q-117 -142 -241.5 -269.5t-295 -232t-344.5 -104.5q-202 0 -301.5 105t-99.5 251q0 87 16 136l340 147q-28 -105 -28 -164q0 -85 37.5 -151t126.5 -66q105 0 226 82.5t318 257.5l-16 25q-99 -62 -234 -62q-229 0 -229 225q0 114 69 261.5t188.5 284t275.5 223.5t319 87
q185 0 291 -184zM1606 1274q-57 98 -168 98q-80 0 -190.5 -67.5t-192.5 -173t-92 -213.5v-41q6 -49 39.5 -78t78.5 -29q60 0 151 44t192.5 158t181.5 302z" />
  </font>
</defs>
</svg>
